M48
; DRILL file {KiCad 5.1.9+dfsg1-1} date Thu May 27 11:39:37 2021
; FORMAT={3:3/ absolute / metric / keep zeros}
; #@! TF.CreationDate,2021-05-27T11:39:37-06:00
; #@! TF.GenerationSoftware,Kicad,Pcbnew,5.1.9+dfsg1-1
; #@! TF.FileFunction,Plated,1,4,PTH
FMAT,2
METRIC
T1C0.200
T2C0.250
T3C0.500
T4C0.600
T5C1.000
T6C3.400
T7C4.750
%
G90
G05
T1
X019500Y-029500
X023000Y-026000
X033000Y-055500
X034500Y-055500
X036000Y-075000
X036000Y-093500
X038500Y-019000
X039050Y-075000
X040600Y-022850
X043400Y-095000
X045900Y-095000
X047750Y-094000
X049550Y-002600
X050500Y-002600
X051450Y-002600
X052500Y-059000
X054650Y-004800
X056350Y-004800
X057000Y-030000
X060310Y-078000
X060500Y-097000
X061050Y007980
X061500Y-026000
X064550Y007980
X064700Y-041000
X065450Y-094500
X070250Y001300
X072150Y001300
X072400Y005100
X072500Y006250
X072500Y003450
X072650Y004550
X072850Y-066550
X072986Y005050
X073514Y005050
X074750Y003400
X074900Y004800
X075400Y005100
X075750Y004550
X076000Y005100
X076000Y-064000
X076500Y-019000
X076500Y-021500
X076986Y005100
X077514Y005100
X078000Y006250
X078150Y005100
X078250Y004550
X078250Y003400
X080250Y-078000
X081150Y000300
X081150Y-001100
X081650Y-000137
X081650Y-000664
X082000Y007000
X083500Y007000
X084150Y-001150
X085100Y001263
X085100Y000736
X085560Y001740
X085650Y000350
X085750Y-095000
X085850Y-001150
X086550Y001750
X088250Y001750
X089750Y006800
X090050Y003800
X090450Y-001750
X090500Y-059000
X090850Y003550
X090850Y002200
X090850Y-000650
X090950Y006450
X090950Y005350
X091000Y008700
X091500Y007750
X091500Y004050
X091750Y003100
X091750Y001000
X091750Y-001600
X093000Y007800
X093000Y-097000
X093200Y-001000
X093250Y000500
X094400Y004400
X094600Y008850
X096214Y-006686
X096586Y-006314
X098250Y-021000
X099500Y-019000
X102000Y-095500
X105950Y006950
X106250Y003450
X106700Y009100
X107300Y007300
X107450Y006450
X108550Y006450
X109500Y-068000
X109585Y008305
X112350Y008650
X112750Y010600
X112800Y007600
X113550Y008650
X114000Y-064000
X114515Y004965
X116450Y004230
X117250Y-019250
X117250Y-022500
X118040Y004220
X121500Y-097000
X123100Y005500
X123100Y004500
X123750Y-096000
X124500Y005000
X124500Y-001800
X125900Y003000
X125900Y000200
X126000Y004664
X126000Y004137
X126100Y-002100
X126200Y-001000
X126700Y003000
X126700Y001600
X126750Y005500
X126750Y000200
X127000Y008100
X127000Y007200
X127200Y-001300
X127750Y007200
X127800Y008100
X128000Y-001250
X128100Y011500
X128500Y-059000
X129000Y-001250
X129000Y-002050
X129250Y010650
X129300Y011400
X129600Y007200
X130136Y-002050
X130400Y-001250
X130600Y008100
X130600Y007200
X130650Y-008500
X130664Y-002050
X130950Y-005350
X131600Y-001250
X131650Y007200
X132600Y008100
X132600Y-001250
X132600Y-002050
X132650Y007200
X132950Y011150
X133300Y007900
X133400Y007250
X133737Y-002050
X133750Y-001300
X134264Y-002050
X135000Y-001900
X135200Y007000
X135200Y005100
X135200Y004200
X135200Y003000
X135200Y002000
X135200Y001000
X135200Y-000400
X135200Y-001400
X135600Y-001950
X135800Y010700
X136000Y009950
X136000Y-018500
X136000Y-029250
X136100Y007000
X136100Y004200
X136100Y003000
X136100Y001000
X136100Y-001400
X136200Y-002300
X136520Y010300
X136900Y-008500
X137400Y009850
X137500Y-001000
X137550Y006600
X137950Y001050
X138100Y-002150
X138250Y007950
X138500Y-078000
X138700Y006100
X138850Y-002150
X138950Y007100
X139750Y003800
X139750Y-001800
X139800Y-077000
X139870Y010430
X140000Y004750
X140000Y001000
X140250Y002500
X140250Y-000450
X140500Y003750
X141300Y003600
X142100Y006050
X142500Y-049000
X142550Y002250
X142800Y006050
X144300Y007000
X144300Y006050
X144300Y005100
X144300Y002250
X144353Y-047353
X144600Y001763
X144600Y001236
X145050Y000850
X145050Y-005300
X145500Y-021200
X145900Y-000550
X147100Y005350
X147350Y003950
X147500Y006250
X147500Y-068000
X147600Y-000550
X147650Y004550
X147987Y005050
X148000Y001100
X148050Y000463
X148050Y-000064
X148514Y005050
X149000Y006400
X149250Y003350
X149750Y001700
X149850Y005050
X150450Y005050
X150850Y004600
X151000Y006750
X151300Y003100
X151500Y006250
X151500Y-064000
X151987Y005050
X152500Y-023800
X152514Y005050
X153000Y006250
X153100Y005100
X153250Y004550
X153250Y003400
X156750Y-076500
X157050Y-086950
X157690Y002410
X158150Y002750
X158300Y001400
X159600Y000600
X160202Y-084152
X160750Y003200
X161750Y006200
X162000Y-041000
X162300Y002900
X163000Y002250
X163267Y008183
X164000Y007000
X167000Y-059000
X173950Y010400
X175199Y-021651
X176200Y004750
X176500Y-078000
X176550Y002800
X177100Y003100
X177150Y-076000
X177550Y001850
X178850Y001850
X179300Y006850
X179300Y003100
X179900Y004400
X179950Y007050
X180500Y-049000
X180650Y006700
X180950Y001850
X183550Y005750
X183700Y007950
X183700Y003650
X183850Y005150
X184450Y002300
X185000Y-045000
X185340Y-067990
X185500Y-097000
X189430Y002580
X190000Y-064000
X190500Y-019750
X191000Y002500
X192050Y002650
X192850Y-075500
X194843Y-087143
X197489Y-084789
X200000Y-041000
X205000Y-059000
X207250Y-007750
X209850Y000100
X209950Y-016000
X210050Y-000500
X210250Y-007750
X210434Y-025266
X210700Y-015950
X210900Y-002450
X211121Y-024579
X211650Y002600
X211650Y-003000
X212000Y001100
X212000Y-000200
X212000Y-001500
X212350Y002600
X212350Y-003000
X213800Y-021000
X214000Y-078000
X214250Y-075000
X214400Y008450
X214400Y006550
X216250Y001900
X216250Y-001200
X217950Y001900
X217950Y-001200
X218750Y005700
X220200Y002050
X220200Y001414
X220200Y000887
X220200Y000250
X221950Y001100
X222350Y003800
X222400Y005100
X222414Y000636
X222500Y006250
X222500Y-056000
X222600Y004600
X222786Y000264
X222986Y005000
X223250Y-000200
X223300Y-068000
X223514Y005000
X224500Y-056000
X224750Y003375
X224850Y004850
X225000Y-019750
X225450Y005100
X225800Y004600
X225825Y006425
X226986Y005100
X227514Y005100
X228000Y006250
X228000Y-064000
X228250Y005150
X228250Y004550
X228250Y003400
X229000Y-097000
X238000Y-041000
X239000Y-074500
X239335Y-084185
X239850Y-017250
X241065Y-083415
X243550Y-005450
X244500Y-059000
X245250Y-005450
X245890Y-059000
X249550Y-004100
X250000Y-019750
X250500Y-021000
X251450Y-004100
X255000Y-027000
X255450Y-018600
X255500Y-078000
X257850Y-078000
X259250Y-041000
X266650Y-055500
X275250Y-056000
X275250Y-056750
X276350Y-074890
X277200Y-084500
X277500Y-055500
X281000Y-097000
X281500Y-112000
X282100Y-081350
X282250Y-037700
X282300Y-087250
X282600Y-055500
X282700Y-038300
X283000Y-056000
X283000Y-056750
X283000Y-096500
X283150Y-079800
X283150Y-080800
X283400Y-089150
X283500Y-088250
X283750Y-083000
X283800Y-083750
X283800Y-087750
X284250Y-065250
X284600Y-000700
X284750Y-078050
X286000Y-090250
X286250Y-079250
X286500Y-090000
X287000Y-079250
X287000Y-090250
X287500Y000000
X287500Y-081500
X287500Y-090000
X288000Y-081100
X288000Y-090250
X288200Y006600
X288298Y004398
X288500Y-090000
X288850Y-080950
X289000Y-090250
X289500Y-090000
X290000Y-090400
X290500Y-090000
X290850Y-079500
X291000Y-090400
X291750Y-093750
X292000Y-079200
X292050Y-082900
X292050Y-088550
X292100Y-087250
X292150Y-087900
X292200Y-084250
X292300Y-095750
X292500Y-084750
X293000Y-079200
X296500Y-081000
X296500Y-090000
X296950Y-065300
X297350Y-026950
X298500Y-076350
T2
X008900Y-025050
X011100Y-003850
X011100Y-022850
X013100Y-010300
X014300Y-044550
X015850Y-041850
X018400Y-063050
X018400Y-101050
X020600Y-060850
X020600Y-098850
X023150Y-082050
X025350Y-079850
X025700Y-010350
X027900Y-025050
X030100Y-003850
X030100Y-022850
X037400Y-044050
X039600Y-041850
X042150Y-101050
X042200Y-063000
X044300Y-060850
X044350Y-098850
X044750Y-010300
X046900Y-025050
X047500Y001950
X047500Y-000150
X049100Y-022850
X050250Y-004450
X050500Y001950
X050500Y-000150
X050500Y-001900
X051650Y-082050
X053500Y001950
X053500Y-000150
X053850Y-079850
X056400Y-044050
X058600Y-041850
X061150Y-063050
X061150Y-101050
X061750Y000500
X062750Y000500
X063350Y-060850
X063350Y-098850
X063500Y-010350
X063750Y000500
X065900Y-025050
X066250Y000500
X067250Y000500
X068100Y-022850
X068250Y000500
X068800Y-004000
X070650Y-082050
X071200Y001350
X071200Y-000300
X072850Y-079850
X075000Y009250
X075400Y-044050
X077600Y-041850
X080150Y-063050
X080150Y-101050
X082350Y-060850
X082350Y-098850
X082600Y-010350
X084900Y-025050
X087100Y-022850
X088400Y-005000
X089650Y-082050
X091550Y010750
X091850Y-079850
X092150Y010750
X093750Y009800
X094400Y-044050
X095750Y-007250
X096600Y-041850
X097000Y-005750
X098500Y008000
X098500Y007000
X098500Y005750
X098500Y004750
X099150Y-063050
X100500Y008000
X100500Y007000
X100500Y005750
X101350Y-060850
X102850Y006850
X102900Y007800
X103550Y-005550
X103900Y-025050
X104150Y-041000
X105000Y-015500
X106100Y-022850
X106476Y-004326
X106500Y-015500
X108000Y-015500
X108650Y-082050
X108650Y-101050
X108700Y007488
X108713Y009300
X109500Y-015500
X109513Y010300
X110200Y006525
X110700Y007500
X110850Y-079850
X110850Y-098850
X111000Y005950
X111000Y005000
X111000Y-015500
X113400Y-044050
X115600Y-041850
X118150Y-063050
X120350Y-060850
X120550Y-010300
X121300Y005500
X122500Y008250
X122500Y006250
X122900Y-025050
X123500Y008250
X123500Y006250
X125100Y-022850
X125150Y-003800
X125650Y-024400
X127650Y-082050
X129850Y-079850
X132400Y-044050
X134600Y-041850
X137150Y-063050
X138200Y008900
X139450Y-010250
X139450Y-061475
X140000Y008800
X141250Y-023500
X141900Y-025050
X144100Y-022850
X146650Y-082050
X146650Y-101050
X148850Y-079850
X148850Y-098850
X151150Y000150
X151350Y009600
X151400Y-044050
X153600Y-041850
X156100Y003000
X156150Y-063050
X156400Y009400
X158350Y005050
X158350Y-060850
X158450Y-010300
X160900Y-025050
X163100Y-022850
X163550Y-004300
X165650Y-082050
X167850Y-079850
X170400Y-044050
X170550Y-008750
X172100Y-008750
X172600Y-041850
X175150Y-063050
X175150Y-101050
X175750Y008200
X177350Y-060850
X177350Y-098850
X177450Y-010250
X179900Y-025050
X182100Y-022850
X182450Y-004400
X183750Y007000
X184650Y-082050
X186850Y-079850
X189400Y-044050
X191600Y-041850
X193200Y002700
X194150Y-063050
X194150Y-101050
X195750Y012000
X196350Y-060850
X196350Y-098850
X196550Y-010300
X198900Y-025050
X201100Y-003850
X201100Y-022850
X203650Y-082050
X205850Y-079850
X208400Y-044050
X208500Y007750
X208500Y006750
X209750Y007750
X210600Y-041850
X213150Y-063050
X215350Y-060850
X215700Y-010250
X215950Y007500
X217900Y-025050
X217900Y-101050
X218150Y008450
X218150Y007500
X218150Y006550
X220100Y-003850
X220100Y-022850
X220100Y-098850
X222650Y-082050
X224850Y-079850
X227400Y-044050
X229600Y-041850
X231000Y002250
X231000Y001250
X232150Y-063050
X234350Y-060850
X234550Y-010300
X236900Y-025050
X238600Y-003450
X239100Y-022850
X239250Y008750
X239250Y007250
X239500Y002250
X239500Y001250
X242750Y007400
X242750Y004400
X244856Y-003302
X246400Y-044050
X246400Y-082050
X247500Y001900
X247500Y-000150
X248600Y-041850
X248600Y-079850
X250500Y001950
X250500Y-000150
X250500Y-001900
X250500Y-002600
X250500Y-004100
X251150Y-101050
X253322Y-098822
X253500Y001950
X253500Y-000150
X254250Y-004850
X255900Y-063050
X257000Y-002000
X258100Y-060850
X258250Y007400
X258250Y004400
X260650Y-025050
X260769Y-006269
X262850Y-003850
X263250Y-022400
X265400Y-044050
X267600Y-041850
X270100Y-082150
X270150Y-101050
X272350Y-079900
X272350Y-098850
X273450Y-027500
X274572Y-043478
X276550Y-027500
X277300Y-043500
X289100Y-044100
X289150Y-006050
X289150Y-025050
X289150Y-063050
X289150Y-101050
X290250Y-003500
X290350Y-041350
X291350Y-022850
X291350Y-060850
X291350Y-098850
T5
X166600Y004750
X170650Y004700
T6
X142000Y-057250
T7
X006102Y-105000
X018852Y-019506
X030727Y-064500
X128102Y-105000
X151852Y-019506
X234975Y-105000
X272977Y-067000
X275352Y-019506
T3
G00X071010Y012140
M15
G01X071010Y011540
M16
G05
G00X071370Y006190
M15
G01X071370Y005590
M16
G05
G00X079630Y006190
M15
G01X079630Y005590
M16
G05
G00X079990Y012140
M15
G01X079990Y011540
M16
G05
G00X146010Y012140
M15
G01X146010Y011540
M16
G05
G00X146370Y006190
M15
G01X146370Y005590
M16
G05
G00X154630Y006190
M15
G01X154630Y005590
M16
G05
G00X154990Y012140
M15
G01X154990Y011540
M16
G05
G00X221010Y012140
M15
G01X221010Y011540
M16
G05
G00X221370Y006190
M15
G01X221370Y005590
M16
G05
G00X229630Y006190
M15
G01X229630Y005590
M16
G05
G00X229990Y012140
M15
G01X229990Y011540
M16
G05
T4
G00X042600Y000860
M15
G01X042600Y002440
M16
G05
G00X058400Y000910
M15
G01X058400Y002490
M16
G05
G00X242600Y000860
M15
G01X242600Y002440
M16
G05
G00X258400Y000910
M15
G01X258400Y002490
M16
G05
T0
M30
