M48
; DRILL file {KiCad 5.1.9+dfsg1-1} date Thu May 27 11:39:37 2021
; FORMAT={3:3/ absolute / metric / keep zeros}
; #@! TF.CreationDate,2021-05-27T11:39:37-06:00
; #@! TF.GenerationSoftware,Kicad,Pcbnew,5.1.9+dfsg1-1
; #@! TF.FileFunction,NonPlated,1,4,NPTH
FMAT,2
METRIC
T1C0.650
T2C0.991
T3C1.702
T4C2.375
T5C3.000
T6C3.988
%
G90
G05
T1
X071900Y004640
X146900Y004640
X221900Y004640
T2
X285984Y007540
X287000Y002460
X288016Y007540
T3
X004920Y-010000
X004920Y-029000
X009670Y-048000
X014420Y-067000
X014420Y-105000
X015080Y-010000
X015080Y-029000
X019170Y-086000
X019830Y-048000
X023920Y-010000
X023920Y-029000
X024580Y-067000
X024580Y-105000
X029330Y-086000
X033420Y-048000
X034080Y-010000
X034080Y-029000
X038170Y-067000
X038170Y-105000
X042920Y-010000
X042920Y-029000
X043580Y-048000
X047670Y-086000
X048330Y-067000
X048330Y-105000
X052420Y-048000
X053080Y-010000
X053080Y-029000
X057170Y-067000
X057170Y-105000
X057830Y-086000
X061920Y-010000
X061920Y-029000
X062580Y-048000
X066670Y-086000
X067330Y-067000
X067330Y-105000
X071420Y-048000
X072080Y-010000
X072080Y-029000
X076170Y-067000
X076170Y-105000
X076830Y-086000
X080920Y-010000
X080920Y-029000
X081580Y-048000
X085670Y-086000
X086330Y-067000
X086330Y-105000
X090420Y-048000
X091080Y-010000
X091080Y-029000
X095170Y-067000
X095830Y-086000
X099920Y-010000
X099920Y-029000
X100580Y-048000
X104670Y-086000
X104670Y-105000
X105330Y-067000
X109420Y-048000
X110080Y-010000
X110080Y-029000
X114170Y-067000
X114830Y-086000
X114830Y-105000
X118920Y-010000
X118920Y-029000
X119580Y-048000
X123670Y-086000
X124330Y-067000
X128420Y-048000
X129080Y-010000
X129080Y-029000
X133170Y-067000
X133830Y-086000
X137920Y-010000
X137920Y-029000
X138580Y-048000
X142670Y-086000
X142670Y-105000
X143330Y-067000
X147420Y-048000
X148080Y-010000
X148080Y-029000
X152170Y-067000
X152830Y-086000
X152830Y-105000
X156920Y-010000
X156920Y-029000
X157580Y-048000
X161670Y-086000
X162330Y-067000
X166420Y-048000
X167080Y-010000
X167080Y-029000
X171170Y-067000
X171170Y-105000
X171830Y-086000
X175920Y-010000
X175920Y-029000
X176580Y-048000
X180670Y-086000
X181330Y-067000
X181330Y-105000
X185420Y-048000
X186080Y-010000
X186080Y-029000
X190170Y-067000
X190170Y-105000
X190830Y-086000
X194920Y-010000
X194920Y-029000
X195580Y-048000
X199670Y-086000
X200330Y-067000
X200330Y-105000
X204420Y-048000
X205080Y-010000
X205080Y-029000
X209170Y-067000
X209830Y-086000
X213920Y-010000
X213920Y-029000
X213920Y-105000
X214580Y-048000
X218670Y-086000
X219330Y-067000
X223420Y-048000
X224080Y-010000
X224080Y-029000
X224080Y-105000
X228170Y-067000
X228830Y-086000
X232920Y-010000
X232920Y-029000
X233580Y-048000
X238330Y-067000
X242420Y-048000
X242420Y-086000
X243080Y-010000
X243080Y-029000
X247170Y-105000
X251920Y-067000
X252580Y-048000
X252580Y-086000
X256670Y-010000
X256670Y-029000
X257330Y-105000
X261420Y-048000
X262080Y-067000
X266170Y-086000
X266170Y-105000
X266830Y-010000
X266830Y-029000
X271580Y-048000
X276330Y-086000
X276330Y-105000
X285170Y-010000
X285170Y-029000
X285170Y-048000
X285170Y-067000
X285170Y-105000
X295330Y-010000
X295330Y-029000
X295330Y-048000
X295330Y-067000
X295330Y-105000
T4
X284460Y005635
X284460Y002460
X289540Y005635
X289540Y002460
T5
X007460Y-015080
X007460Y-034080
X012210Y-053080
X013810Y-012540
X013810Y-031540
X016960Y-072080
X016960Y-110080
X018560Y-050540
X021710Y-091080
X023310Y-069540
X023310Y-107540
X026460Y-015080
X026460Y-034080
X028060Y-088540
X032810Y-012540
X032810Y-031540
X035960Y-053080
X040710Y-072080
X040710Y-110080
X042310Y-050540
X045460Y-015080
X045460Y-034080
X047060Y-069540
X047060Y-107540
X050210Y-091080
X051810Y-012540
X051810Y-031540
X054960Y-053080
X056560Y-088540
X059710Y-072080
X059710Y-110080
X061310Y-050540
X064460Y-015080
X064460Y-034080
X066060Y-069540
X066060Y-107540
X069210Y-091080
X070810Y-012540
X070810Y-031540
X073960Y-053080
X075560Y-088540
X078710Y-072080
X078710Y-110080
X080310Y-050540
X083460Y-015080
X083460Y-034080
X085060Y-069540
X085060Y-107540
X088210Y-091080
X089810Y-012540
X089810Y-031540
X092960Y-053080
X094560Y-088540
X097710Y-072080
X099310Y-050540
X102460Y-015080
X102460Y-034080
X104060Y-069540
X107210Y-091080
X107210Y-110080
X108810Y-012540
X108810Y-031540
X111960Y-053080
X113560Y-088540
X113560Y-107540
X116710Y-072080
X118310Y-050540
X121460Y-015080
X121460Y-034080
X123060Y-069540
X126210Y-091080
X127810Y-012540
X127810Y-031540
X130960Y-053080
X132560Y-088540
X135710Y-072080
X137310Y-050540
X140460Y-015080
X140460Y-034080
X142060Y-069540
X145210Y-091080
X145210Y-110080
X146810Y-012540
X146810Y-031540
X149960Y-053080
X151560Y-088540
X151560Y-107540
X154710Y-072080
X156310Y-050540
X159460Y-015080
X159460Y-034080
X161060Y-069540
X164210Y-091080
X165810Y-012540
X165810Y-031540
X168960Y-053080
X170560Y-088540
X173710Y-072080
X173710Y-110080
X175310Y-050540
X178460Y-015080
X178460Y-034080
X180060Y-069540
X180060Y-107540
X183210Y-091080
X184810Y-012540
X184810Y-031540
X187960Y-053080
X189560Y-088540
X192710Y-072080
X192710Y-110080
X194310Y-050540
X197460Y-015080
X197460Y-034080
X199060Y-069540
X199060Y-107540
X202210Y-091080
X203810Y-012540
X203810Y-031540
X206960Y-053080
X208560Y-088540
X211710Y-072080
X213310Y-050540
X216460Y-015080
X216460Y-034080
X216460Y-110080
X218060Y-069540
X221210Y-091080
X222810Y-012540
X222810Y-031540
X222810Y-107540
X225960Y-053080
X227560Y-088540
X230710Y-072080
X232310Y-050540
X235460Y-015080
X235460Y-034080
X237060Y-069540
X241810Y-012540
X241810Y-031540
X244960Y-053080
X244960Y-091080
X249710Y-110080
X251310Y-050540
X251310Y-088540
X254460Y-072080
X256060Y-107540
X259210Y-015080
X259210Y-034080
X260810Y-069540
X263960Y-053080
X265560Y-012540
X265560Y-031540
X268710Y-091080
X268710Y-110080
X270310Y-050540
X275060Y-088540
X275060Y-107540
X287710Y-015080
X287710Y-034080
X287710Y-053080
X287710Y-072080
X287710Y-110080
X294060Y-012540
X294060Y-031540
X294060Y-050540
X294060Y-069540
X294060Y-107540
T6
X010000Y-010000
X010000Y-029000
X014750Y-048000
X019500Y-067000
X019500Y-105000
X024250Y-086000
X029000Y-010000
X029000Y-029000
X038500Y-048000
X043250Y-067000
X043250Y-105000
X048000Y-010000
X048000Y-029000
X052750Y-086000
X057500Y-048000
X062250Y-067000
X062250Y-105000
X067000Y-010000
X067000Y-029000
X071750Y-086000
X076500Y-048000
X081250Y-067000
X081250Y-105000
X086000Y-010000
X086000Y-029000
X090750Y-086000
X095500Y-048000
X100250Y-067000
X105000Y-010000
X105000Y-029000
X109750Y-086000
X109750Y-105000
X114500Y-048000
X119250Y-067000
X124000Y-010000
X124000Y-029000
X128750Y-086000
X133500Y-048000
X138250Y-067000
X143000Y-010000
X143000Y-029000
X147750Y-086000
X147750Y-105000
X152500Y-048000
X157250Y-067000
X162000Y-010000
X162000Y-029000
X166750Y-086000
X171500Y-048000
X176250Y-067000
X176250Y-105000
X181000Y-010000
X181000Y-029000
X185750Y-086000
X190500Y-048000
X195250Y-067000
X195250Y-105000
X200000Y-010000
X200000Y-029000
X204750Y-086000
X209500Y-048000
X214250Y-067000
X219000Y-010000
X219000Y-029000
X219000Y-105000
X223750Y-086000
X228500Y-048000
X233250Y-067000
X238000Y-010000
X238000Y-029000
X247500Y-048000
X247500Y-086000
X252250Y-105000
X257000Y-067000
X261750Y-010000
X261750Y-029000
X266500Y-048000
X271250Y-086000
X271250Y-105000
X290250Y-010000
X290250Y-029000
X290250Y-048000
X290250Y-067000
X290250Y-105000
T1
G00X078950Y004640
M15
G01X079250Y004640
M16
G05
G00X153950Y004640
M15
G01X154250Y004640
M16
G05
G00X228950Y004640
M15
G01X229250Y004640
M16
G05
T0
M30
