G04 #@! TF.GenerationSoftware,KiCad,Pcbnew,5.1.9+dfsg1-1*
G04 #@! TF.CreationDate,2021-05-27T11:39:34-06:00*
G04 #@! TF.ProjectId,launch,6c61756e-6368-42e6-9b69-6361645f7063,rev?*
G04 #@! TF.SameCoordinates,Original*
G04 #@! TF.FileFunction,Soldermask,Top*
G04 #@! TF.FilePolarity,Negative*
%FSLAX46Y46*%
G04 Gerber Fmt 4.6, Leading zero omitted, Abs format (unit mm)*
G04 Created by KiCad (PCBNEW 5.1.9+dfsg1-1) date 2021-05-27 11:39:34*
%MOMM*%
%LPD*%
G01*
G04 APERTURE LIST*
%ADD10C,0.150000*%
%ADD11O,0.900000X1.500000*%
%ADD12O,1.050000X0.750000*%
%ADD13C,0.750000*%
%ADD14C,3.100000*%
%ADD15C,4.087800*%
%ADD16C,1.801800*%
%ADD17C,7.100000*%
%ADD18C,1.090600*%
%ADD19C,2.474900*%
%ADD20C,2.100000*%
%ADD21C,1.500000*%
G04 APERTURE END LIST*
D10*
X192738Y-118952380D02*
X764166Y-118952380D01*
X478452Y-119952380D02*
X478452Y-118952380D01*
X1240357Y-119952380D02*
X1145119Y-119904761D01*
X1097500Y-119857142D01*
X1049880Y-119761904D01*
X1049880Y-119476190D01*
X1097500Y-119380952D01*
X1145119Y-119333333D01*
X1240357Y-119285714D01*
X1383214Y-119285714D01*
X1478452Y-119333333D01*
X1526071Y-119380952D01*
X1573690Y-119476190D01*
X1573690Y-119761904D01*
X1526071Y-119857142D01*
X1478452Y-119904761D01*
X1383214Y-119952380D01*
X1240357Y-119952380D01*
X2002261Y-119285714D02*
X2002261Y-120285714D01*
X2002261Y-119333333D02*
X2097500Y-119285714D01*
X2287976Y-119285714D01*
X2383214Y-119333333D01*
X2430833Y-119380952D01*
X2478452Y-119476190D01*
X2478452Y-119761904D01*
X2430833Y-119857142D01*
X2383214Y-119904761D01*
X2287976Y-119952380D01*
X2097500Y-119952380D01*
X2002261Y-119904761D01*
X3621309Y-119904761D02*
X3764166Y-119952380D01*
X4002261Y-119952380D01*
X4097499Y-119904761D01*
X4145119Y-119857142D01*
X4192738Y-119761904D01*
X4192738Y-119666666D01*
X4145119Y-119571428D01*
X4097499Y-119523809D01*
X4002261Y-119476190D01*
X3811785Y-119428571D01*
X3716547Y-119380952D01*
X3668928Y-119333333D01*
X3621309Y-119238095D01*
X3621309Y-119142857D01*
X3668928Y-119047619D01*
X3716547Y-119000000D01*
X3811785Y-118952380D01*
X4049880Y-118952380D01*
X4192738Y-119000000D01*
X4764166Y-119952380D02*
X4668928Y-119904761D01*
X4621309Y-119857142D01*
X4573690Y-119761904D01*
X4573690Y-119476190D01*
X4621309Y-119380952D01*
X4668928Y-119333333D01*
X4764166Y-119285714D01*
X4907023Y-119285714D01*
X5002261Y-119333333D01*
X5049880Y-119380952D01*
X5097500Y-119476190D01*
X5097500Y-119761904D01*
X5049880Y-119857142D01*
X5002261Y-119904761D01*
X4907023Y-119952380D01*
X4764166Y-119952380D01*
X5668928Y-119952380D02*
X5573690Y-119904761D01*
X5526071Y-119809523D01*
X5526071Y-118952380D01*
X6478452Y-119952380D02*
X6478452Y-118952380D01*
X6478452Y-119904761D02*
X6383214Y-119952380D01*
X6192738Y-119952380D01*
X6097499Y-119904761D01*
X6049880Y-119857142D01*
X6002261Y-119761904D01*
X6002261Y-119476190D01*
X6049880Y-119380952D01*
X6097499Y-119333333D01*
X6192738Y-119285714D01*
X6383214Y-119285714D01*
X6478452Y-119333333D01*
X7335595Y-119904761D02*
X7240357Y-119952380D01*
X7049880Y-119952380D01*
X6954642Y-119904761D01*
X6907023Y-119809523D01*
X6907023Y-119428571D01*
X6954642Y-119333333D01*
X7049880Y-119285714D01*
X7240357Y-119285714D01*
X7335595Y-119333333D01*
X7383214Y-119428571D01*
X7383214Y-119523809D01*
X6907023Y-119619047D01*
X7811785Y-119952380D02*
X7811785Y-119285714D01*
X7811785Y-119476190D02*
X7859404Y-119380952D01*
X7907023Y-119333333D01*
X8002261Y-119285714D01*
X8097499Y-119285714D01*
X8430833Y-119952380D02*
X8430833Y-119285714D01*
X8430833Y-119380952D02*
X8478452Y-119333333D01*
X8573690Y-119285714D01*
X8716547Y-119285714D01*
X8811785Y-119333333D01*
X8859404Y-119428571D01*
X8859404Y-119952380D01*
X8859404Y-119428571D02*
X8907023Y-119333333D01*
X9002261Y-119285714D01*
X9145119Y-119285714D01*
X9240357Y-119333333D01*
X9287976Y-119428571D01*
X9287976Y-119952380D01*
X10192738Y-119952380D02*
X10192738Y-119428571D01*
X10145119Y-119333333D01*
X10049880Y-119285714D01*
X9859404Y-119285714D01*
X9764166Y-119333333D01*
X10192738Y-119904761D02*
X10097500Y-119952380D01*
X9859404Y-119952380D01*
X9764166Y-119904761D01*
X9716547Y-119809523D01*
X9716547Y-119714285D01*
X9764166Y-119619047D01*
X9859404Y-119571428D01*
X10097500Y-119571428D01*
X10192738Y-119523809D01*
X10621309Y-119904761D02*
X10716547Y-119952380D01*
X10907023Y-119952380D01*
X11002261Y-119904761D01*
X11049880Y-119809523D01*
X11049880Y-119761904D01*
X11002261Y-119666666D01*
X10907023Y-119619047D01*
X10764166Y-119619047D01*
X10668928Y-119571428D01*
X10621309Y-119476190D01*
X10621309Y-119428571D01*
X10668928Y-119333333D01*
X10764166Y-119285714D01*
X10907023Y-119285714D01*
X11002261Y-119333333D01*
X11478452Y-119952380D02*
X11478452Y-118952380D01*
X11573690Y-119571428D02*
X11859404Y-119952380D01*
X11859404Y-119285714D02*
X11478452Y-119666666D01*
X192738Y-118952380D02*
X764166Y-118952380D01*
X478452Y-119952380D02*
X478452Y-118952380D01*
X1240357Y-119952380D02*
X1145119Y-119904761D01*
X1097500Y-119857142D01*
X1049880Y-119761904D01*
X1049880Y-119476190D01*
X1097500Y-119380952D01*
X1145119Y-119333333D01*
X1240357Y-119285714D01*
X1383214Y-119285714D01*
X1478452Y-119333333D01*
X1526071Y-119380952D01*
X1573690Y-119476190D01*
X1573690Y-119761904D01*
X1526071Y-119857142D01*
X1478452Y-119904761D01*
X1383214Y-119952380D01*
X1240357Y-119952380D01*
X2002261Y-119285714D02*
X2002261Y-120285714D01*
X2002261Y-119333333D02*
X2097500Y-119285714D01*
X2287976Y-119285714D01*
X2383214Y-119333333D01*
X2430833Y-119380952D01*
X2478452Y-119476190D01*
X2478452Y-119761904D01*
X2430833Y-119857142D01*
X2383214Y-119904761D01*
X2287976Y-119952380D01*
X2097500Y-119952380D01*
X2002261Y-119904761D01*
X3621309Y-119904761D02*
X3764166Y-119952380D01*
X4002261Y-119952380D01*
X4097499Y-119904761D01*
X4145119Y-119857142D01*
X4192738Y-119761904D01*
X4192738Y-119666666D01*
X4145119Y-119571428D01*
X4097499Y-119523809D01*
X4002261Y-119476190D01*
X3811785Y-119428571D01*
X3716547Y-119380952D01*
X3668928Y-119333333D01*
X3621309Y-119238095D01*
X3621309Y-119142857D01*
X3668928Y-119047619D01*
X3716547Y-119000000D01*
X3811785Y-118952380D01*
X4049880Y-118952380D01*
X4192738Y-119000000D01*
X4764166Y-119952380D02*
X4668928Y-119904761D01*
X4621309Y-119857142D01*
X4573690Y-119761904D01*
X4573690Y-119476190D01*
X4621309Y-119380952D01*
X4668928Y-119333333D01*
X4764166Y-119285714D01*
X4907023Y-119285714D01*
X5002261Y-119333333D01*
X5049880Y-119380952D01*
X5097500Y-119476190D01*
X5097500Y-119761904D01*
X5049880Y-119857142D01*
X5002261Y-119904761D01*
X4907023Y-119952380D01*
X4764166Y-119952380D01*
X5668928Y-119952380D02*
X5573690Y-119904761D01*
X5526071Y-119809523D01*
X5526071Y-118952380D01*
X6478452Y-119952380D02*
X6478452Y-118952380D01*
X6478452Y-119904761D02*
X6383214Y-119952380D01*
X6192738Y-119952380D01*
X6097499Y-119904761D01*
X6049880Y-119857142D01*
X6002261Y-119761904D01*
X6002261Y-119476190D01*
X6049880Y-119380952D01*
X6097499Y-119333333D01*
X6192738Y-119285714D01*
X6383214Y-119285714D01*
X6478452Y-119333333D01*
X7335595Y-119904761D02*
X7240357Y-119952380D01*
X7049880Y-119952380D01*
X6954642Y-119904761D01*
X6907023Y-119809523D01*
X6907023Y-119428571D01*
X6954642Y-119333333D01*
X7049880Y-119285714D01*
X7240357Y-119285714D01*
X7335595Y-119333333D01*
X7383214Y-119428571D01*
X7383214Y-119523809D01*
X6907023Y-119619047D01*
X7811785Y-119952380D02*
X7811785Y-119285714D01*
X7811785Y-119476190D02*
X7859404Y-119380952D01*
X7907023Y-119333333D01*
X8002261Y-119285714D01*
X8097499Y-119285714D01*
X8430833Y-119952380D02*
X8430833Y-119285714D01*
X8430833Y-119380952D02*
X8478452Y-119333333D01*
X8573690Y-119285714D01*
X8716547Y-119285714D01*
X8811785Y-119333333D01*
X8859404Y-119428571D01*
X8859404Y-119952380D01*
X8859404Y-119428571D02*
X8907023Y-119333333D01*
X9002261Y-119285714D01*
X9145119Y-119285714D01*
X9240357Y-119333333D01*
X9287976Y-119428571D01*
X9287976Y-119952380D01*
X10192738Y-119952380D02*
X10192738Y-119428571D01*
X10145119Y-119333333D01*
X10049880Y-119285714D01*
X9859404Y-119285714D01*
X9764166Y-119333333D01*
X10192738Y-119904761D02*
X10097500Y-119952380D01*
X9859404Y-119952380D01*
X9764166Y-119904761D01*
X9716547Y-119809523D01*
X9716547Y-119714285D01*
X9764166Y-119619047D01*
X9859404Y-119571428D01*
X10097500Y-119571428D01*
X10192738Y-119523809D01*
X10621309Y-119904761D02*
X10716547Y-119952380D01*
X10907023Y-119952380D01*
X11002261Y-119904761D01*
X11049880Y-119809523D01*
X11049880Y-119761904D01*
X11002261Y-119666666D01*
X10907023Y-119619047D01*
X10764166Y-119619047D01*
X10668928Y-119571428D01*
X10621309Y-119476190D01*
X10621309Y-119428571D01*
X10668928Y-119333333D01*
X10764166Y-119285714D01*
X10907023Y-119285714D01*
X11002261Y-119333333D01*
X11478452Y-119952380D02*
X11478452Y-118952380D01*
X11573690Y-119571428D02*
X11859404Y-119952380D01*
X11859404Y-119285714D02*
X11478452Y-119666666D01*
G36*
G01*
X107012500Y5375000D02*
X106687500Y5375000D01*
G75*
G02*
X106550000Y5512500I0J137500D01*
G01*
X106550000Y5787500D01*
G75*
G02*
X106687500Y5925000I137500J0D01*
G01*
X107012500Y5925000D01*
G75*
G02*
X107150000Y5787500I0J-137500D01*
G01*
X107150000Y5512500D01*
G75*
G02*
X107012500Y5375000I-137500J0D01*
G01*
G37*
G36*
G01*
X107012500Y4475000D02*
X106687500Y4475000D01*
G75*
G02*
X106550000Y4612500I0J137500D01*
G01*
X106550000Y4887500D01*
G75*
G02*
X106687500Y5025000I137500J0D01*
G01*
X107012500Y5025000D01*
G75*
G02*
X107150000Y4887500I0J-137500D01*
G01*
X107150000Y4612500D01*
G75*
G02*
X107012500Y4475000I-137500J0D01*
G01*
G37*
G36*
G01*
X110537500Y8875000D02*
X110862500Y8875000D01*
G75*
G02*
X111000000Y8737500I0J-137500D01*
G01*
X111000000Y8462500D01*
G75*
G02*
X110862500Y8325000I-137500J0D01*
G01*
X110537500Y8325000D01*
G75*
G02*
X110400000Y8462500I0J137500D01*
G01*
X110400000Y8737500D01*
G75*
G02*
X110537500Y8875000I137500J0D01*
G01*
G37*
G36*
G01*
X110537500Y9775000D02*
X110862500Y9775000D01*
G75*
G02*
X111000000Y9637500I0J-137500D01*
G01*
X111000000Y9362500D01*
G75*
G02*
X110862500Y9225000I-137500J0D01*
G01*
X110537500Y9225000D01*
G75*
G02*
X110400000Y9362500I0J137500D01*
G01*
X110400000Y9637500D01*
G75*
G02*
X110537500Y9775000I137500J0D01*
G01*
G37*
G36*
G01*
X70210000Y11440000D02*
X70210000Y12240000D01*
G75*
G02*
X70610000Y12640000I400000J0D01*
G01*
X71410000Y12640000D01*
G75*
G02*
X71810000Y12240000I0J-400000D01*
G01*
X71810000Y11440000D01*
G75*
G02*
X71410000Y11040000I-400000J0D01*
G01*
X70610000Y11040000D01*
G75*
G02*
X70210000Y11440000I0J400000D01*
G01*
G37*
G36*
G01*
X79190000Y11440000D02*
X79190000Y12240000D01*
G75*
G02*
X79590000Y12640000I400000J0D01*
G01*
X80390000Y12640000D01*
G75*
G02*
X80790000Y12240000I0J-400000D01*
G01*
X80790000Y11440000D01*
G75*
G02*
X80390000Y11040000I-400000J0D01*
G01*
X79590000Y11040000D01*
G75*
G02*
X79190000Y11440000I0J400000D01*
G01*
G37*
G36*
G01*
X78450000Y5515000D02*
X78450000Y6265000D01*
G75*
G02*
X78825000Y6640000I375000J0D01*
G01*
X79675000Y6640000D01*
G75*
G02*
X80050000Y6265000I0J-375000D01*
G01*
X80050000Y5515000D01*
G75*
G02*
X79675000Y5140000I-375000J0D01*
G01*
X78825000Y5140000D01*
G75*
G02*
X78450000Y5515000I0J375000D01*
G01*
G37*
G36*
G01*
X70950000Y5515000D02*
X70950000Y6265000D01*
G75*
G02*
X71325000Y6640000I375000J0D01*
G01*
X72175000Y6640000D01*
G75*
G02*
X72550000Y6265000I0J-375000D01*
G01*
X72550000Y5515000D01*
G75*
G02*
X72175000Y5140000I-375000J0D01*
G01*
X71325000Y5140000D01*
G75*
G02*
X70950000Y5515000I0J375000D01*
G01*
G37*
D11*
X71370000Y5890000D03*
X79630000Y5890000D03*
X79990000Y11840000D03*
X71010000Y11840000D03*
D12*
X79100000Y4640000D03*
D13*
X71900000Y4640000D03*
G36*
G01*
X220210000Y11440000D02*
X220210000Y12240000D01*
G75*
G02*
X220610000Y12640000I400000J0D01*
G01*
X221410000Y12640000D01*
G75*
G02*
X221810000Y12240000I0J-400000D01*
G01*
X221810000Y11440000D01*
G75*
G02*
X221410000Y11040000I-400000J0D01*
G01*
X220610000Y11040000D01*
G75*
G02*
X220210000Y11440000I0J400000D01*
G01*
G37*
G36*
G01*
X229190000Y11440000D02*
X229190000Y12240000D01*
G75*
G02*
X229590000Y12640000I400000J0D01*
G01*
X230390000Y12640000D01*
G75*
G02*
X230790000Y12240000I0J-400000D01*
G01*
X230790000Y11440000D01*
G75*
G02*
X230390000Y11040000I-400000J0D01*
G01*
X229590000Y11040000D01*
G75*
G02*
X229190000Y11440000I0J400000D01*
G01*
G37*
G36*
G01*
X228450000Y5515000D02*
X228450000Y6265000D01*
G75*
G02*
X228825000Y6640000I375000J0D01*
G01*
X229675000Y6640000D01*
G75*
G02*
X230050000Y6265000I0J-375000D01*
G01*
X230050000Y5515000D01*
G75*
G02*
X229675000Y5140000I-375000J0D01*
G01*
X228825000Y5140000D01*
G75*
G02*
X228450000Y5515000I0J375000D01*
G01*
G37*
G36*
G01*
X220950000Y5515000D02*
X220950000Y6265000D01*
G75*
G02*
X221325000Y6640000I375000J0D01*
G01*
X222175000Y6640000D01*
G75*
G02*
X222550000Y6265000I0J-375000D01*
G01*
X222550000Y5515000D01*
G75*
G02*
X222175000Y5140000I-375000J0D01*
G01*
X221325000Y5140000D01*
G75*
G02*
X220950000Y5515000I0J375000D01*
G01*
G37*
D11*
X221370000Y5890000D03*
X229630000Y5890000D03*
X229990000Y11840000D03*
X221010000Y11840000D03*
D12*
X229100000Y4640000D03*
D13*
X221900000Y4640000D03*
G36*
G01*
X145210000Y11440000D02*
X145210000Y12240000D01*
G75*
G02*
X145610000Y12640000I400000J0D01*
G01*
X146410000Y12640000D01*
G75*
G02*
X146810000Y12240000I0J-400000D01*
G01*
X146810000Y11440000D01*
G75*
G02*
X146410000Y11040000I-400000J0D01*
G01*
X145610000Y11040000D01*
G75*
G02*
X145210000Y11440000I0J400000D01*
G01*
G37*
G36*
G01*
X154190000Y11440000D02*
X154190000Y12240000D01*
G75*
G02*
X154590000Y12640000I400000J0D01*
G01*
X155390000Y12640000D01*
G75*
G02*
X155790000Y12240000I0J-400000D01*
G01*
X155790000Y11440000D01*
G75*
G02*
X155390000Y11040000I-400000J0D01*
G01*
X154590000Y11040000D01*
G75*
G02*
X154190000Y11440000I0J400000D01*
G01*
G37*
G36*
G01*
X153450000Y5515000D02*
X153450000Y6265000D01*
G75*
G02*
X153825000Y6640000I375000J0D01*
G01*
X154675000Y6640000D01*
G75*
G02*
X155050000Y6265000I0J-375000D01*
G01*
X155050000Y5515000D01*
G75*
G02*
X154675000Y5140000I-375000J0D01*
G01*
X153825000Y5140000D01*
G75*
G02*
X153450000Y5515000I0J375000D01*
G01*
G37*
G36*
G01*
X145950000Y5515000D02*
X145950000Y6265000D01*
G75*
G02*
X146325000Y6640000I375000J0D01*
G01*
X147175000Y6640000D01*
G75*
G02*
X147550000Y6265000I0J-375000D01*
G01*
X147550000Y5515000D01*
G75*
G02*
X147175000Y5140000I-375000J0D01*
G01*
X146325000Y5140000D01*
G75*
G02*
X145950000Y5515000I0J375000D01*
G01*
G37*
D11*
X146370000Y5890000D03*
X154630000Y5890000D03*
X154990000Y11840000D03*
X146010000Y11840000D03*
D12*
X154100000Y4640000D03*
D13*
X146900000Y4640000D03*
G36*
G01*
X291050000Y-62150000D02*
X291050000Y-62700000D01*
G75*
G02*
X291000000Y-62750000I-50000J0D01*
G01*
X290450000Y-62750000D01*
G75*
G02*
X290400000Y-62700000I0J50000D01*
G01*
X290400000Y-62150000D01*
G75*
G02*
X290450000Y-62100000I50000J0D01*
G01*
X291000000Y-62100000D01*
G75*
G02*
X291050000Y-62150000I0J-50000D01*
G01*
G37*
G36*
G01*
X290100000Y-62150000D02*
X290100000Y-62700000D01*
G75*
G02*
X290050000Y-62750000I-50000J0D01*
G01*
X289500000Y-62750000D01*
G75*
G02*
X289450000Y-62700000I0J50000D01*
G01*
X289450000Y-62150000D01*
G75*
G02*
X289500000Y-62100000I50000J0D01*
G01*
X290050000Y-62100000D01*
G75*
G02*
X290100000Y-62150000I0J-50000D01*
G01*
G37*
G36*
G01*
X290100000Y-61200000D02*
X290100000Y-61750000D01*
G75*
G02*
X290050000Y-61800000I-50000J0D01*
G01*
X289500000Y-61800000D01*
G75*
G02*
X289450000Y-61750000I0J50000D01*
G01*
X289450000Y-61200000D01*
G75*
G02*
X289500000Y-61150000I50000J0D01*
G01*
X290050000Y-61150000D01*
G75*
G02*
X290100000Y-61200000I0J-50000D01*
G01*
G37*
G36*
G01*
X291050000Y-61200000D02*
X291050000Y-61750000D01*
G75*
G02*
X291000000Y-61800000I-50000J0D01*
G01*
X290450000Y-61800000D01*
G75*
G02*
X290400000Y-61750000I0J50000D01*
G01*
X290400000Y-61200000D01*
G75*
G02*
X290450000Y-61150000I50000J0D01*
G01*
X291000000Y-61150000D01*
G75*
G02*
X291050000Y-61200000I0J-50000D01*
G01*
G37*
G36*
G01*
X289450000Y-42750000D02*
X289450000Y-42200000D01*
G75*
G02*
X289500000Y-42150000I50000J0D01*
G01*
X290050000Y-42150000D01*
G75*
G02*
X290100000Y-42200000I0J-50000D01*
G01*
X290100000Y-42750000D01*
G75*
G02*
X290050000Y-42800000I-50000J0D01*
G01*
X289500000Y-42800000D01*
G75*
G02*
X289450000Y-42750000I0J50000D01*
G01*
G37*
G36*
G01*
X290400000Y-42750000D02*
X290400000Y-42200000D01*
G75*
G02*
X290450000Y-42150000I50000J0D01*
G01*
X291000000Y-42150000D01*
G75*
G02*
X291050000Y-42200000I0J-50000D01*
G01*
X291050000Y-42750000D01*
G75*
G02*
X291000000Y-42800000I-50000J0D01*
G01*
X290450000Y-42800000D01*
G75*
G02*
X290400000Y-42750000I0J50000D01*
G01*
G37*
G36*
G01*
X290400000Y-43700000D02*
X290400000Y-43150000D01*
G75*
G02*
X290450000Y-43100000I50000J0D01*
G01*
X291000000Y-43100000D01*
G75*
G02*
X291050000Y-43150000I0J-50000D01*
G01*
X291050000Y-43700000D01*
G75*
G02*
X291000000Y-43750000I-50000J0D01*
G01*
X290450000Y-43750000D01*
G75*
G02*
X290400000Y-43700000I0J50000D01*
G01*
G37*
G36*
G01*
X289450000Y-43700000D02*
X289450000Y-43150000D01*
G75*
G02*
X289500000Y-43100000I50000J0D01*
G01*
X290050000Y-43100000D01*
G75*
G02*
X290100000Y-43150000I0J-50000D01*
G01*
X290100000Y-43700000D01*
G75*
G02*
X290050000Y-43750000I-50000J0D01*
G01*
X289500000Y-43750000D01*
G75*
G02*
X289450000Y-43700000I0J50000D01*
G01*
G37*
G36*
G01*
X291050000Y-24150000D02*
X291050000Y-24700000D01*
G75*
G02*
X291000000Y-24750000I-50000J0D01*
G01*
X290450000Y-24750000D01*
G75*
G02*
X290400000Y-24700000I0J50000D01*
G01*
X290400000Y-24150000D01*
G75*
G02*
X290450000Y-24100000I50000J0D01*
G01*
X291000000Y-24100000D01*
G75*
G02*
X291050000Y-24150000I0J-50000D01*
G01*
G37*
G36*
G01*
X290100000Y-24150000D02*
X290100000Y-24700000D01*
G75*
G02*
X290050000Y-24750000I-50000J0D01*
G01*
X289500000Y-24750000D01*
G75*
G02*
X289450000Y-24700000I0J50000D01*
G01*
X289450000Y-24150000D01*
G75*
G02*
X289500000Y-24100000I50000J0D01*
G01*
X290050000Y-24100000D01*
G75*
G02*
X290100000Y-24150000I0J-50000D01*
G01*
G37*
G36*
G01*
X290100000Y-23200000D02*
X290100000Y-23750000D01*
G75*
G02*
X290050000Y-23800000I-50000J0D01*
G01*
X289500000Y-23800000D01*
G75*
G02*
X289450000Y-23750000I0J50000D01*
G01*
X289450000Y-23200000D01*
G75*
G02*
X289500000Y-23150000I50000J0D01*
G01*
X290050000Y-23150000D01*
G75*
G02*
X290100000Y-23200000I0J-50000D01*
G01*
G37*
G36*
G01*
X291050000Y-23200000D02*
X291050000Y-23750000D01*
G75*
G02*
X291000000Y-23800000I-50000J0D01*
G01*
X290450000Y-23800000D01*
G75*
G02*
X290400000Y-23750000I0J50000D01*
G01*
X290400000Y-23200000D01*
G75*
G02*
X290450000Y-23150000I50000J0D01*
G01*
X291000000Y-23150000D01*
G75*
G02*
X291050000Y-23200000I0J-50000D01*
G01*
G37*
G36*
G01*
X289450000Y-4750000D02*
X289450000Y-4200000D01*
G75*
G02*
X289500000Y-4150000I50000J0D01*
G01*
X290050000Y-4150000D01*
G75*
G02*
X290100000Y-4200000I0J-50000D01*
G01*
X290100000Y-4750000D01*
G75*
G02*
X290050000Y-4800000I-50000J0D01*
G01*
X289500000Y-4800000D01*
G75*
G02*
X289450000Y-4750000I0J50000D01*
G01*
G37*
G36*
G01*
X290400000Y-4750000D02*
X290400000Y-4200000D01*
G75*
G02*
X290450000Y-4150000I50000J0D01*
G01*
X291000000Y-4150000D01*
G75*
G02*
X291050000Y-4200000I0J-50000D01*
G01*
X291050000Y-4750000D01*
G75*
G02*
X291000000Y-4800000I-50000J0D01*
G01*
X290450000Y-4800000D01*
G75*
G02*
X290400000Y-4750000I0J50000D01*
G01*
G37*
G36*
G01*
X290400000Y-5700000D02*
X290400000Y-5150000D01*
G75*
G02*
X290450000Y-5100000I50000J0D01*
G01*
X291000000Y-5100000D01*
G75*
G02*
X291050000Y-5150000I0J-50000D01*
G01*
X291050000Y-5700000D01*
G75*
G02*
X291000000Y-5750000I-50000J0D01*
G01*
X290450000Y-5750000D01*
G75*
G02*
X290400000Y-5700000I0J50000D01*
G01*
G37*
G36*
G01*
X289450000Y-5700000D02*
X289450000Y-5150000D01*
G75*
G02*
X289500000Y-5100000I50000J0D01*
G01*
X290050000Y-5100000D01*
G75*
G02*
X290100000Y-5150000I0J-50000D01*
G01*
X290100000Y-5700000D01*
G75*
G02*
X290050000Y-5750000I-50000J0D01*
G01*
X289500000Y-5750000D01*
G75*
G02*
X289450000Y-5700000I0J50000D01*
G01*
G37*
G36*
G01*
X265700000Y-42750000D02*
X265700000Y-42200000D01*
G75*
G02*
X265750000Y-42150000I50000J0D01*
G01*
X266300000Y-42150000D01*
G75*
G02*
X266350000Y-42200000I0J-50000D01*
G01*
X266350000Y-42750000D01*
G75*
G02*
X266300000Y-42800000I-50000J0D01*
G01*
X265750000Y-42800000D01*
G75*
G02*
X265700000Y-42750000I0J50000D01*
G01*
G37*
G36*
G01*
X266650000Y-42750000D02*
X266650000Y-42200000D01*
G75*
G02*
X266700000Y-42150000I50000J0D01*
G01*
X267250000Y-42150000D01*
G75*
G02*
X267300000Y-42200000I0J-50000D01*
G01*
X267300000Y-42750000D01*
G75*
G02*
X267250000Y-42800000I-50000J0D01*
G01*
X266700000Y-42800000D01*
G75*
G02*
X266650000Y-42750000I0J50000D01*
G01*
G37*
G36*
G01*
X266650000Y-43700000D02*
X266650000Y-43150000D01*
G75*
G02*
X266700000Y-43100000I50000J0D01*
G01*
X267250000Y-43100000D01*
G75*
G02*
X267300000Y-43150000I0J-50000D01*
G01*
X267300000Y-43700000D01*
G75*
G02*
X267250000Y-43750000I-50000J0D01*
G01*
X266700000Y-43750000D01*
G75*
G02*
X266650000Y-43700000I0J50000D01*
G01*
G37*
G36*
G01*
X265700000Y-43700000D02*
X265700000Y-43150000D01*
G75*
G02*
X265750000Y-43100000I50000J0D01*
G01*
X266300000Y-43100000D01*
G75*
G02*
X266350000Y-43150000I0J-50000D01*
G01*
X266350000Y-43700000D01*
G75*
G02*
X266300000Y-43750000I-50000J0D01*
G01*
X265750000Y-43750000D01*
G75*
G02*
X265700000Y-43700000I0J50000D01*
G01*
G37*
G36*
G01*
X262550000Y-24150000D02*
X262550000Y-24700000D01*
G75*
G02*
X262500000Y-24750000I-50000J0D01*
G01*
X261950000Y-24750000D01*
G75*
G02*
X261900000Y-24700000I0J50000D01*
G01*
X261900000Y-24150000D01*
G75*
G02*
X261950000Y-24100000I50000J0D01*
G01*
X262500000Y-24100000D01*
G75*
G02*
X262550000Y-24150000I0J-50000D01*
G01*
G37*
G36*
G01*
X261600000Y-24150000D02*
X261600000Y-24700000D01*
G75*
G02*
X261550000Y-24750000I-50000J0D01*
G01*
X261000000Y-24750000D01*
G75*
G02*
X260950000Y-24700000I0J50000D01*
G01*
X260950000Y-24150000D01*
G75*
G02*
X261000000Y-24100000I50000J0D01*
G01*
X261550000Y-24100000D01*
G75*
G02*
X261600000Y-24150000I0J-50000D01*
G01*
G37*
G36*
G01*
X261600000Y-23200000D02*
X261600000Y-23750000D01*
G75*
G02*
X261550000Y-23800000I-50000J0D01*
G01*
X261000000Y-23800000D01*
G75*
G02*
X260950000Y-23750000I0J50000D01*
G01*
X260950000Y-23200000D01*
G75*
G02*
X261000000Y-23150000I50000J0D01*
G01*
X261550000Y-23150000D01*
G75*
G02*
X261600000Y-23200000I0J-50000D01*
G01*
G37*
G36*
G01*
X262550000Y-23200000D02*
X262550000Y-23750000D01*
G75*
G02*
X262500000Y-23800000I-50000J0D01*
G01*
X261950000Y-23800000D01*
G75*
G02*
X261900000Y-23750000I0J50000D01*
G01*
X261900000Y-23200000D01*
G75*
G02*
X261950000Y-23150000I50000J0D01*
G01*
X262500000Y-23150000D01*
G75*
G02*
X262550000Y-23200000I0J-50000D01*
G01*
G37*
G36*
G01*
X260950000Y-4750000D02*
X260950000Y-4200000D01*
G75*
G02*
X261000000Y-4150000I50000J0D01*
G01*
X261550000Y-4150000D01*
G75*
G02*
X261600000Y-4200000I0J-50000D01*
G01*
X261600000Y-4750000D01*
G75*
G02*
X261550000Y-4800000I-50000J0D01*
G01*
X261000000Y-4800000D01*
G75*
G02*
X260950000Y-4750000I0J50000D01*
G01*
G37*
G36*
G01*
X261900000Y-4750000D02*
X261900000Y-4200000D01*
G75*
G02*
X261950000Y-4150000I50000J0D01*
G01*
X262500000Y-4150000D01*
G75*
G02*
X262550000Y-4200000I0J-50000D01*
G01*
X262550000Y-4750000D01*
G75*
G02*
X262500000Y-4800000I-50000J0D01*
G01*
X261950000Y-4800000D01*
G75*
G02*
X261900000Y-4750000I0J50000D01*
G01*
G37*
G36*
G01*
X261900000Y-5700000D02*
X261900000Y-5150000D01*
G75*
G02*
X261950000Y-5100000I50000J0D01*
G01*
X262500000Y-5100000D01*
G75*
G02*
X262550000Y-5150000I0J-50000D01*
G01*
X262550000Y-5700000D01*
G75*
G02*
X262500000Y-5750000I-50000J0D01*
G01*
X261950000Y-5750000D01*
G75*
G02*
X261900000Y-5700000I0J50000D01*
G01*
G37*
G36*
G01*
X260950000Y-5700000D02*
X260950000Y-5150000D01*
G75*
G02*
X261000000Y-5100000I50000J0D01*
G01*
X261550000Y-5100000D01*
G75*
G02*
X261600000Y-5150000I0J-50000D01*
G01*
X261600000Y-5700000D01*
G75*
G02*
X261550000Y-5750000I-50000J0D01*
G01*
X261000000Y-5750000D01*
G75*
G02*
X260950000Y-5700000I0J50000D01*
G01*
G37*
G36*
G01*
X289450000Y-99750000D02*
X289450000Y-99200000D01*
G75*
G02*
X289500000Y-99150000I50000J0D01*
G01*
X290050000Y-99150000D01*
G75*
G02*
X290100000Y-99200000I0J-50000D01*
G01*
X290100000Y-99750000D01*
G75*
G02*
X290050000Y-99800000I-50000J0D01*
G01*
X289500000Y-99800000D01*
G75*
G02*
X289450000Y-99750000I0J50000D01*
G01*
G37*
G36*
G01*
X290400000Y-99750000D02*
X290400000Y-99200000D01*
G75*
G02*
X290450000Y-99150000I50000J0D01*
G01*
X291000000Y-99150000D01*
G75*
G02*
X291050000Y-99200000I0J-50000D01*
G01*
X291050000Y-99750000D01*
G75*
G02*
X291000000Y-99800000I-50000J0D01*
G01*
X290450000Y-99800000D01*
G75*
G02*
X290400000Y-99750000I0J50000D01*
G01*
G37*
G36*
G01*
X290400000Y-100700000D02*
X290400000Y-100150000D01*
G75*
G02*
X290450000Y-100100000I50000J0D01*
G01*
X291000000Y-100100000D01*
G75*
G02*
X291050000Y-100150000I0J-50000D01*
G01*
X291050000Y-100700000D01*
G75*
G02*
X291000000Y-100750000I-50000J0D01*
G01*
X290450000Y-100750000D01*
G75*
G02*
X290400000Y-100700000I0J50000D01*
G01*
G37*
G36*
G01*
X289450000Y-100700000D02*
X289450000Y-100150000D01*
G75*
G02*
X289500000Y-100100000I50000J0D01*
G01*
X290050000Y-100100000D01*
G75*
G02*
X290100000Y-100150000I0J-50000D01*
G01*
X290100000Y-100700000D01*
G75*
G02*
X290050000Y-100750000I-50000J0D01*
G01*
X289500000Y-100750000D01*
G75*
G02*
X289450000Y-100700000I0J50000D01*
G01*
G37*
G36*
G01*
X257800000Y-62150000D02*
X257800000Y-62700000D01*
G75*
G02*
X257750000Y-62750000I-50000J0D01*
G01*
X257200000Y-62750000D01*
G75*
G02*
X257150000Y-62700000I0J50000D01*
G01*
X257150000Y-62150000D01*
G75*
G02*
X257200000Y-62100000I50000J0D01*
G01*
X257750000Y-62100000D01*
G75*
G02*
X257800000Y-62150000I0J-50000D01*
G01*
G37*
G36*
G01*
X256850000Y-62150000D02*
X256850000Y-62700000D01*
G75*
G02*
X256800000Y-62750000I-50000J0D01*
G01*
X256250000Y-62750000D01*
G75*
G02*
X256200000Y-62700000I0J50000D01*
G01*
X256200000Y-62150000D01*
G75*
G02*
X256250000Y-62100000I50000J0D01*
G01*
X256800000Y-62100000D01*
G75*
G02*
X256850000Y-62150000I0J-50000D01*
G01*
G37*
G36*
G01*
X256850000Y-61200000D02*
X256850000Y-61750000D01*
G75*
G02*
X256800000Y-61800000I-50000J0D01*
G01*
X256250000Y-61800000D01*
G75*
G02*
X256200000Y-61750000I0J50000D01*
G01*
X256200000Y-61200000D01*
G75*
G02*
X256250000Y-61150000I50000J0D01*
G01*
X256800000Y-61150000D01*
G75*
G02*
X256850000Y-61200000I0J-50000D01*
G01*
G37*
G36*
G01*
X257800000Y-61200000D02*
X257800000Y-61750000D01*
G75*
G02*
X257750000Y-61800000I-50000J0D01*
G01*
X257200000Y-61800000D01*
G75*
G02*
X257150000Y-61750000I0J50000D01*
G01*
X257150000Y-61200000D01*
G75*
G02*
X257200000Y-61150000I50000J0D01*
G01*
X257750000Y-61150000D01*
G75*
G02*
X257800000Y-61200000I0J-50000D01*
G01*
G37*
G36*
G01*
X246700000Y-42750000D02*
X246700000Y-42200000D01*
G75*
G02*
X246750000Y-42150000I50000J0D01*
G01*
X247300000Y-42150000D01*
G75*
G02*
X247350000Y-42200000I0J-50000D01*
G01*
X247350000Y-42750000D01*
G75*
G02*
X247300000Y-42800000I-50000J0D01*
G01*
X246750000Y-42800000D01*
G75*
G02*
X246700000Y-42750000I0J50000D01*
G01*
G37*
G36*
G01*
X247650000Y-42750000D02*
X247650000Y-42200000D01*
G75*
G02*
X247700000Y-42150000I50000J0D01*
G01*
X248250000Y-42150000D01*
G75*
G02*
X248300000Y-42200000I0J-50000D01*
G01*
X248300000Y-42750000D01*
G75*
G02*
X248250000Y-42800000I-50000J0D01*
G01*
X247700000Y-42800000D01*
G75*
G02*
X247650000Y-42750000I0J50000D01*
G01*
G37*
G36*
G01*
X247650000Y-43700000D02*
X247650000Y-43150000D01*
G75*
G02*
X247700000Y-43100000I50000J0D01*
G01*
X248250000Y-43100000D01*
G75*
G02*
X248300000Y-43150000I0J-50000D01*
G01*
X248300000Y-43700000D01*
G75*
G02*
X248250000Y-43750000I-50000J0D01*
G01*
X247700000Y-43750000D01*
G75*
G02*
X247650000Y-43700000I0J50000D01*
G01*
G37*
G36*
G01*
X246700000Y-43700000D02*
X246700000Y-43150000D01*
G75*
G02*
X246750000Y-43100000I50000J0D01*
G01*
X247300000Y-43100000D01*
G75*
G02*
X247350000Y-43150000I0J-50000D01*
G01*
X247350000Y-43700000D01*
G75*
G02*
X247300000Y-43750000I-50000J0D01*
G01*
X246750000Y-43750000D01*
G75*
G02*
X246700000Y-43700000I0J50000D01*
G01*
G37*
G36*
G01*
X238800000Y-24150000D02*
X238800000Y-24700000D01*
G75*
G02*
X238750000Y-24750000I-50000J0D01*
G01*
X238200000Y-24750000D01*
G75*
G02*
X238150000Y-24700000I0J50000D01*
G01*
X238150000Y-24150000D01*
G75*
G02*
X238200000Y-24100000I50000J0D01*
G01*
X238750000Y-24100000D01*
G75*
G02*
X238800000Y-24150000I0J-50000D01*
G01*
G37*
G36*
G01*
X237850000Y-24150000D02*
X237850000Y-24700000D01*
G75*
G02*
X237800000Y-24750000I-50000J0D01*
G01*
X237250000Y-24750000D01*
G75*
G02*
X237200000Y-24700000I0J50000D01*
G01*
X237200000Y-24150000D01*
G75*
G02*
X237250000Y-24100000I50000J0D01*
G01*
X237800000Y-24100000D01*
G75*
G02*
X237850000Y-24150000I0J-50000D01*
G01*
G37*
G36*
G01*
X237850000Y-23200000D02*
X237850000Y-23750000D01*
G75*
G02*
X237800000Y-23800000I-50000J0D01*
G01*
X237250000Y-23800000D01*
G75*
G02*
X237200000Y-23750000I0J50000D01*
G01*
X237200000Y-23200000D01*
G75*
G02*
X237250000Y-23150000I50000J0D01*
G01*
X237800000Y-23150000D01*
G75*
G02*
X237850000Y-23200000I0J-50000D01*
G01*
G37*
G36*
G01*
X238800000Y-23200000D02*
X238800000Y-23750000D01*
G75*
G02*
X238750000Y-23800000I-50000J0D01*
G01*
X238200000Y-23800000D01*
G75*
G02*
X238150000Y-23750000I0J50000D01*
G01*
X238150000Y-23200000D01*
G75*
G02*
X238200000Y-23150000I50000J0D01*
G01*
X238750000Y-23150000D01*
G75*
G02*
X238800000Y-23200000I0J-50000D01*
G01*
G37*
G36*
G01*
X237200000Y-4750000D02*
X237200000Y-4200000D01*
G75*
G02*
X237250000Y-4150000I50000J0D01*
G01*
X237800000Y-4150000D01*
G75*
G02*
X237850000Y-4200000I0J-50000D01*
G01*
X237850000Y-4750000D01*
G75*
G02*
X237800000Y-4800000I-50000J0D01*
G01*
X237250000Y-4800000D01*
G75*
G02*
X237200000Y-4750000I0J50000D01*
G01*
G37*
G36*
G01*
X238150000Y-4750000D02*
X238150000Y-4200000D01*
G75*
G02*
X238200000Y-4150000I50000J0D01*
G01*
X238750000Y-4150000D01*
G75*
G02*
X238800000Y-4200000I0J-50000D01*
G01*
X238800000Y-4750000D01*
G75*
G02*
X238750000Y-4800000I-50000J0D01*
G01*
X238200000Y-4800000D01*
G75*
G02*
X238150000Y-4750000I0J50000D01*
G01*
G37*
G36*
G01*
X238150000Y-5700000D02*
X238150000Y-5150000D01*
G75*
G02*
X238200000Y-5100000I50000J0D01*
G01*
X238750000Y-5100000D01*
G75*
G02*
X238800000Y-5150000I0J-50000D01*
G01*
X238800000Y-5700000D01*
G75*
G02*
X238750000Y-5750000I-50000J0D01*
G01*
X238200000Y-5750000D01*
G75*
G02*
X238150000Y-5700000I0J50000D01*
G01*
G37*
G36*
G01*
X237200000Y-5700000D02*
X237200000Y-5150000D01*
G75*
G02*
X237250000Y-5100000I50000J0D01*
G01*
X237800000Y-5100000D01*
G75*
G02*
X237850000Y-5150000I0J-50000D01*
G01*
X237850000Y-5700000D01*
G75*
G02*
X237800000Y-5750000I-50000J0D01*
G01*
X237250000Y-5750000D01*
G75*
G02*
X237200000Y-5700000I0J50000D01*
G01*
G37*
G36*
G01*
X270450000Y-99750000D02*
X270450000Y-99200000D01*
G75*
G02*
X270500000Y-99150000I50000J0D01*
G01*
X271050000Y-99150000D01*
G75*
G02*
X271100000Y-99200000I0J-50000D01*
G01*
X271100000Y-99750000D01*
G75*
G02*
X271050000Y-99800000I-50000J0D01*
G01*
X270500000Y-99800000D01*
G75*
G02*
X270450000Y-99750000I0J50000D01*
G01*
G37*
G36*
G01*
X271400000Y-99750000D02*
X271400000Y-99200000D01*
G75*
G02*
X271450000Y-99150000I50000J0D01*
G01*
X272000000Y-99150000D01*
G75*
G02*
X272050000Y-99200000I0J-50000D01*
G01*
X272050000Y-99750000D01*
G75*
G02*
X272000000Y-99800000I-50000J0D01*
G01*
X271450000Y-99800000D01*
G75*
G02*
X271400000Y-99750000I0J50000D01*
G01*
G37*
G36*
G01*
X271400000Y-100700000D02*
X271400000Y-100150000D01*
G75*
G02*
X271450000Y-100100000I50000J0D01*
G01*
X272000000Y-100100000D01*
G75*
G02*
X272050000Y-100150000I0J-50000D01*
G01*
X272050000Y-100700000D01*
G75*
G02*
X272000000Y-100750000I-50000J0D01*
G01*
X271450000Y-100750000D01*
G75*
G02*
X271400000Y-100700000I0J50000D01*
G01*
G37*
G36*
G01*
X270450000Y-100700000D02*
X270450000Y-100150000D01*
G75*
G02*
X270500000Y-100100000I50000J0D01*
G01*
X271050000Y-100100000D01*
G75*
G02*
X271100000Y-100150000I0J-50000D01*
G01*
X271100000Y-100700000D01*
G75*
G02*
X271050000Y-100750000I-50000J0D01*
G01*
X270500000Y-100750000D01*
G75*
G02*
X270450000Y-100700000I0J50000D01*
G01*
G37*
G36*
G01*
X248300000Y-81150000D02*
X248300000Y-81700000D01*
G75*
G02*
X248250000Y-81750000I-50000J0D01*
G01*
X247700000Y-81750000D01*
G75*
G02*
X247650000Y-81700000I0J50000D01*
G01*
X247650000Y-81150000D01*
G75*
G02*
X247700000Y-81100000I50000J0D01*
G01*
X248250000Y-81100000D01*
G75*
G02*
X248300000Y-81150000I0J-50000D01*
G01*
G37*
G36*
G01*
X247350000Y-81150000D02*
X247350000Y-81700000D01*
G75*
G02*
X247300000Y-81750000I-50000J0D01*
G01*
X246750000Y-81750000D01*
G75*
G02*
X246700000Y-81700000I0J50000D01*
G01*
X246700000Y-81150000D01*
G75*
G02*
X246750000Y-81100000I50000J0D01*
G01*
X247300000Y-81100000D01*
G75*
G02*
X247350000Y-81150000I0J-50000D01*
G01*
G37*
G36*
G01*
X247350000Y-80200000D02*
X247350000Y-80750000D01*
G75*
G02*
X247300000Y-80800000I-50000J0D01*
G01*
X246750000Y-80800000D01*
G75*
G02*
X246700000Y-80750000I0J50000D01*
G01*
X246700000Y-80200000D01*
G75*
G02*
X246750000Y-80150000I50000J0D01*
G01*
X247300000Y-80150000D01*
G75*
G02*
X247350000Y-80200000I0J-50000D01*
G01*
G37*
G36*
G01*
X248300000Y-80200000D02*
X248300000Y-80750000D01*
G75*
G02*
X248250000Y-80800000I-50000J0D01*
G01*
X247700000Y-80800000D01*
G75*
G02*
X247650000Y-80750000I0J50000D01*
G01*
X247650000Y-80200000D01*
G75*
G02*
X247700000Y-80150000I50000J0D01*
G01*
X248250000Y-80150000D01*
G75*
G02*
X248300000Y-80200000I0J-50000D01*
G01*
G37*
G36*
G01*
X234050000Y-62150000D02*
X234050000Y-62700000D01*
G75*
G02*
X234000000Y-62750000I-50000J0D01*
G01*
X233450000Y-62750000D01*
G75*
G02*
X233400000Y-62700000I0J50000D01*
G01*
X233400000Y-62150000D01*
G75*
G02*
X233450000Y-62100000I50000J0D01*
G01*
X234000000Y-62100000D01*
G75*
G02*
X234050000Y-62150000I0J-50000D01*
G01*
G37*
G36*
G01*
X233100000Y-62150000D02*
X233100000Y-62700000D01*
G75*
G02*
X233050000Y-62750000I-50000J0D01*
G01*
X232500000Y-62750000D01*
G75*
G02*
X232450000Y-62700000I0J50000D01*
G01*
X232450000Y-62150000D01*
G75*
G02*
X232500000Y-62100000I50000J0D01*
G01*
X233050000Y-62100000D01*
G75*
G02*
X233100000Y-62150000I0J-50000D01*
G01*
G37*
G36*
G01*
X233100000Y-61200000D02*
X233100000Y-61750000D01*
G75*
G02*
X233050000Y-61800000I-50000J0D01*
G01*
X232500000Y-61800000D01*
G75*
G02*
X232450000Y-61750000I0J50000D01*
G01*
X232450000Y-61200000D01*
G75*
G02*
X232500000Y-61150000I50000J0D01*
G01*
X233050000Y-61150000D01*
G75*
G02*
X233100000Y-61200000I0J-50000D01*
G01*
G37*
G36*
G01*
X234050000Y-61200000D02*
X234050000Y-61750000D01*
G75*
G02*
X234000000Y-61800000I-50000J0D01*
G01*
X233450000Y-61800000D01*
G75*
G02*
X233400000Y-61750000I0J50000D01*
G01*
X233400000Y-61200000D01*
G75*
G02*
X233450000Y-61150000I50000J0D01*
G01*
X234000000Y-61150000D01*
G75*
G02*
X234050000Y-61200000I0J-50000D01*
G01*
G37*
G36*
G01*
X227700000Y-42750000D02*
X227700000Y-42200000D01*
G75*
G02*
X227750000Y-42150000I50000J0D01*
G01*
X228300000Y-42150000D01*
G75*
G02*
X228350000Y-42200000I0J-50000D01*
G01*
X228350000Y-42750000D01*
G75*
G02*
X228300000Y-42800000I-50000J0D01*
G01*
X227750000Y-42800000D01*
G75*
G02*
X227700000Y-42750000I0J50000D01*
G01*
G37*
G36*
G01*
X228650000Y-42750000D02*
X228650000Y-42200000D01*
G75*
G02*
X228700000Y-42150000I50000J0D01*
G01*
X229250000Y-42150000D01*
G75*
G02*
X229300000Y-42200000I0J-50000D01*
G01*
X229300000Y-42750000D01*
G75*
G02*
X229250000Y-42800000I-50000J0D01*
G01*
X228700000Y-42800000D01*
G75*
G02*
X228650000Y-42750000I0J50000D01*
G01*
G37*
G36*
G01*
X228650000Y-43700000D02*
X228650000Y-43150000D01*
G75*
G02*
X228700000Y-43100000I50000J0D01*
G01*
X229250000Y-43100000D01*
G75*
G02*
X229300000Y-43150000I0J-50000D01*
G01*
X229300000Y-43700000D01*
G75*
G02*
X229250000Y-43750000I-50000J0D01*
G01*
X228700000Y-43750000D01*
G75*
G02*
X228650000Y-43700000I0J50000D01*
G01*
G37*
G36*
G01*
X227700000Y-43700000D02*
X227700000Y-43150000D01*
G75*
G02*
X227750000Y-43100000I50000J0D01*
G01*
X228300000Y-43100000D01*
G75*
G02*
X228350000Y-43150000I0J-50000D01*
G01*
X228350000Y-43700000D01*
G75*
G02*
X228300000Y-43750000I-50000J0D01*
G01*
X227750000Y-43750000D01*
G75*
G02*
X227700000Y-43700000I0J50000D01*
G01*
G37*
G36*
G01*
X219800000Y-24150000D02*
X219800000Y-24700000D01*
G75*
G02*
X219750000Y-24750000I-50000J0D01*
G01*
X219200000Y-24750000D01*
G75*
G02*
X219150000Y-24700000I0J50000D01*
G01*
X219150000Y-24150000D01*
G75*
G02*
X219200000Y-24100000I50000J0D01*
G01*
X219750000Y-24100000D01*
G75*
G02*
X219800000Y-24150000I0J-50000D01*
G01*
G37*
G36*
G01*
X218850000Y-24150000D02*
X218850000Y-24700000D01*
G75*
G02*
X218800000Y-24750000I-50000J0D01*
G01*
X218250000Y-24750000D01*
G75*
G02*
X218200000Y-24700000I0J50000D01*
G01*
X218200000Y-24150000D01*
G75*
G02*
X218250000Y-24100000I50000J0D01*
G01*
X218800000Y-24100000D01*
G75*
G02*
X218850000Y-24150000I0J-50000D01*
G01*
G37*
G36*
G01*
X218850000Y-23200000D02*
X218850000Y-23750000D01*
G75*
G02*
X218800000Y-23800000I-50000J0D01*
G01*
X218250000Y-23800000D01*
G75*
G02*
X218200000Y-23750000I0J50000D01*
G01*
X218200000Y-23200000D01*
G75*
G02*
X218250000Y-23150000I50000J0D01*
G01*
X218800000Y-23150000D01*
G75*
G02*
X218850000Y-23200000I0J-50000D01*
G01*
G37*
G36*
G01*
X219800000Y-23200000D02*
X219800000Y-23750000D01*
G75*
G02*
X219750000Y-23800000I-50000J0D01*
G01*
X219200000Y-23800000D01*
G75*
G02*
X219150000Y-23750000I0J50000D01*
G01*
X219150000Y-23200000D01*
G75*
G02*
X219200000Y-23150000I50000J0D01*
G01*
X219750000Y-23150000D01*
G75*
G02*
X219800000Y-23200000I0J-50000D01*
G01*
G37*
G36*
G01*
X218200000Y-4750000D02*
X218200000Y-4200000D01*
G75*
G02*
X218250000Y-4150000I50000J0D01*
G01*
X218800000Y-4150000D01*
G75*
G02*
X218850000Y-4200000I0J-50000D01*
G01*
X218850000Y-4750000D01*
G75*
G02*
X218800000Y-4800000I-50000J0D01*
G01*
X218250000Y-4800000D01*
G75*
G02*
X218200000Y-4750000I0J50000D01*
G01*
G37*
G36*
G01*
X219150000Y-4750000D02*
X219150000Y-4200000D01*
G75*
G02*
X219200000Y-4150000I50000J0D01*
G01*
X219750000Y-4150000D01*
G75*
G02*
X219800000Y-4200000I0J-50000D01*
G01*
X219800000Y-4750000D01*
G75*
G02*
X219750000Y-4800000I-50000J0D01*
G01*
X219200000Y-4800000D01*
G75*
G02*
X219150000Y-4750000I0J50000D01*
G01*
G37*
G36*
G01*
X219150000Y-5700000D02*
X219150000Y-5150000D01*
G75*
G02*
X219200000Y-5100000I50000J0D01*
G01*
X219750000Y-5100000D01*
G75*
G02*
X219800000Y-5150000I0J-50000D01*
G01*
X219800000Y-5700000D01*
G75*
G02*
X219750000Y-5750000I-50000J0D01*
G01*
X219200000Y-5750000D01*
G75*
G02*
X219150000Y-5700000I0J50000D01*
G01*
G37*
G36*
G01*
X218200000Y-5700000D02*
X218200000Y-5150000D01*
G75*
G02*
X218250000Y-5100000I50000J0D01*
G01*
X218800000Y-5100000D01*
G75*
G02*
X218850000Y-5150000I0J-50000D01*
G01*
X218850000Y-5700000D01*
G75*
G02*
X218800000Y-5750000I-50000J0D01*
G01*
X218250000Y-5750000D01*
G75*
G02*
X218200000Y-5700000I0J50000D01*
G01*
G37*
G36*
G01*
X251450000Y-99750000D02*
X251450000Y-99200000D01*
G75*
G02*
X251500000Y-99150000I50000J0D01*
G01*
X252050000Y-99150000D01*
G75*
G02*
X252100000Y-99200000I0J-50000D01*
G01*
X252100000Y-99750000D01*
G75*
G02*
X252050000Y-99800000I-50000J0D01*
G01*
X251500000Y-99800000D01*
G75*
G02*
X251450000Y-99750000I0J50000D01*
G01*
G37*
G36*
G01*
X252400000Y-99750000D02*
X252400000Y-99200000D01*
G75*
G02*
X252450000Y-99150000I50000J0D01*
G01*
X253000000Y-99150000D01*
G75*
G02*
X253050000Y-99200000I0J-50000D01*
G01*
X253050000Y-99750000D01*
G75*
G02*
X253000000Y-99800000I-50000J0D01*
G01*
X252450000Y-99800000D01*
G75*
G02*
X252400000Y-99750000I0J50000D01*
G01*
G37*
G36*
G01*
X252400000Y-100700000D02*
X252400000Y-100150000D01*
G75*
G02*
X252450000Y-100100000I50000J0D01*
G01*
X253000000Y-100100000D01*
G75*
G02*
X253050000Y-100150000I0J-50000D01*
G01*
X253050000Y-100700000D01*
G75*
G02*
X253000000Y-100750000I-50000J0D01*
G01*
X252450000Y-100750000D01*
G75*
G02*
X252400000Y-100700000I0J50000D01*
G01*
G37*
G36*
G01*
X251450000Y-100700000D02*
X251450000Y-100150000D01*
G75*
G02*
X251500000Y-100100000I50000J0D01*
G01*
X252050000Y-100100000D01*
G75*
G02*
X252100000Y-100150000I0J-50000D01*
G01*
X252100000Y-100700000D01*
G75*
G02*
X252050000Y-100750000I-50000J0D01*
G01*
X251500000Y-100750000D01*
G75*
G02*
X251450000Y-100700000I0J50000D01*
G01*
G37*
G36*
G01*
X224550000Y-81150000D02*
X224550000Y-81700000D01*
G75*
G02*
X224500000Y-81750000I-50000J0D01*
G01*
X223950000Y-81750000D01*
G75*
G02*
X223900000Y-81700000I0J50000D01*
G01*
X223900000Y-81150000D01*
G75*
G02*
X223950000Y-81100000I50000J0D01*
G01*
X224500000Y-81100000D01*
G75*
G02*
X224550000Y-81150000I0J-50000D01*
G01*
G37*
G36*
G01*
X223600000Y-81150000D02*
X223600000Y-81700000D01*
G75*
G02*
X223550000Y-81750000I-50000J0D01*
G01*
X223000000Y-81750000D01*
G75*
G02*
X222950000Y-81700000I0J50000D01*
G01*
X222950000Y-81150000D01*
G75*
G02*
X223000000Y-81100000I50000J0D01*
G01*
X223550000Y-81100000D01*
G75*
G02*
X223600000Y-81150000I0J-50000D01*
G01*
G37*
G36*
G01*
X223600000Y-80200000D02*
X223600000Y-80750000D01*
G75*
G02*
X223550000Y-80800000I-50000J0D01*
G01*
X223000000Y-80800000D01*
G75*
G02*
X222950000Y-80750000I0J50000D01*
G01*
X222950000Y-80200000D01*
G75*
G02*
X223000000Y-80150000I50000J0D01*
G01*
X223550000Y-80150000D01*
G75*
G02*
X223600000Y-80200000I0J-50000D01*
G01*
G37*
G36*
G01*
X224550000Y-80200000D02*
X224550000Y-80750000D01*
G75*
G02*
X224500000Y-80800000I-50000J0D01*
G01*
X223950000Y-80800000D01*
G75*
G02*
X223900000Y-80750000I0J50000D01*
G01*
X223900000Y-80200000D01*
G75*
G02*
X223950000Y-80150000I50000J0D01*
G01*
X224500000Y-80150000D01*
G75*
G02*
X224550000Y-80200000I0J-50000D01*
G01*
G37*
G36*
G01*
X215050000Y-62150000D02*
X215050000Y-62700000D01*
G75*
G02*
X215000000Y-62750000I-50000J0D01*
G01*
X214450000Y-62750000D01*
G75*
G02*
X214400000Y-62700000I0J50000D01*
G01*
X214400000Y-62150000D01*
G75*
G02*
X214450000Y-62100000I50000J0D01*
G01*
X215000000Y-62100000D01*
G75*
G02*
X215050000Y-62150000I0J-50000D01*
G01*
G37*
G36*
G01*
X214100000Y-62150000D02*
X214100000Y-62700000D01*
G75*
G02*
X214050000Y-62750000I-50000J0D01*
G01*
X213500000Y-62750000D01*
G75*
G02*
X213450000Y-62700000I0J50000D01*
G01*
X213450000Y-62150000D01*
G75*
G02*
X213500000Y-62100000I50000J0D01*
G01*
X214050000Y-62100000D01*
G75*
G02*
X214100000Y-62150000I0J-50000D01*
G01*
G37*
G36*
G01*
X214100000Y-61200000D02*
X214100000Y-61750000D01*
G75*
G02*
X214050000Y-61800000I-50000J0D01*
G01*
X213500000Y-61800000D01*
G75*
G02*
X213450000Y-61750000I0J50000D01*
G01*
X213450000Y-61200000D01*
G75*
G02*
X213500000Y-61150000I50000J0D01*
G01*
X214050000Y-61150000D01*
G75*
G02*
X214100000Y-61200000I0J-50000D01*
G01*
G37*
G36*
G01*
X215050000Y-61200000D02*
X215050000Y-61750000D01*
G75*
G02*
X215000000Y-61800000I-50000J0D01*
G01*
X214450000Y-61800000D01*
G75*
G02*
X214400000Y-61750000I0J50000D01*
G01*
X214400000Y-61200000D01*
G75*
G02*
X214450000Y-61150000I50000J0D01*
G01*
X215000000Y-61150000D01*
G75*
G02*
X215050000Y-61200000I0J-50000D01*
G01*
G37*
G36*
G01*
X208700000Y-42750000D02*
X208700000Y-42200000D01*
G75*
G02*
X208750000Y-42150000I50000J0D01*
G01*
X209300000Y-42150000D01*
G75*
G02*
X209350000Y-42200000I0J-50000D01*
G01*
X209350000Y-42750000D01*
G75*
G02*
X209300000Y-42800000I-50000J0D01*
G01*
X208750000Y-42800000D01*
G75*
G02*
X208700000Y-42750000I0J50000D01*
G01*
G37*
G36*
G01*
X209650000Y-42750000D02*
X209650000Y-42200000D01*
G75*
G02*
X209700000Y-42150000I50000J0D01*
G01*
X210250000Y-42150000D01*
G75*
G02*
X210300000Y-42200000I0J-50000D01*
G01*
X210300000Y-42750000D01*
G75*
G02*
X210250000Y-42800000I-50000J0D01*
G01*
X209700000Y-42800000D01*
G75*
G02*
X209650000Y-42750000I0J50000D01*
G01*
G37*
G36*
G01*
X209650000Y-43700000D02*
X209650000Y-43150000D01*
G75*
G02*
X209700000Y-43100000I50000J0D01*
G01*
X210250000Y-43100000D01*
G75*
G02*
X210300000Y-43150000I0J-50000D01*
G01*
X210300000Y-43700000D01*
G75*
G02*
X210250000Y-43750000I-50000J0D01*
G01*
X209700000Y-43750000D01*
G75*
G02*
X209650000Y-43700000I0J50000D01*
G01*
G37*
G36*
G01*
X208700000Y-43700000D02*
X208700000Y-43150000D01*
G75*
G02*
X208750000Y-43100000I50000J0D01*
G01*
X209300000Y-43100000D01*
G75*
G02*
X209350000Y-43150000I0J-50000D01*
G01*
X209350000Y-43700000D01*
G75*
G02*
X209300000Y-43750000I-50000J0D01*
G01*
X208750000Y-43750000D01*
G75*
G02*
X208700000Y-43700000I0J50000D01*
G01*
G37*
G36*
G01*
X200800000Y-24150000D02*
X200800000Y-24700000D01*
G75*
G02*
X200750000Y-24750000I-50000J0D01*
G01*
X200200000Y-24750000D01*
G75*
G02*
X200150000Y-24700000I0J50000D01*
G01*
X200150000Y-24150000D01*
G75*
G02*
X200200000Y-24100000I50000J0D01*
G01*
X200750000Y-24100000D01*
G75*
G02*
X200800000Y-24150000I0J-50000D01*
G01*
G37*
G36*
G01*
X199850000Y-24150000D02*
X199850000Y-24700000D01*
G75*
G02*
X199800000Y-24750000I-50000J0D01*
G01*
X199250000Y-24750000D01*
G75*
G02*
X199200000Y-24700000I0J50000D01*
G01*
X199200000Y-24150000D01*
G75*
G02*
X199250000Y-24100000I50000J0D01*
G01*
X199800000Y-24100000D01*
G75*
G02*
X199850000Y-24150000I0J-50000D01*
G01*
G37*
G36*
G01*
X199850000Y-23200000D02*
X199850000Y-23750000D01*
G75*
G02*
X199800000Y-23800000I-50000J0D01*
G01*
X199250000Y-23800000D01*
G75*
G02*
X199200000Y-23750000I0J50000D01*
G01*
X199200000Y-23200000D01*
G75*
G02*
X199250000Y-23150000I50000J0D01*
G01*
X199800000Y-23150000D01*
G75*
G02*
X199850000Y-23200000I0J-50000D01*
G01*
G37*
G36*
G01*
X200800000Y-23200000D02*
X200800000Y-23750000D01*
G75*
G02*
X200750000Y-23800000I-50000J0D01*
G01*
X200200000Y-23800000D01*
G75*
G02*
X200150000Y-23750000I0J50000D01*
G01*
X200150000Y-23200000D01*
G75*
G02*
X200200000Y-23150000I50000J0D01*
G01*
X200750000Y-23150000D01*
G75*
G02*
X200800000Y-23200000I0J-50000D01*
G01*
G37*
G36*
G01*
X199200000Y-4750000D02*
X199200000Y-4200000D01*
G75*
G02*
X199250000Y-4150000I50000J0D01*
G01*
X199800000Y-4150000D01*
G75*
G02*
X199850000Y-4200000I0J-50000D01*
G01*
X199850000Y-4750000D01*
G75*
G02*
X199800000Y-4800000I-50000J0D01*
G01*
X199250000Y-4800000D01*
G75*
G02*
X199200000Y-4750000I0J50000D01*
G01*
G37*
G36*
G01*
X200150000Y-4750000D02*
X200150000Y-4200000D01*
G75*
G02*
X200200000Y-4150000I50000J0D01*
G01*
X200750000Y-4150000D01*
G75*
G02*
X200800000Y-4200000I0J-50000D01*
G01*
X200800000Y-4750000D01*
G75*
G02*
X200750000Y-4800000I-50000J0D01*
G01*
X200200000Y-4800000D01*
G75*
G02*
X200150000Y-4750000I0J50000D01*
G01*
G37*
G36*
G01*
X200150000Y-5700000D02*
X200150000Y-5150000D01*
G75*
G02*
X200200000Y-5100000I50000J0D01*
G01*
X200750000Y-5100000D01*
G75*
G02*
X200800000Y-5150000I0J-50000D01*
G01*
X200800000Y-5700000D01*
G75*
G02*
X200750000Y-5750000I-50000J0D01*
G01*
X200200000Y-5750000D01*
G75*
G02*
X200150000Y-5700000I0J50000D01*
G01*
G37*
G36*
G01*
X199200000Y-5700000D02*
X199200000Y-5150000D01*
G75*
G02*
X199250000Y-5100000I50000J0D01*
G01*
X199800000Y-5100000D01*
G75*
G02*
X199850000Y-5150000I0J-50000D01*
G01*
X199850000Y-5700000D01*
G75*
G02*
X199800000Y-5750000I-50000J0D01*
G01*
X199250000Y-5750000D01*
G75*
G02*
X199200000Y-5700000I0J50000D01*
G01*
G37*
G36*
G01*
X218200000Y-99750000D02*
X218200000Y-99200000D01*
G75*
G02*
X218250000Y-99150000I50000J0D01*
G01*
X218800000Y-99150000D01*
G75*
G02*
X218850000Y-99200000I0J-50000D01*
G01*
X218850000Y-99750000D01*
G75*
G02*
X218800000Y-99800000I-50000J0D01*
G01*
X218250000Y-99800000D01*
G75*
G02*
X218200000Y-99750000I0J50000D01*
G01*
G37*
G36*
G01*
X219150000Y-99750000D02*
X219150000Y-99200000D01*
G75*
G02*
X219200000Y-99150000I50000J0D01*
G01*
X219750000Y-99150000D01*
G75*
G02*
X219800000Y-99200000I0J-50000D01*
G01*
X219800000Y-99750000D01*
G75*
G02*
X219750000Y-99800000I-50000J0D01*
G01*
X219200000Y-99800000D01*
G75*
G02*
X219150000Y-99750000I0J50000D01*
G01*
G37*
G36*
G01*
X219150000Y-100700000D02*
X219150000Y-100150000D01*
G75*
G02*
X219200000Y-100100000I50000J0D01*
G01*
X219750000Y-100100000D01*
G75*
G02*
X219800000Y-100150000I0J-50000D01*
G01*
X219800000Y-100700000D01*
G75*
G02*
X219750000Y-100750000I-50000J0D01*
G01*
X219200000Y-100750000D01*
G75*
G02*
X219150000Y-100700000I0J50000D01*
G01*
G37*
G36*
G01*
X218200000Y-100700000D02*
X218200000Y-100150000D01*
G75*
G02*
X218250000Y-100100000I50000J0D01*
G01*
X218800000Y-100100000D01*
G75*
G02*
X218850000Y-100150000I0J-50000D01*
G01*
X218850000Y-100700000D01*
G75*
G02*
X218800000Y-100750000I-50000J0D01*
G01*
X218250000Y-100750000D01*
G75*
G02*
X218200000Y-100700000I0J50000D01*
G01*
G37*
G36*
G01*
X205550000Y-81150000D02*
X205550000Y-81700000D01*
G75*
G02*
X205500000Y-81750000I-50000J0D01*
G01*
X204950000Y-81750000D01*
G75*
G02*
X204900000Y-81700000I0J50000D01*
G01*
X204900000Y-81150000D01*
G75*
G02*
X204950000Y-81100000I50000J0D01*
G01*
X205500000Y-81100000D01*
G75*
G02*
X205550000Y-81150000I0J-50000D01*
G01*
G37*
G36*
G01*
X204600000Y-81150000D02*
X204600000Y-81700000D01*
G75*
G02*
X204550000Y-81750000I-50000J0D01*
G01*
X204000000Y-81750000D01*
G75*
G02*
X203950000Y-81700000I0J50000D01*
G01*
X203950000Y-81150000D01*
G75*
G02*
X204000000Y-81100000I50000J0D01*
G01*
X204550000Y-81100000D01*
G75*
G02*
X204600000Y-81150000I0J-50000D01*
G01*
G37*
G36*
G01*
X204600000Y-80200000D02*
X204600000Y-80750000D01*
G75*
G02*
X204550000Y-80800000I-50000J0D01*
G01*
X204000000Y-80800000D01*
G75*
G02*
X203950000Y-80750000I0J50000D01*
G01*
X203950000Y-80200000D01*
G75*
G02*
X204000000Y-80150000I50000J0D01*
G01*
X204550000Y-80150000D01*
G75*
G02*
X204600000Y-80200000I0J-50000D01*
G01*
G37*
G36*
G01*
X205550000Y-80200000D02*
X205550000Y-80750000D01*
G75*
G02*
X205500000Y-80800000I-50000J0D01*
G01*
X204950000Y-80800000D01*
G75*
G02*
X204900000Y-80750000I0J50000D01*
G01*
X204900000Y-80200000D01*
G75*
G02*
X204950000Y-80150000I50000J0D01*
G01*
X205500000Y-80150000D01*
G75*
G02*
X205550000Y-80200000I0J-50000D01*
G01*
G37*
G36*
G01*
X196050000Y-62150000D02*
X196050000Y-62700000D01*
G75*
G02*
X196000000Y-62750000I-50000J0D01*
G01*
X195450000Y-62750000D01*
G75*
G02*
X195400000Y-62700000I0J50000D01*
G01*
X195400000Y-62150000D01*
G75*
G02*
X195450000Y-62100000I50000J0D01*
G01*
X196000000Y-62100000D01*
G75*
G02*
X196050000Y-62150000I0J-50000D01*
G01*
G37*
G36*
G01*
X195100000Y-62150000D02*
X195100000Y-62700000D01*
G75*
G02*
X195050000Y-62750000I-50000J0D01*
G01*
X194500000Y-62750000D01*
G75*
G02*
X194450000Y-62700000I0J50000D01*
G01*
X194450000Y-62150000D01*
G75*
G02*
X194500000Y-62100000I50000J0D01*
G01*
X195050000Y-62100000D01*
G75*
G02*
X195100000Y-62150000I0J-50000D01*
G01*
G37*
G36*
G01*
X195100000Y-61200000D02*
X195100000Y-61750000D01*
G75*
G02*
X195050000Y-61800000I-50000J0D01*
G01*
X194500000Y-61800000D01*
G75*
G02*
X194450000Y-61750000I0J50000D01*
G01*
X194450000Y-61200000D01*
G75*
G02*
X194500000Y-61150000I50000J0D01*
G01*
X195050000Y-61150000D01*
G75*
G02*
X195100000Y-61200000I0J-50000D01*
G01*
G37*
G36*
G01*
X196050000Y-61200000D02*
X196050000Y-61750000D01*
G75*
G02*
X196000000Y-61800000I-50000J0D01*
G01*
X195450000Y-61800000D01*
G75*
G02*
X195400000Y-61750000I0J50000D01*
G01*
X195400000Y-61200000D01*
G75*
G02*
X195450000Y-61150000I50000J0D01*
G01*
X196000000Y-61150000D01*
G75*
G02*
X196050000Y-61200000I0J-50000D01*
G01*
G37*
G36*
G01*
X189700000Y-42750000D02*
X189700000Y-42200000D01*
G75*
G02*
X189750000Y-42150000I50000J0D01*
G01*
X190300000Y-42150000D01*
G75*
G02*
X190350000Y-42200000I0J-50000D01*
G01*
X190350000Y-42750000D01*
G75*
G02*
X190300000Y-42800000I-50000J0D01*
G01*
X189750000Y-42800000D01*
G75*
G02*
X189700000Y-42750000I0J50000D01*
G01*
G37*
G36*
G01*
X190650000Y-42750000D02*
X190650000Y-42200000D01*
G75*
G02*
X190700000Y-42150000I50000J0D01*
G01*
X191250000Y-42150000D01*
G75*
G02*
X191300000Y-42200000I0J-50000D01*
G01*
X191300000Y-42750000D01*
G75*
G02*
X191250000Y-42800000I-50000J0D01*
G01*
X190700000Y-42800000D01*
G75*
G02*
X190650000Y-42750000I0J50000D01*
G01*
G37*
G36*
G01*
X190650000Y-43700000D02*
X190650000Y-43150000D01*
G75*
G02*
X190700000Y-43100000I50000J0D01*
G01*
X191250000Y-43100000D01*
G75*
G02*
X191300000Y-43150000I0J-50000D01*
G01*
X191300000Y-43700000D01*
G75*
G02*
X191250000Y-43750000I-50000J0D01*
G01*
X190700000Y-43750000D01*
G75*
G02*
X190650000Y-43700000I0J50000D01*
G01*
G37*
G36*
G01*
X189700000Y-43700000D02*
X189700000Y-43150000D01*
G75*
G02*
X189750000Y-43100000I50000J0D01*
G01*
X190300000Y-43100000D01*
G75*
G02*
X190350000Y-43150000I0J-50000D01*
G01*
X190350000Y-43700000D01*
G75*
G02*
X190300000Y-43750000I-50000J0D01*
G01*
X189750000Y-43750000D01*
G75*
G02*
X189700000Y-43700000I0J50000D01*
G01*
G37*
G36*
G01*
X181800000Y-24150000D02*
X181800000Y-24700000D01*
G75*
G02*
X181750000Y-24750000I-50000J0D01*
G01*
X181200000Y-24750000D01*
G75*
G02*
X181150000Y-24700000I0J50000D01*
G01*
X181150000Y-24150000D01*
G75*
G02*
X181200000Y-24100000I50000J0D01*
G01*
X181750000Y-24100000D01*
G75*
G02*
X181800000Y-24150000I0J-50000D01*
G01*
G37*
G36*
G01*
X180850000Y-24150000D02*
X180850000Y-24700000D01*
G75*
G02*
X180800000Y-24750000I-50000J0D01*
G01*
X180250000Y-24750000D01*
G75*
G02*
X180200000Y-24700000I0J50000D01*
G01*
X180200000Y-24150000D01*
G75*
G02*
X180250000Y-24100000I50000J0D01*
G01*
X180800000Y-24100000D01*
G75*
G02*
X180850000Y-24150000I0J-50000D01*
G01*
G37*
G36*
G01*
X180850000Y-23200000D02*
X180850000Y-23750000D01*
G75*
G02*
X180800000Y-23800000I-50000J0D01*
G01*
X180250000Y-23800000D01*
G75*
G02*
X180200000Y-23750000I0J50000D01*
G01*
X180200000Y-23200000D01*
G75*
G02*
X180250000Y-23150000I50000J0D01*
G01*
X180800000Y-23150000D01*
G75*
G02*
X180850000Y-23200000I0J-50000D01*
G01*
G37*
G36*
G01*
X181800000Y-23200000D02*
X181800000Y-23750000D01*
G75*
G02*
X181750000Y-23800000I-50000J0D01*
G01*
X181200000Y-23800000D01*
G75*
G02*
X181150000Y-23750000I0J50000D01*
G01*
X181150000Y-23200000D01*
G75*
G02*
X181200000Y-23150000I50000J0D01*
G01*
X181750000Y-23150000D01*
G75*
G02*
X181800000Y-23200000I0J-50000D01*
G01*
G37*
G36*
G01*
X180200000Y-4750000D02*
X180200000Y-4200000D01*
G75*
G02*
X180250000Y-4150000I50000J0D01*
G01*
X180800000Y-4150000D01*
G75*
G02*
X180850000Y-4200000I0J-50000D01*
G01*
X180850000Y-4750000D01*
G75*
G02*
X180800000Y-4800000I-50000J0D01*
G01*
X180250000Y-4800000D01*
G75*
G02*
X180200000Y-4750000I0J50000D01*
G01*
G37*
G36*
G01*
X181150000Y-4750000D02*
X181150000Y-4200000D01*
G75*
G02*
X181200000Y-4150000I50000J0D01*
G01*
X181750000Y-4150000D01*
G75*
G02*
X181800000Y-4200000I0J-50000D01*
G01*
X181800000Y-4750000D01*
G75*
G02*
X181750000Y-4800000I-50000J0D01*
G01*
X181200000Y-4800000D01*
G75*
G02*
X181150000Y-4750000I0J50000D01*
G01*
G37*
G36*
G01*
X181150000Y-5700000D02*
X181150000Y-5150000D01*
G75*
G02*
X181200000Y-5100000I50000J0D01*
G01*
X181750000Y-5100000D01*
G75*
G02*
X181800000Y-5150000I0J-50000D01*
G01*
X181800000Y-5700000D01*
G75*
G02*
X181750000Y-5750000I-50000J0D01*
G01*
X181200000Y-5750000D01*
G75*
G02*
X181150000Y-5700000I0J50000D01*
G01*
G37*
G36*
G01*
X180200000Y-5700000D02*
X180200000Y-5150000D01*
G75*
G02*
X180250000Y-5100000I50000J0D01*
G01*
X180800000Y-5100000D01*
G75*
G02*
X180850000Y-5150000I0J-50000D01*
G01*
X180850000Y-5700000D01*
G75*
G02*
X180800000Y-5750000I-50000J0D01*
G01*
X180250000Y-5750000D01*
G75*
G02*
X180200000Y-5700000I0J50000D01*
G01*
G37*
G36*
G01*
X194450000Y-99750000D02*
X194450000Y-99200000D01*
G75*
G02*
X194500000Y-99150000I50000J0D01*
G01*
X195050000Y-99150000D01*
G75*
G02*
X195100000Y-99200000I0J-50000D01*
G01*
X195100000Y-99750000D01*
G75*
G02*
X195050000Y-99800000I-50000J0D01*
G01*
X194500000Y-99800000D01*
G75*
G02*
X194450000Y-99750000I0J50000D01*
G01*
G37*
G36*
G01*
X195400000Y-99750000D02*
X195400000Y-99200000D01*
G75*
G02*
X195450000Y-99150000I50000J0D01*
G01*
X196000000Y-99150000D01*
G75*
G02*
X196050000Y-99200000I0J-50000D01*
G01*
X196050000Y-99750000D01*
G75*
G02*
X196000000Y-99800000I-50000J0D01*
G01*
X195450000Y-99800000D01*
G75*
G02*
X195400000Y-99750000I0J50000D01*
G01*
G37*
G36*
G01*
X195400000Y-100700000D02*
X195400000Y-100150000D01*
G75*
G02*
X195450000Y-100100000I50000J0D01*
G01*
X196000000Y-100100000D01*
G75*
G02*
X196050000Y-100150000I0J-50000D01*
G01*
X196050000Y-100700000D01*
G75*
G02*
X196000000Y-100750000I-50000J0D01*
G01*
X195450000Y-100750000D01*
G75*
G02*
X195400000Y-100700000I0J50000D01*
G01*
G37*
G36*
G01*
X194450000Y-100700000D02*
X194450000Y-100150000D01*
G75*
G02*
X194500000Y-100100000I50000J0D01*
G01*
X195050000Y-100100000D01*
G75*
G02*
X195100000Y-100150000I0J-50000D01*
G01*
X195100000Y-100700000D01*
G75*
G02*
X195050000Y-100750000I-50000J0D01*
G01*
X194500000Y-100750000D01*
G75*
G02*
X194450000Y-100700000I0J50000D01*
G01*
G37*
G36*
G01*
X186550000Y-81150000D02*
X186550000Y-81700000D01*
G75*
G02*
X186500000Y-81750000I-50000J0D01*
G01*
X185950000Y-81750000D01*
G75*
G02*
X185900000Y-81700000I0J50000D01*
G01*
X185900000Y-81150000D01*
G75*
G02*
X185950000Y-81100000I50000J0D01*
G01*
X186500000Y-81100000D01*
G75*
G02*
X186550000Y-81150000I0J-50000D01*
G01*
G37*
G36*
G01*
X185600000Y-81150000D02*
X185600000Y-81700000D01*
G75*
G02*
X185550000Y-81750000I-50000J0D01*
G01*
X185000000Y-81750000D01*
G75*
G02*
X184950000Y-81700000I0J50000D01*
G01*
X184950000Y-81150000D01*
G75*
G02*
X185000000Y-81100000I50000J0D01*
G01*
X185550000Y-81100000D01*
G75*
G02*
X185600000Y-81150000I0J-50000D01*
G01*
G37*
G36*
G01*
X185600000Y-80200000D02*
X185600000Y-80750000D01*
G75*
G02*
X185550000Y-80800000I-50000J0D01*
G01*
X185000000Y-80800000D01*
G75*
G02*
X184950000Y-80750000I0J50000D01*
G01*
X184950000Y-80200000D01*
G75*
G02*
X185000000Y-80150000I50000J0D01*
G01*
X185550000Y-80150000D01*
G75*
G02*
X185600000Y-80200000I0J-50000D01*
G01*
G37*
G36*
G01*
X186550000Y-80200000D02*
X186550000Y-80750000D01*
G75*
G02*
X186500000Y-80800000I-50000J0D01*
G01*
X185950000Y-80800000D01*
G75*
G02*
X185900000Y-80750000I0J50000D01*
G01*
X185900000Y-80200000D01*
G75*
G02*
X185950000Y-80150000I50000J0D01*
G01*
X186500000Y-80150000D01*
G75*
G02*
X186550000Y-80200000I0J-50000D01*
G01*
G37*
G36*
G01*
X177050000Y-62150000D02*
X177050000Y-62700000D01*
G75*
G02*
X177000000Y-62750000I-50000J0D01*
G01*
X176450000Y-62750000D01*
G75*
G02*
X176400000Y-62700000I0J50000D01*
G01*
X176400000Y-62150000D01*
G75*
G02*
X176450000Y-62100000I50000J0D01*
G01*
X177000000Y-62100000D01*
G75*
G02*
X177050000Y-62150000I0J-50000D01*
G01*
G37*
G36*
G01*
X176100000Y-62150000D02*
X176100000Y-62700000D01*
G75*
G02*
X176050000Y-62750000I-50000J0D01*
G01*
X175500000Y-62750000D01*
G75*
G02*
X175450000Y-62700000I0J50000D01*
G01*
X175450000Y-62150000D01*
G75*
G02*
X175500000Y-62100000I50000J0D01*
G01*
X176050000Y-62100000D01*
G75*
G02*
X176100000Y-62150000I0J-50000D01*
G01*
G37*
G36*
G01*
X176100000Y-61200000D02*
X176100000Y-61750000D01*
G75*
G02*
X176050000Y-61800000I-50000J0D01*
G01*
X175500000Y-61800000D01*
G75*
G02*
X175450000Y-61750000I0J50000D01*
G01*
X175450000Y-61200000D01*
G75*
G02*
X175500000Y-61150000I50000J0D01*
G01*
X176050000Y-61150000D01*
G75*
G02*
X176100000Y-61200000I0J-50000D01*
G01*
G37*
G36*
G01*
X177050000Y-61200000D02*
X177050000Y-61750000D01*
G75*
G02*
X177000000Y-61800000I-50000J0D01*
G01*
X176450000Y-61800000D01*
G75*
G02*
X176400000Y-61750000I0J50000D01*
G01*
X176400000Y-61200000D01*
G75*
G02*
X176450000Y-61150000I50000J0D01*
G01*
X177000000Y-61150000D01*
G75*
G02*
X177050000Y-61200000I0J-50000D01*
G01*
G37*
G36*
G01*
X170700000Y-42750000D02*
X170700000Y-42200000D01*
G75*
G02*
X170750000Y-42150000I50000J0D01*
G01*
X171300000Y-42150000D01*
G75*
G02*
X171350000Y-42200000I0J-50000D01*
G01*
X171350000Y-42750000D01*
G75*
G02*
X171300000Y-42800000I-50000J0D01*
G01*
X170750000Y-42800000D01*
G75*
G02*
X170700000Y-42750000I0J50000D01*
G01*
G37*
G36*
G01*
X171650000Y-42750000D02*
X171650000Y-42200000D01*
G75*
G02*
X171700000Y-42150000I50000J0D01*
G01*
X172250000Y-42150000D01*
G75*
G02*
X172300000Y-42200000I0J-50000D01*
G01*
X172300000Y-42750000D01*
G75*
G02*
X172250000Y-42800000I-50000J0D01*
G01*
X171700000Y-42800000D01*
G75*
G02*
X171650000Y-42750000I0J50000D01*
G01*
G37*
G36*
G01*
X171650000Y-43700000D02*
X171650000Y-43150000D01*
G75*
G02*
X171700000Y-43100000I50000J0D01*
G01*
X172250000Y-43100000D01*
G75*
G02*
X172300000Y-43150000I0J-50000D01*
G01*
X172300000Y-43700000D01*
G75*
G02*
X172250000Y-43750000I-50000J0D01*
G01*
X171700000Y-43750000D01*
G75*
G02*
X171650000Y-43700000I0J50000D01*
G01*
G37*
G36*
G01*
X170700000Y-43700000D02*
X170700000Y-43150000D01*
G75*
G02*
X170750000Y-43100000I50000J0D01*
G01*
X171300000Y-43100000D01*
G75*
G02*
X171350000Y-43150000I0J-50000D01*
G01*
X171350000Y-43700000D01*
G75*
G02*
X171300000Y-43750000I-50000J0D01*
G01*
X170750000Y-43750000D01*
G75*
G02*
X170700000Y-43700000I0J50000D01*
G01*
G37*
G36*
G01*
X162800000Y-24150000D02*
X162800000Y-24700000D01*
G75*
G02*
X162750000Y-24750000I-50000J0D01*
G01*
X162200000Y-24750000D01*
G75*
G02*
X162150000Y-24700000I0J50000D01*
G01*
X162150000Y-24150000D01*
G75*
G02*
X162200000Y-24100000I50000J0D01*
G01*
X162750000Y-24100000D01*
G75*
G02*
X162800000Y-24150000I0J-50000D01*
G01*
G37*
G36*
G01*
X161850000Y-24150000D02*
X161850000Y-24700000D01*
G75*
G02*
X161800000Y-24750000I-50000J0D01*
G01*
X161250000Y-24750000D01*
G75*
G02*
X161200000Y-24700000I0J50000D01*
G01*
X161200000Y-24150000D01*
G75*
G02*
X161250000Y-24100000I50000J0D01*
G01*
X161800000Y-24100000D01*
G75*
G02*
X161850000Y-24150000I0J-50000D01*
G01*
G37*
G36*
G01*
X161850000Y-23200000D02*
X161850000Y-23750000D01*
G75*
G02*
X161800000Y-23800000I-50000J0D01*
G01*
X161250000Y-23800000D01*
G75*
G02*
X161200000Y-23750000I0J50000D01*
G01*
X161200000Y-23200000D01*
G75*
G02*
X161250000Y-23150000I50000J0D01*
G01*
X161800000Y-23150000D01*
G75*
G02*
X161850000Y-23200000I0J-50000D01*
G01*
G37*
G36*
G01*
X162800000Y-23200000D02*
X162800000Y-23750000D01*
G75*
G02*
X162750000Y-23800000I-50000J0D01*
G01*
X162200000Y-23800000D01*
G75*
G02*
X162150000Y-23750000I0J50000D01*
G01*
X162150000Y-23200000D01*
G75*
G02*
X162200000Y-23150000I50000J0D01*
G01*
X162750000Y-23150000D01*
G75*
G02*
X162800000Y-23200000I0J-50000D01*
G01*
G37*
G36*
G01*
X161200000Y-4750000D02*
X161200000Y-4200000D01*
G75*
G02*
X161250000Y-4150000I50000J0D01*
G01*
X161800000Y-4150000D01*
G75*
G02*
X161850000Y-4200000I0J-50000D01*
G01*
X161850000Y-4750000D01*
G75*
G02*
X161800000Y-4800000I-50000J0D01*
G01*
X161250000Y-4800000D01*
G75*
G02*
X161200000Y-4750000I0J50000D01*
G01*
G37*
G36*
G01*
X162150000Y-4750000D02*
X162150000Y-4200000D01*
G75*
G02*
X162200000Y-4150000I50000J0D01*
G01*
X162750000Y-4150000D01*
G75*
G02*
X162800000Y-4200000I0J-50000D01*
G01*
X162800000Y-4750000D01*
G75*
G02*
X162750000Y-4800000I-50000J0D01*
G01*
X162200000Y-4800000D01*
G75*
G02*
X162150000Y-4750000I0J50000D01*
G01*
G37*
G36*
G01*
X162150000Y-5700000D02*
X162150000Y-5150000D01*
G75*
G02*
X162200000Y-5100000I50000J0D01*
G01*
X162750000Y-5100000D01*
G75*
G02*
X162800000Y-5150000I0J-50000D01*
G01*
X162800000Y-5700000D01*
G75*
G02*
X162750000Y-5750000I-50000J0D01*
G01*
X162200000Y-5750000D01*
G75*
G02*
X162150000Y-5700000I0J50000D01*
G01*
G37*
G36*
G01*
X161200000Y-5700000D02*
X161200000Y-5150000D01*
G75*
G02*
X161250000Y-5100000I50000J0D01*
G01*
X161800000Y-5100000D01*
G75*
G02*
X161850000Y-5150000I0J-50000D01*
G01*
X161850000Y-5700000D01*
G75*
G02*
X161800000Y-5750000I-50000J0D01*
G01*
X161250000Y-5750000D01*
G75*
G02*
X161200000Y-5700000I0J50000D01*
G01*
G37*
G36*
G01*
X175450000Y-99750000D02*
X175450000Y-99200000D01*
G75*
G02*
X175500000Y-99150000I50000J0D01*
G01*
X176050000Y-99150000D01*
G75*
G02*
X176100000Y-99200000I0J-50000D01*
G01*
X176100000Y-99750000D01*
G75*
G02*
X176050000Y-99800000I-50000J0D01*
G01*
X175500000Y-99800000D01*
G75*
G02*
X175450000Y-99750000I0J50000D01*
G01*
G37*
G36*
G01*
X176400000Y-99750000D02*
X176400000Y-99200000D01*
G75*
G02*
X176450000Y-99150000I50000J0D01*
G01*
X177000000Y-99150000D01*
G75*
G02*
X177050000Y-99200000I0J-50000D01*
G01*
X177050000Y-99750000D01*
G75*
G02*
X177000000Y-99800000I-50000J0D01*
G01*
X176450000Y-99800000D01*
G75*
G02*
X176400000Y-99750000I0J50000D01*
G01*
G37*
G36*
G01*
X176400000Y-100700000D02*
X176400000Y-100150000D01*
G75*
G02*
X176450000Y-100100000I50000J0D01*
G01*
X177000000Y-100100000D01*
G75*
G02*
X177050000Y-100150000I0J-50000D01*
G01*
X177050000Y-100700000D01*
G75*
G02*
X177000000Y-100750000I-50000J0D01*
G01*
X176450000Y-100750000D01*
G75*
G02*
X176400000Y-100700000I0J50000D01*
G01*
G37*
G36*
G01*
X175450000Y-100700000D02*
X175450000Y-100150000D01*
G75*
G02*
X175500000Y-100100000I50000J0D01*
G01*
X176050000Y-100100000D01*
G75*
G02*
X176100000Y-100150000I0J-50000D01*
G01*
X176100000Y-100700000D01*
G75*
G02*
X176050000Y-100750000I-50000J0D01*
G01*
X175500000Y-100750000D01*
G75*
G02*
X175450000Y-100700000I0J50000D01*
G01*
G37*
G36*
G01*
X167550000Y-81150000D02*
X167550000Y-81700000D01*
G75*
G02*
X167500000Y-81750000I-50000J0D01*
G01*
X166950000Y-81750000D01*
G75*
G02*
X166900000Y-81700000I0J50000D01*
G01*
X166900000Y-81150000D01*
G75*
G02*
X166950000Y-81100000I50000J0D01*
G01*
X167500000Y-81100000D01*
G75*
G02*
X167550000Y-81150000I0J-50000D01*
G01*
G37*
G36*
G01*
X166600000Y-81150000D02*
X166600000Y-81700000D01*
G75*
G02*
X166550000Y-81750000I-50000J0D01*
G01*
X166000000Y-81750000D01*
G75*
G02*
X165950000Y-81700000I0J50000D01*
G01*
X165950000Y-81150000D01*
G75*
G02*
X166000000Y-81100000I50000J0D01*
G01*
X166550000Y-81100000D01*
G75*
G02*
X166600000Y-81150000I0J-50000D01*
G01*
G37*
G36*
G01*
X166600000Y-80200000D02*
X166600000Y-80750000D01*
G75*
G02*
X166550000Y-80800000I-50000J0D01*
G01*
X166000000Y-80800000D01*
G75*
G02*
X165950000Y-80750000I0J50000D01*
G01*
X165950000Y-80200000D01*
G75*
G02*
X166000000Y-80150000I50000J0D01*
G01*
X166550000Y-80150000D01*
G75*
G02*
X166600000Y-80200000I0J-50000D01*
G01*
G37*
G36*
G01*
X167550000Y-80200000D02*
X167550000Y-80750000D01*
G75*
G02*
X167500000Y-80800000I-50000J0D01*
G01*
X166950000Y-80800000D01*
G75*
G02*
X166900000Y-80750000I0J50000D01*
G01*
X166900000Y-80200000D01*
G75*
G02*
X166950000Y-80150000I50000J0D01*
G01*
X167500000Y-80150000D01*
G75*
G02*
X167550000Y-80200000I0J-50000D01*
G01*
G37*
G36*
G01*
X158050000Y-62150000D02*
X158050000Y-62700000D01*
G75*
G02*
X158000000Y-62750000I-50000J0D01*
G01*
X157450000Y-62750000D01*
G75*
G02*
X157400000Y-62700000I0J50000D01*
G01*
X157400000Y-62150000D01*
G75*
G02*
X157450000Y-62100000I50000J0D01*
G01*
X158000000Y-62100000D01*
G75*
G02*
X158050000Y-62150000I0J-50000D01*
G01*
G37*
G36*
G01*
X157100000Y-62150000D02*
X157100000Y-62700000D01*
G75*
G02*
X157050000Y-62750000I-50000J0D01*
G01*
X156500000Y-62750000D01*
G75*
G02*
X156450000Y-62700000I0J50000D01*
G01*
X156450000Y-62150000D01*
G75*
G02*
X156500000Y-62100000I50000J0D01*
G01*
X157050000Y-62100000D01*
G75*
G02*
X157100000Y-62150000I0J-50000D01*
G01*
G37*
G36*
G01*
X157100000Y-61200000D02*
X157100000Y-61750000D01*
G75*
G02*
X157050000Y-61800000I-50000J0D01*
G01*
X156500000Y-61800000D01*
G75*
G02*
X156450000Y-61750000I0J50000D01*
G01*
X156450000Y-61200000D01*
G75*
G02*
X156500000Y-61150000I50000J0D01*
G01*
X157050000Y-61150000D01*
G75*
G02*
X157100000Y-61200000I0J-50000D01*
G01*
G37*
G36*
G01*
X158050000Y-61200000D02*
X158050000Y-61750000D01*
G75*
G02*
X158000000Y-61800000I-50000J0D01*
G01*
X157450000Y-61800000D01*
G75*
G02*
X157400000Y-61750000I0J50000D01*
G01*
X157400000Y-61200000D01*
G75*
G02*
X157450000Y-61150000I50000J0D01*
G01*
X158000000Y-61150000D01*
G75*
G02*
X158050000Y-61200000I0J-50000D01*
G01*
G37*
G36*
G01*
X151700000Y-42750000D02*
X151700000Y-42200000D01*
G75*
G02*
X151750000Y-42150000I50000J0D01*
G01*
X152300000Y-42150000D01*
G75*
G02*
X152350000Y-42200000I0J-50000D01*
G01*
X152350000Y-42750000D01*
G75*
G02*
X152300000Y-42800000I-50000J0D01*
G01*
X151750000Y-42800000D01*
G75*
G02*
X151700000Y-42750000I0J50000D01*
G01*
G37*
G36*
G01*
X152650000Y-42750000D02*
X152650000Y-42200000D01*
G75*
G02*
X152700000Y-42150000I50000J0D01*
G01*
X153250000Y-42150000D01*
G75*
G02*
X153300000Y-42200000I0J-50000D01*
G01*
X153300000Y-42750000D01*
G75*
G02*
X153250000Y-42800000I-50000J0D01*
G01*
X152700000Y-42800000D01*
G75*
G02*
X152650000Y-42750000I0J50000D01*
G01*
G37*
G36*
G01*
X152650000Y-43700000D02*
X152650000Y-43150000D01*
G75*
G02*
X152700000Y-43100000I50000J0D01*
G01*
X153250000Y-43100000D01*
G75*
G02*
X153300000Y-43150000I0J-50000D01*
G01*
X153300000Y-43700000D01*
G75*
G02*
X153250000Y-43750000I-50000J0D01*
G01*
X152700000Y-43750000D01*
G75*
G02*
X152650000Y-43700000I0J50000D01*
G01*
G37*
G36*
G01*
X151700000Y-43700000D02*
X151700000Y-43150000D01*
G75*
G02*
X151750000Y-43100000I50000J0D01*
G01*
X152300000Y-43100000D01*
G75*
G02*
X152350000Y-43150000I0J-50000D01*
G01*
X152350000Y-43700000D01*
G75*
G02*
X152300000Y-43750000I-50000J0D01*
G01*
X151750000Y-43750000D01*
G75*
G02*
X151700000Y-43700000I0J50000D01*
G01*
G37*
G36*
G01*
X143800000Y-24150000D02*
X143800000Y-24700000D01*
G75*
G02*
X143750000Y-24750000I-50000J0D01*
G01*
X143200000Y-24750000D01*
G75*
G02*
X143150000Y-24700000I0J50000D01*
G01*
X143150000Y-24150000D01*
G75*
G02*
X143200000Y-24100000I50000J0D01*
G01*
X143750000Y-24100000D01*
G75*
G02*
X143800000Y-24150000I0J-50000D01*
G01*
G37*
G36*
G01*
X142850000Y-24150000D02*
X142850000Y-24700000D01*
G75*
G02*
X142800000Y-24750000I-50000J0D01*
G01*
X142250000Y-24750000D01*
G75*
G02*
X142200000Y-24700000I0J50000D01*
G01*
X142200000Y-24150000D01*
G75*
G02*
X142250000Y-24100000I50000J0D01*
G01*
X142800000Y-24100000D01*
G75*
G02*
X142850000Y-24150000I0J-50000D01*
G01*
G37*
G36*
G01*
X142850000Y-23200000D02*
X142850000Y-23750000D01*
G75*
G02*
X142800000Y-23800000I-50000J0D01*
G01*
X142250000Y-23800000D01*
G75*
G02*
X142200000Y-23750000I0J50000D01*
G01*
X142200000Y-23200000D01*
G75*
G02*
X142250000Y-23150000I50000J0D01*
G01*
X142800000Y-23150000D01*
G75*
G02*
X142850000Y-23200000I0J-50000D01*
G01*
G37*
G36*
G01*
X143800000Y-23200000D02*
X143800000Y-23750000D01*
G75*
G02*
X143750000Y-23800000I-50000J0D01*
G01*
X143200000Y-23800000D01*
G75*
G02*
X143150000Y-23750000I0J50000D01*
G01*
X143150000Y-23200000D01*
G75*
G02*
X143200000Y-23150000I50000J0D01*
G01*
X143750000Y-23150000D01*
G75*
G02*
X143800000Y-23200000I0J-50000D01*
G01*
G37*
G36*
G01*
X142200000Y-4750000D02*
X142200000Y-4200000D01*
G75*
G02*
X142250000Y-4150000I50000J0D01*
G01*
X142800000Y-4150000D01*
G75*
G02*
X142850000Y-4200000I0J-50000D01*
G01*
X142850000Y-4750000D01*
G75*
G02*
X142800000Y-4800000I-50000J0D01*
G01*
X142250000Y-4800000D01*
G75*
G02*
X142200000Y-4750000I0J50000D01*
G01*
G37*
G36*
G01*
X143150000Y-4750000D02*
X143150000Y-4200000D01*
G75*
G02*
X143200000Y-4150000I50000J0D01*
G01*
X143750000Y-4150000D01*
G75*
G02*
X143800000Y-4200000I0J-50000D01*
G01*
X143800000Y-4750000D01*
G75*
G02*
X143750000Y-4800000I-50000J0D01*
G01*
X143200000Y-4800000D01*
G75*
G02*
X143150000Y-4750000I0J50000D01*
G01*
G37*
G36*
G01*
X143150000Y-5700000D02*
X143150000Y-5150000D01*
G75*
G02*
X143200000Y-5100000I50000J0D01*
G01*
X143750000Y-5100000D01*
G75*
G02*
X143800000Y-5150000I0J-50000D01*
G01*
X143800000Y-5700000D01*
G75*
G02*
X143750000Y-5750000I-50000J0D01*
G01*
X143200000Y-5750000D01*
G75*
G02*
X143150000Y-5700000I0J50000D01*
G01*
G37*
G36*
G01*
X142200000Y-5700000D02*
X142200000Y-5150000D01*
G75*
G02*
X142250000Y-5100000I50000J0D01*
G01*
X142800000Y-5100000D01*
G75*
G02*
X142850000Y-5150000I0J-50000D01*
G01*
X142850000Y-5700000D01*
G75*
G02*
X142800000Y-5750000I-50000J0D01*
G01*
X142250000Y-5750000D01*
G75*
G02*
X142200000Y-5700000I0J50000D01*
G01*
G37*
G36*
G01*
X146950000Y-99750000D02*
X146950000Y-99200000D01*
G75*
G02*
X147000000Y-99150000I50000J0D01*
G01*
X147550000Y-99150000D01*
G75*
G02*
X147600000Y-99200000I0J-50000D01*
G01*
X147600000Y-99750000D01*
G75*
G02*
X147550000Y-99800000I-50000J0D01*
G01*
X147000000Y-99800000D01*
G75*
G02*
X146950000Y-99750000I0J50000D01*
G01*
G37*
G36*
G01*
X147900000Y-99750000D02*
X147900000Y-99200000D01*
G75*
G02*
X147950000Y-99150000I50000J0D01*
G01*
X148500000Y-99150000D01*
G75*
G02*
X148550000Y-99200000I0J-50000D01*
G01*
X148550000Y-99750000D01*
G75*
G02*
X148500000Y-99800000I-50000J0D01*
G01*
X147950000Y-99800000D01*
G75*
G02*
X147900000Y-99750000I0J50000D01*
G01*
G37*
G36*
G01*
X147900000Y-100700000D02*
X147900000Y-100150000D01*
G75*
G02*
X147950000Y-100100000I50000J0D01*
G01*
X148500000Y-100100000D01*
G75*
G02*
X148550000Y-100150000I0J-50000D01*
G01*
X148550000Y-100700000D01*
G75*
G02*
X148500000Y-100750000I-50000J0D01*
G01*
X147950000Y-100750000D01*
G75*
G02*
X147900000Y-100700000I0J50000D01*
G01*
G37*
G36*
G01*
X146950000Y-100700000D02*
X146950000Y-100150000D01*
G75*
G02*
X147000000Y-100100000I50000J0D01*
G01*
X147550000Y-100100000D01*
G75*
G02*
X147600000Y-100150000I0J-50000D01*
G01*
X147600000Y-100700000D01*
G75*
G02*
X147550000Y-100750000I-50000J0D01*
G01*
X147000000Y-100750000D01*
G75*
G02*
X146950000Y-100700000I0J50000D01*
G01*
G37*
G36*
G01*
X148550000Y-81150000D02*
X148550000Y-81700000D01*
G75*
G02*
X148500000Y-81750000I-50000J0D01*
G01*
X147950000Y-81750000D01*
G75*
G02*
X147900000Y-81700000I0J50000D01*
G01*
X147900000Y-81150000D01*
G75*
G02*
X147950000Y-81100000I50000J0D01*
G01*
X148500000Y-81100000D01*
G75*
G02*
X148550000Y-81150000I0J-50000D01*
G01*
G37*
G36*
G01*
X147600000Y-81150000D02*
X147600000Y-81700000D01*
G75*
G02*
X147550000Y-81750000I-50000J0D01*
G01*
X147000000Y-81750000D01*
G75*
G02*
X146950000Y-81700000I0J50000D01*
G01*
X146950000Y-81150000D01*
G75*
G02*
X147000000Y-81100000I50000J0D01*
G01*
X147550000Y-81100000D01*
G75*
G02*
X147600000Y-81150000I0J-50000D01*
G01*
G37*
G36*
G01*
X147600000Y-80200000D02*
X147600000Y-80750000D01*
G75*
G02*
X147550000Y-80800000I-50000J0D01*
G01*
X147000000Y-80800000D01*
G75*
G02*
X146950000Y-80750000I0J50000D01*
G01*
X146950000Y-80200000D01*
G75*
G02*
X147000000Y-80150000I50000J0D01*
G01*
X147550000Y-80150000D01*
G75*
G02*
X147600000Y-80200000I0J-50000D01*
G01*
G37*
G36*
G01*
X148550000Y-80200000D02*
X148550000Y-80750000D01*
G75*
G02*
X148500000Y-80800000I-50000J0D01*
G01*
X147950000Y-80800000D01*
G75*
G02*
X147900000Y-80750000I0J50000D01*
G01*
X147900000Y-80200000D01*
G75*
G02*
X147950000Y-80150000I50000J0D01*
G01*
X148500000Y-80150000D01*
G75*
G02*
X148550000Y-80200000I0J-50000D01*
G01*
G37*
G36*
G01*
X139050000Y-62150000D02*
X139050000Y-62700000D01*
G75*
G02*
X139000000Y-62750000I-50000J0D01*
G01*
X138450000Y-62750000D01*
G75*
G02*
X138400000Y-62700000I0J50000D01*
G01*
X138400000Y-62150000D01*
G75*
G02*
X138450000Y-62100000I50000J0D01*
G01*
X139000000Y-62100000D01*
G75*
G02*
X139050000Y-62150000I0J-50000D01*
G01*
G37*
G36*
G01*
X138100000Y-62150000D02*
X138100000Y-62700000D01*
G75*
G02*
X138050000Y-62750000I-50000J0D01*
G01*
X137500000Y-62750000D01*
G75*
G02*
X137450000Y-62700000I0J50000D01*
G01*
X137450000Y-62150000D01*
G75*
G02*
X137500000Y-62100000I50000J0D01*
G01*
X138050000Y-62100000D01*
G75*
G02*
X138100000Y-62150000I0J-50000D01*
G01*
G37*
G36*
G01*
X138100000Y-61200000D02*
X138100000Y-61750000D01*
G75*
G02*
X138050000Y-61800000I-50000J0D01*
G01*
X137500000Y-61800000D01*
G75*
G02*
X137450000Y-61750000I0J50000D01*
G01*
X137450000Y-61200000D01*
G75*
G02*
X137500000Y-61150000I50000J0D01*
G01*
X138050000Y-61150000D01*
G75*
G02*
X138100000Y-61200000I0J-50000D01*
G01*
G37*
G36*
G01*
X139050000Y-61200000D02*
X139050000Y-61750000D01*
G75*
G02*
X139000000Y-61800000I-50000J0D01*
G01*
X138450000Y-61800000D01*
G75*
G02*
X138400000Y-61750000I0J50000D01*
G01*
X138400000Y-61200000D01*
G75*
G02*
X138450000Y-61150000I50000J0D01*
G01*
X139000000Y-61150000D01*
G75*
G02*
X139050000Y-61200000I0J-50000D01*
G01*
G37*
G36*
G01*
X132700000Y-42750000D02*
X132700000Y-42200000D01*
G75*
G02*
X132750000Y-42150000I50000J0D01*
G01*
X133300000Y-42150000D01*
G75*
G02*
X133350000Y-42200000I0J-50000D01*
G01*
X133350000Y-42750000D01*
G75*
G02*
X133300000Y-42800000I-50000J0D01*
G01*
X132750000Y-42800000D01*
G75*
G02*
X132700000Y-42750000I0J50000D01*
G01*
G37*
G36*
G01*
X133650000Y-42750000D02*
X133650000Y-42200000D01*
G75*
G02*
X133700000Y-42150000I50000J0D01*
G01*
X134250000Y-42150000D01*
G75*
G02*
X134300000Y-42200000I0J-50000D01*
G01*
X134300000Y-42750000D01*
G75*
G02*
X134250000Y-42800000I-50000J0D01*
G01*
X133700000Y-42800000D01*
G75*
G02*
X133650000Y-42750000I0J50000D01*
G01*
G37*
G36*
G01*
X133650000Y-43700000D02*
X133650000Y-43150000D01*
G75*
G02*
X133700000Y-43100000I50000J0D01*
G01*
X134250000Y-43100000D01*
G75*
G02*
X134300000Y-43150000I0J-50000D01*
G01*
X134300000Y-43700000D01*
G75*
G02*
X134250000Y-43750000I-50000J0D01*
G01*
X133700000Y-43750000D01*
G75*
G02*
X133650000Y-43700000I0J50000D01*
G01*
G37*
G36*
G01*
X132700000Y-43700000D02*
X132700000Y-43150000D01*
G75*
G02*
X132750000Y-43100000I50000J0D01*
G01*
X133300000Y-43100000D01*
G75*
G02*
X133350000Y-43150000I0J-50000D01*
G01*
X133350000Y-43700000D01*
G75*
G02*
X133300000Y-43750000I-50000J0D01*
G01*
X132750000Y-43750000D01*
G75*
G02*
X132700000Y-43700000I0J50000D01*
G01*
G37*
G36*
G01*
X124800000Y-24150000D02*
X124800000Y-24700000D01*
G75*
G02*
X124750000Y-24750000I-50000J0D01*
G01*
X124200000Y-24750000D01*
G75*
G02*
X124150000Y-24700000I0J50000D01*
G01*
X124150000Y-24150000D01*
G75*
G02*
X124200000Y-24100000I50000J0D01*
G01*
X124750000Y-24100000D01*
G75*
G02*
X124800000Y-24150000I0J-50000D01*
G01*
G37*
G36*
G01*
X123850000Y-24150000D02*
X123850000Y-24700000D01*
G75*
G02*
X123800000Y-24750000I-50000J0D01*
G01*
X123250000Y-24750000D01*
G75*
G02*
X123200000Y-24700000I0J50000D01*
G01*
X123200000Y-24150000D01*
G75*
G02*
X123250000Y-24100000I50000J0D01*
G01*
X123800000Y-24100000D01*
G75*
G02*
X123850000Y-24150000I0J-50000D01*
G01*
G37*
G36*
G01*
X123850000Y-23200000D02*
X123850000Y-23750000D01*
G75*
G02*
X123800000Y-23800000I-50000J0D01*
G01*
X123250000Y-23800000D01*
G75*
G02*
X123200000Y-23750000I0J50000D01*
G01*
X123200000Y-23200000D01*
G75*
G02*
X123250000Y-23150000I50000J0D01*
G01*
X123800000Y-23150000D01*
G75*
G02*
X123850000Y-23200000I0J-50000D01*
G01*
G37*
G36*
G01*
X124800000Y-23200000D02*
X124800000Y-23750000D01*
G75*
G02*
X124750000Y-23800000I-50000J0D01*
G01*
X124200000Y-23800000D01*
G75*
G02*
X124150000Y-23750000I0J50000D01*
G01*
X124150000Y-23200000D01*
G75*
G02*
X124200000Y-23150000I50000J0D01*
G01*
X124750000Y-23150000D01*
G75*
G02*
X124800000Y-23200000I0J-50000D01*
G01*
G37*
G36*
G01*
X123200000Y-4750000D02*
X123200000Y-4200000D01*
G75*
G02*
X123250000Y-4150000I50000J0D01*
G01*
X123800000Y-4150000D01*
G75*
G02*
X123850000Y-4200000I0J-50000D01*
G01*
X123850000Y-4750000D01*
G75*
G02*
X123800000Y-4800000I-50000J0D01*
G01*
X123250000Y-4800000D01*
G75*
G02*
X123200000Y-4750000I0J50000D01*
G01*
G37*
G36*
G01*
X124150000Y-4750000D02*
X124150000Y-4200000D01*
G75*
G02*
X124200000Y-4150000I50000J0D01*
G01*
X124750000Y-4150000D01*
G75*
G02*
X124800000Y-4200000I0J-50000D01*
G01*
X124800000Y-4750000D01*
G75*
G02*
X124750000Y-4800000I-50000J0D01*
G01*
X124200000Y-4800000D01*
G75*
G02*
X124150000Y-4750000I0J50000D01*
G01*
G37*
G36*
G01*
X124150000Y-5700000D02*
X124150000Y-5150000D01*
G75*
G02*
X124200000Y-5100000I50000J0D01*
G01*
X124750000Y-5100000D01*
G75*
G02*
X124800000Y-5150000I0J-50000D01*
G01*
X124800000Y-5700000D01*
G75*
G02*
X124750000Y-5750000I-50000J0D01*
G01*
X124200000Y-5750000D01*
G75*
G02*
X124150000Y-5700000I0J50000D01*
G01*
G37*
G36*
G01*
X123200000Y-5700000D02*
X123200000Y-5150000D01*
G75*
G02*
X123250000Y-5100000I50000J0D01*
G01*
X123800000Y-5100000D01*
G75*
G02*
X123850000Y-5150000I0J-50000D01*
G01*
X123850000Y-5700000D01*
G75*
G02*
X123800000Y-5750000I-50000J0D01*
G01*
X123250000Y-5750000D01*
G75*
G02*
X123200000Y-5700000I0J50000D01*
G01*
G37*
G36*
G01*
X129550000Y-81150000D02*
X129550000Y-81700000D01*
G75*
G02*
X129500000Y-81750000I-50000J0D01*
G01*
X128950000Y-81750000D01*
G75*
G02*
X128900000Y-81700000I0J50000D01*
G01*
X128900000Y-81150000D01*
G75*
G02*
X128950000Y-81100000I50000J0D01*
G01*
X129500000Y-81100000D01*
G75*
G02*
X129550000Y-81150000I0J-50000D01*
G01*
G37*
G36*
G01*
X128600000Y-81150000D02*
X128600000Y-81700000D01*
G75*
G02*
X128550000Y-81750000I-50000J0D01*
G01*
X128000000Y-81750000D01*
G75*
G02*
X127950000Y-81700000I0J50000D01*
G01*
X127950000Y-81150000D01*
G75*
G02*
X128000000Y-81100000I50000J0D01*
G01*
X128550000Y-81100000D01*
G75*
G02*
X128600000Y-81150000I0J-50000D01*
G01*
G37*
G36*
G01*
X128600000Y-80200000D02*
X128600000Y-80750000D01*
G75*
G02*
X128550000Y-80800000I-50000J0D01*
G01*
X128000000Y-80800000D01*
G75*
G02*
X127950000Y-80750000I0J50000D01*
G01*
X127950000Y-80200000D01*
G75*
G02*
X128000000Y-80150000I50000J0D01*
G01*
X128550000Y-80150000D01*
G75*
G02*
X128600000Y-80200000I0J-50000D01*
G01*
G37*
G36*
G01*
X129550000Y-80200000D02*
X129550000Y-80750000D01*
G75*
G02*
X129500000Y-80800000I-50000J0D01*
G01*
X128950000Y-80800000D01*
G75*
G02*
X128900000Y-80750000I0J50000D01*
G01*
X128900000Y-80200000D01*
G75*
G02*
X128950000Y-80150000I50000J0D01*
G01*
X129500000Y-80150000D01*
G75*
G02*
X129550000Y-80200000I0J-50000D01*
G01*
G37*
G36*
G01*
X120050000Y-62150000D02*
X120050000Y-62700000D01*
G75*
G02*
X120000000Y-62750000I-50000J0D01*
G01*
X119450000Y-62750000D01*
G75*
G02*
X119400000Y-62700000I0J50000D01*
G01*
X119400000Y-62150000D01*
G75*
G02*
X119450000Y-62100000I50000J0D01*
G01*
X120000000Y-62100000D01*
G75*
G02*
X120050000Y-62150000I0J-50000D01*
G01*
G37*
G36*
G01*
X119100000Y-62150000D02*
X119100000Y-62700000D01*
G75*
G02*
X119050000Y-62750000I-50000J0D01*
G01*
X118500000Y-62750000D01*
G75*
G02*
X118450000Y-62700000I0J50000D01*
G01*
X118450000Y-62150000D01*
G75*
G02*
X118500000Y-62100000I50000J0D01*
G01*
X119050000Y-62100000D01*
G75*
G02*
X119100000Y-62150000I0J-50000D01*
G01*
G37*
G36*
G01*
X119100000Y-61200000D02*
X119100000Y-61750000D01*
G75*
G02*
X119050000Y-61800000I-50000J0D01*
G01*
X118500000Y-61800000D01*
G75*
G02*
X118450000Y-61750000I0J50000D01*
G01*
X118450000Y-61200000D01*
G75*
G02*
X118500000Y-61150000I50000J0D01*
G01*
X119050000Y-61150000D01*
G75*
G02*
X119100000Y-61200000I0J-50000D01*
G01*
G37*
G36*
G01*
X120050000Y-61200000D02*
X120050000Y-61750000D01*
G75*
G02*
X120000000Y-61800000I-50000J0D01*
G01*
X119450000Y-61800000D01*
G75*
G02*
X119400000Y-61750000I0J50000D01*
G01*
X119400000Y-61200000D01*
G75*
G02*
X119450000Y-61150000I50000J0D01*
G01*
X120000000Y-61150000D01*
G75*
G02*
X120050000Y-61200000I0J-50000D01*
G01*
G37*
G36*
G01*
X113700000Y-42750000D02*
X113700000Y-42200000D01*
G75*
G02*
X113750000Y-42150000I50000J0D01*
G01*
X114300000Y-42150000D01*
G75*
G02*
X114350000Y-42200000I0J-50000D01*
G01*
X114350000Y-42750000D01*
G75*
G02*
X114300000Y-42800000I-50000J0D01*
G01*
X113750000Y-42800000D01*
G75*
G02*
X113700000Y-42750000I0J50000D01*
G01*
G37*
G36*
G01*
X114650000Y-42750000D02*
X114650000Y-42200000D01*
G75*
G02*
X114700000Y-42150000I50000J0D01*
G01*
X115250000Y-42150000D01*
G75*
G02*
X115300000Y-42200000I0J-50000D01*
G01*
X115300000Y-42750000D01*
G75*
G02*
X115250000Y-42800000I-50000J0D01*
G01*
X114700000Y-42800000D01*
G75*
G02*
X114650000Y-42750000I0J50000D01*
G01*
G37*
G36*
G01*
X114650000Y-43700000D02*
X114650000Y-43150000D01*
G75*
G02*
X114700000Y-43100000I50000J0D01*
G01*
X115250000Y-43100000D01*
G75*
G02*
X115300000Y-43150000I0J-50000D01*
G01*
X115300000Y-43700000D01*
G75*
G02*
X115250000Y-43750000I-50000J0D01*
G01*
X114700000Y-43750000D01*
G75*
G02*
X114650000Y-43700000I0J50000D01*
G01*
G37*
G36*
G01*
X113700000Y-43700000D02*
X113700000Y-43150000D01*
G75*
G02*
X113750000Y-43100000I50000J0D01*
G01*
X114300000Y-43100000D01*
G75*
G02*
X114350000Y-43150000I0J-50000D01*
G01*
X114350000Y-43700000D01*
G75*
G02*
X114300000Y-43750000I-50000J0D01*
G01*
X113750000Y-43750000D01*
G75*
G02*
X113700000Y-43700000I0J50000D01*
G01*
G37*
G36*
G01*
X105800000Y-24150000D02*
X105800000Y-24700000D01*
G75*
G02*
X105750000Y-24750000I-50000J0D01*
G01*
X105200000Y-24750000D01*
G75*
G02*
X105150000Y-24700000I0J50000D01*
G01*
X105150000Y-24150000D01*
G75*
G02*
X105200000Y-24100000I50000J0D01*
G01*
X105750000Y-24100000D01*
G75*
G02*
X105800000Y-24150000I0J-50000D01*
G01*
G37*
G36*
G01*
X104850000Y-24150000D02*
X104850000Y-24700000D01*
G75*
G02*
X104800000Y-24750000I-50000J0D01*
G01*
X104250000Y-24750000D01*
G75*
G02*
X104200000Y-24700000I0J50000D01*
G01*
X104200000Y-24150000D01*
G75*
G02*
X104250000Y-24100000I50000J0D01*
G01*
X104800000Y-24100000D01*
G75*
G02*
X104850000Y-24150000I0J-50000D01*
G01*
G37*
G36*
G01*
X104850000Y-23200000D02*
X104850000Y-23750000D01*
G75*
G02*
X104800000Y-23800000I-50000J0D01*
G01*
X104250000Y-23800000D01*
G75*
G02*
X104200000Y-23750000I0J50000D01*
G01*
X104200000Y-23200000D01*
G75*
G02*
X104250000Y-23150000I50000J0D01*
G01*
X104800000Y-23150000D01*
G75*
G02*
X104850000Y-23200000I0J-50000D01*
G01*
G37*
G36*
G01*
X105800000Y-23200000D02*
X105800000Y-23750000D01*
G75*
G02*
X105750000Y-23800000I-50000J0D01*
G01*
X105200000Y-23800000D01*
G75*
G02*
X105150000Y-23750000I0J50000D01*
G01*
X105150000Y-23200000D01*
G75*
G02*
X105200000Y-23150000I50000J0D01*
G01*
X105750000Y-23150000D01*
G75*
G02*
X105800000Y-23200000I0J-50000D01*
G01*
G37*
G36*
G01*
X104200000Y-4750000D02*
X104200000Y-4200000D01*
G75*
G02*
X104250000Y-4150000I50000J0D01*
G01*
X104800000Y-4150000D01*
G75*
G02*
X104850000Y-4200000I0J-50000D01*
G01*
X104850000Y-4750000D01*
G75*
G02*
X104800000Y-4800000I-50000J0D01*
G01*
X104250000Y-4800000D01*
G75*
G02*
X104200000Y-4750000I0J50000D01*
G01*
G37*
G36*
G01*
X105150000Y-4750000D02*
X105150000Y-4200000D01*
G75*
G02*
X105200000Y-4150000I50000J0D01*
G01*
X105750000Y-4150000D01*
G75*
G02*
X105800000Y-4200000I0J-50000D01*
G01*
X105800000Y-4750000D01*
G75*
G02*
X105750000Y-4800000I-50000J0D01*
G01*
X105200000Y-4800000D01*
G75*
G02*
X105150000Y-4750000I0J50000D01*
G01*
G37*
G36*
G01*
X105150000Y-5700000D02*
X105150000Y-5150000D01*
G75*
G02*
X105200000Y-5100000I50000J0D01*
G01*
X105750000Y-5100000D01*
G75*
G02*
X105800000Y-5150000I0J-50000D01*
G01*
X105800000Y-5700000D01*
G75*
G02*
X105750000Y-5750000I-50000J0D01*
G01*
X105200000Y-5750000D01*
G75*
G02*
X105150000Y-5700000I0J50000D01*
G01*
G37*
G36*
G01*
X104200000Y-5700000D02*
X104200000Y-5150000D01*
G75*
G02*
X104250000Y-5100000I50000J0D01*
G01*
X104800000Y-5100000D01*
G75*
G02*
X104850000Y-5150000I0J-50000D01*
G01*
X104850000Y-5700000D01*
G75*
G02*
X104800000Y-5750000I-50000J0D01*
G01*
X104250000Y-5750000D01*
G75*
G02*
X104200000Y-5700000I0J50000D01*
G01*
G37*
G36*
G01*
X108950000Y-99750000D02*
X108950000Y-99200000D01*
G75*
G02*
X109000000Y-99150000I50000J0D01*
G01*
X109550000Y-99150000D01*
G75*
G02*
X109600000Y-99200000I0J-50000D01*
G01*
X109600000Y-99750000D01*
G75*
G02*
X109550000Y-99800000I-50000J0D01*
G01*
X109000000Y-99800000D01*
G75*
G02*
X108950000Y-99750000I0J50000D01*
G01*
G37*
G36*
G01*
X109900000Y-99750000D02*
X109900000Y-99200000D01*
G75*
G02*
X109950000Y-99150000I50000J0D01*
G01*
X110500000Y-99150000D01*
G75*
G02*
X110550000Y-99200000I0J-50000D01*
G01*
X110550000Y-99750000D01*
G75*
G02*
X110500000Y-99800000I-50000J0D01*
G01*
X109950000Y-99800000D01*
G75*
G02*
X109900000Y-99750000I0J50000D01*
G01*
G37*
G36*
G01*
X109900000Y-100700000D02*
X109900000Y-100150000D01*
G75*
G02*
X109950000Y-100100000I50000J0D01*
G01*
X110500000Y-100100000D01*
G75*
G02*
X110550000Y-100150000I0J-50000D01*
G01*
X110550000Y-100700000D01*
G75*
G02*
X110500000Y-100750000I-50000J0D01*
G01*
X109950000Y-100750000D01*
G75*
G02*
X109900000Y-100700000I0J50000D01*
G01*
G37*
G36*
G01*
X108950000Y-100700000D02*
X108950000Y-100150000D01*
G75*
G02*
X109000000Y-100100000I50000J0D01*
G01*
X109550000Y-100100000D01*
G75*
G02*
X109600000Y-100150000I0J-50000D01*
G01*
X109600000Y-100700000D01*
G75*
G02*
X109550000Y-100750000I-50000J0D01*
G01*
X109000000Y-100750000D01*
G75*
G02*
X108950000Y-100700000I0J50000D01*
G01*
G37*
G36*
G01*
X110550000Y-81150000D02*
X110550000Y-81700000D01*
G75*
G02*
X110500000Y-81750000I-50000J0D01*
G01*
X109950000Y-81750000D01*
G75*
G02*
X109900000Y-81700000I0J50000D01*
G01*
X109900000Y-81150000D01*
G75*
G02*
X109950000Y-81100000I50000J0D01*
G01*
X110500000Y-81100000D01*
G75*
G02*
X110550000Y-81150000I0J-50000D01*
G01*
G37*
G36*
G01*
X109600000Y-81150000D02*
X109600000Y-81700000D01*
G75*
G02*
X109550000Y-81750000I-50000J0D01*
G01*
X109000000Y-81750000D01*
G75*
G02*
X108950000Y-81700000I0J50000D01*
G01*
X108950000Y-81150000D01*
G75*
G02*
X109000000Y-81100000I50000J0D01*
G01*
X109550000Y-81100000D01*
G75*
G02*
X109600000Y-81150000I0J-50000D01*
G01*
G37*
G36*
G01*
X109600000Y-80200000D02*
X109600000Y-80750000D01*
G75*
G02*
X109550000Y-80800000I-50000J0D01*
G01*
X109000000Y-80800000D01*
G75*
G02*
X108950000Y-80750000I0J50000D01*
G01*
X108950000Y-80200000D01*
G75*
G02*
X109000000Y-80150000I50000J0D01*
G01*
X109550000Y-80150000D01*
G75*
G02*
X109600000Y-80200000I0J-50000D01*
G01*
G37*
G36*
G01*
X110550000Y-80200000D02*
X110550000Y-80750000D01*
G75*
G02*
X110500000Y-80800000I-50000J0D01*
G01*
X109950000Y-80800000D01*
G75*
G02*
X109900000Y-80750000I0J50000D01*
G01*
X109900000Y-80200000D01*
G75*
G02*
X109950000Y-80150000I50000J0D01*
G01*
X110500000Y-80150000D01*
G75*
G02*
X110550000Y-80200000I0J-50000D01*
G01*
G37*
G36*
G01*
X101050000Y-62150000D02*
X101050000Y-62700000D01*
G75*
G02*
X101000000Y-62750000I-50000J0D01*
G01*
X100450000Y-62750000D01*
G75*
G02*
X100400000Y-62700000I0J50000D01*
G01*
X100400000Y-62150000D01*
G75*
G02*
X100450000Y-62100000I50000J0D01*
G01*
X101000000Y-62100000D01*
G75*
G02*
X101050000Y-62150000I0J-50000D01*
G01*
G37*
G36*
G01*
X100100000Y-62150000D02*
X100100000Y-62700000D01*
G75*
G02*
X100050000Y-62750000I-50000J0D01*
G01*
X99500000Y-62750000D01*
G75*
G02*
X99450000Y-62700000I0J50000D01*
G01*
X99450000Y-62150000D01*
G75*
G02*
X99500000Y-62100000I50000J0D01*
G01*
X100050000Y-62100000D01*
G75*
G02*
X100100000Y-62150000I0J-50000D01*
G01*
G37*
G36*
G01*
X100100000Y-61200000D02*
X100100000Y-61750000D01*
G75*
G02*
X100050000Y-61800000I-50000J0D01*
G01*
X99500000Y-61800000D01*
G75*
G02*
X99450000Y-61750000I0J50000D01*
G01*
X99450000Y-61200000D01*
G75*
G02*
X99500000Y-61150000I50000J0D01*
G01*
X100050000Y-61150000D01*
G75*
G02*
X100100000Y-61200000I0J-50000D01*
G01*
G37*
G36*
G01*
X101050000Y-61200000D02*
X101050000Y-61750000D01*
G75*
G02*
X101000000Y-61800000I-50000J0D01*
G01*
X100450000Y-61800000D01*
G75*
G02*
X100400000Y-61750000I0J50000D01*
G01*
X100400000Y-61200000D01*
G75*
G02*
X100450000Y-61150000I50000J0D01*
G01*
X101000000Y-61150000D01*
G75*
G02*
X101050000Y-61200000I0J-50000D01*
G01*
G37*
G36*
G01*
X94700000Y-42750000D02*
X94700000Y-42200000D01*
G75*
G02*
X94750000Y-42150000I50000J0D01*
G01*
X95300000Y-42150000D01*
G75*
G02*
X95350000Y-42200000I0J-50000D01*
G01*
X95350000Y-42750000D01*
G75*
G02*
X95300000Y-42800000I-50000J0D01*
G01*
X94750000Y-42800000D01*
G75*
G02*
X94700000Y-42750000I0J50000D01*
G01*
G37*
G36*
G01*
X95650000Y-42750000D02*
X95650000Y-42200000D01*
G75*
G02*
X95700000Y-42150000I50000J0D01*
G01*
X96250000Y-42150000D01*
G75*
G02*
X96300000Y-42200000I0J-50000D01*
G01*
X96300000Y-42750000D01*
G75*
G02*
X96250000Y-42800000I-50000J0D01*
G01*
X95700000Y-42800000D01*
G75*
G02*
X95650000Y-42750000I0J50000D01*
G01*
G37*
G36*
G01*
X95650000Y-43700000D02*
X95650000Y-43150000D01*
G75*
G02*
X95700000Y-43100000I50000J0D01*
G01*
X96250000Y-43100000D01*
G75*
G02*
X96300000Y-43150000I0J-50000D01*
G01*
X96300000Y-43700000D01*
G75*
G02*
X96250000Y-43750000I-50000J0D01*
G01*
X95700000Y-43750000D01*
G75*
G02*
X95650000Y-43700000I0J50000D01*
G01*
G37*
G36*
G01*
X94700000Y-43700000D02*
X94700000Y-43150000D01*
G75*
G02*
X94750000Y-43100000I50000J0D01*
G01*
X95300000Y-43100000D01*
G75*
G02*
X95350000Y-43150000I0J-50000D01*
G01*
X95350000Y-43700000D01*
G75*
G02*
X95300000Y-43750000I-50000J0D01*
G01*
X94750000Y-43750000D01*
G75*
G02*
X94700000Y-43700000I0J50000D01*
G01*
G37*
G36*
G01*
X86800000Y-24150000D02*
X86800000Y-24700000D01*
G75*
G02*
X86750000Y-24750000I-50000J0D01*
G01*
X86200000Y-24750000D01*
G75*
G02*
X86150000Y-24700000I0J50000D01*
G01*
X86150000Y-24150000D01*
G75*
G02*
X86200000Y-24100000I50000J0D01*
G01*
X86750000Y-24100000D01*
G75*
G02*
X86800000Y-24150000I0J-50000D01*
G01*
G37*
G36*
G01*
X85850000Y-24150000D02*
X85850000Y-24700000D01*
G75*
G02*
X85800000Y-24750000I-50000J0D01*
G01*
X85250000Y-24750000D01*
G75*
G02*
X85200000Y-24700000I0J50000D01*
G01*
X85200000Y-24150000D01*
G75*
G02*
X85250000Y-24100000I50000J0D01*
G01*
X85800000Y-24100000D01*
G75*
G02*
X85850000Y-24150000I0J-50000D01*
G01*
G37*
G36*
G01*
X85850000Y-23200000D02*
X85850000Y-23750000D01*
G75*
G02*
X85800000Y-23800000I-50000J0D01*
G01*
X85250000Y-23800000D01*
G75*
G02*
X85200000Y-23750000I0J50000D01*
G01*
X85200000Y-23200000D01*
G75*
G02*
X85250000Y-23150000I50000J0D01*
G01*
X85800000Y-23150000D01*
G75*
G02*
X85850000Y-23200000I0J-50000D01*
G01*
G37*
G36*
G01*
X86800000Y-23200000D02*
X86800000Y-23750000D01*
G75*
G02*
X86750000Y-23800000I-50000J0D01*
G01*
X86200000Y-23800000D01*
G75*
G02*
X86150000Y-23750000I0J50000D01*
G01*
X86150000Y-23200000D01*
G75*
G02*
X86200000Y-23150000I50000J0D01*
G01*
X86750000Y-23150000D01*
G75*
G02*
X86800000Y-23200000I0J-50000D01*
G01*
G37*
G36*
G01*
X85200000Y-4750000D02*
X85200000Y-4200000D01*
G75*
G02*
X85250000Y-4150000I50000J0D01*
G01*
X85800000Y-4150000D01*
G75*
G02*
X85850000Y-4200000I0J-50000D01*
G01*
X85850000Y-4750000D01*
G75*
G02*
X85800000Y-4800000I-50000J0D01*
G01*
X85250000Y-4800000D01*
G75*
G02*
X85200000Y-4750000I0J50000D01*
G01*
G37*
G36*
G01*
X86150000Y-4750000D02*
X86150000Y-4200000D01*
G75*
G02*
X86200000Y-4150000I50000J0D01*
G01*
X86750000Y-4150000D01*
G75*
G02*
X86800000Y-4200000I0J-50000D01*
G01*
X86800000Y-4750000D01*
G75*
G02*
X86750000Y-4800000I-50000J0D01*
G01*
X86200000Y-4800000D01*
G75*
G02*
X86150000Y-4750000I0J50000D01*
G01*
G37*
G36*
G01*
X86150000Y-5700000D02*
X86150000Y-5150000D01*
G75*
G02*
X86200000Y-5100000I50000J0D01*
G01*
X86750000Y-5100000D01*
G75*
G02*
X86800000Y-5150000I0J-50000D01*
G01*
X86800000Y-5700000D01*
G75*
G02*
X86750000Y-5750000I-50000J0D01*
G01*
X86200000Y-5750000D01*
G75*
G02*
X86150000Y-5700000I0J50000D01*
G01*
G37*
G36*
G01*
X85200000Y-5700000D02*
X85200000Y-5150000D01*
G75*
G02*
X85250000Y-5100000I50000J0D01*
G01*
X85800000Y-5100000D01*
G75*
G02*
X85850000Y-5150000I0J-50000D01*
G01*
X85850000Y-5700000D01*
G75*
G02*
X85800000Y-5750000I-50000J0D01*
G01*
X85250000Y-5750000D01*
G75*
G02*
X85200000Y-5700000I0J50000D01*
G01*
G37*
G36*
G01*
X80450000Y-99750000D02*
X80450000Y-99200000D01*
G75*
G02*
X80500000Y-99150000I50000J0D01*
G01*
X81050000Y-99150000D01*
G75*
G02*
X81100000Y-99200000I0J-50000D01*
G01*
X81100000Y-99750000D01*
G75*
G02*
X81050000Y-99800000I-50000J0D01*
G01*
X80500000Y-99800000D01*
G75*
G02*
X80450000Y-99750000I0J50000D01*
G01*
G37*
G36*
G01*
X81400000Y-99750000D02*
X81400000Y-99200000D01*
G75*
G02*
X81450000Y-99150000I50000J0D01*
G01*
X82000000Y-99150000D01*
G75*
G02*
X82050000Y-99200000I0J-50000D01*
G01*
X82050000Y-99750000D01*
G75*
G02*
X82000000Y-99800000I-50000J0D01*
G01*
X81450000Y-99800000D01*
G75*
G02*
X81400000Y-99750000I0J50000D01*
G01*
G37*
G36*
G01*
X81400000Y-100700000D02*
X81400000Y-100150000D01*
G75*
G02*
X81450000Y-100100000I50000J0D01*
G01*
X82000000Y-100100000D01*
G75*
G02*
X82050000Y-100150000I0J-50000D01*
G01*
X82050000Y-100700000D01*
G75*
G02*
X82000000Y-100750000I-50000J0D01*
G01*
X81450000Y-100750000D01*
G75*
G02*
X81400000Y-100700000I0J50000D01*
G01*
G37*
G36*
G01*
X80450000Y-100700000D02*
X80450000Y-100150000D01*
G75*
G02*
X80500000Y-100100000I50000J0D01*
G01*
X81050000Y-100100000D01*
G75*
G02*
X81100000Y-100150000I0J-50000D01*
G01*
X81100000Y-100700000D01*
G75*
G02*
X81050000Y-100750000I-50000J0D01*
G01*
X80500000Y-100750000D01*
G75*
G02*
X80450000Y-100700000I0J50000D01*
G01*
G37*
G36*
G01*
X91550000Y-81150000D02*
X91550000Y-81700000D01*
G75*
G02*
X91500000Y-81750000I-50000J0D01*
G01*
X90950000Y-81750000D01*
G75*
G02*
X90900000Y-81700000I0J50000D01*
G01*
X90900000Y-81150000D01*
G75*
G02*
X90950000Y-81100000I50000J0D01*
G01*
X91500000Y-81100000D01*
G75*
G02*
X91550000Y-81150000I0J-50000D01*
G01*
G37*
G36*
G01*
X90600000Y-81150000D02*
X90600000Y-81700000D01*
G75*
G02*
X90550000Y-81750000I-50000J0D01*
G01*
X90000000Y-81750000D01*
G75*
G02*
X89950000Y-81700000I0J50000D01*
G01*
X89950000Y-81150000D01*
G75*
G02*
X90000000Y-81100000I50000J0D01*
G01*
X90550000Y-81100000D01*
G75*
G02*
X90600000Y-81150000I0J-50000D01*
G01*
G37*
G36*
G01*
X90600000Y-80200000D02*
X90600000Y-80750000D01*
G75*
G02*
X90550000Y-80800000I-50000J0D01*
G01*
X90000000Y-80800000D01*
G75*
G02*
X89950000Y-80750000I0J50000D01*
G01*
X89950000Y-80200000D01*
G75*
G02*
X90000000Y-80150000I50000J0D01*
G01*
X90550000Y-80150000D01*
G75*
G02*
X90600000Y-80200000I0J-50000D01*
G01*
G37*
G36*
G01*
X91550000Y-80200000D02*
X91550000Y-80750000D01*
G75*
G02*
X91500000Y-80800000I-50000J0D01*
G01*
X90950000Y-80800000D01*
G75*
G02*
X90900000Y-80750000I0J50000D01*
G01*
X90900000Y-80200000D01*
G75*
G02*
X90950000Y-80150000I50000J0D01*
G01*
X91500000Y-80150000D01*
G75*
G02*
X91550000Y-80200000I0J-50000D01*
G01*
G37*
G36*
G01*
X82050000Y-62150000D02*
X82050000Y-62700000D01*
G75*
G02*
X82000000Y-62750000I-50000J0D01*
G01*
X81450000Y-62750000D01*
G75*
G02*
X81400000Y-62700000I0J50000D01*
G01*
X81400000Y-62150000D01*
G75*
G02*
X81450000Y-62100000I50000J0D01*
G01*
X82000000Y-62100000D01*
G75*
G02*
X82050000Y-62150000I0J-50000D01*
G01*
G37*
G36*
G01*
X81100000Y-62150000D02*
X81100000Y-62700000D01*
G75*
G02*
X81050000Y-62750000I-50000J0D01*
G01*
X80500000Y-62750000D01*
G75*
G02*
X80450000Y-62700000I0J50000D01*
G01*
X80450000Y-62150000D01*
G75*
G02*
X80500000Y-62100000I50000J0D01*
G01*
X81050000Y-62100000D01*
G75*
G02*
X81100000Y-62150000I0J-50000D01*
G01*
G37*
G36*
G01*
X81100000Y-61200000D02*
X81100000Y-61750000D01*
G75*
G02*
X81050000Y-61800000I-50000J0D01*
G01*
X80500000Y-61800000D01*
G75*
G02*
X80450000Y-61750000I0J50000D01*
G01*
X80450000Y-61200000D01*
G75*
G02*
X80500000Y-61150000I50000J0D01*
G01*
X81050000Y-61150000D01*
G75*
G02*
X81100000Y-61200000I0J-50000D01*
G01*
G37*
G36*
G01*
X82050000Y-61200000D02*
X82050000Y-61750000D01*
G75*
G02*
X82000000Y-61800000I-50000J0D01*
G01*
X81450000Y-61800000D01*
G75*
G02*
X81400000Y-61750000I0J50000D01*
G01*
X81400000Y-61200000D01*
G75*
G02*
X81450000Y-61150000I50000J0D01*
G01*
X82000000Y-61150000D01*
G75*
G02*
X82050000Y-61200000I0J-50000D01*
G01*
G37*
G36*
G01*
X75700000Y-42750000D02*
X75700000Y-42200000D01*
G75*
G02*
X75750000Y-42150000I50000J0D01*
G01*
X76300000Y-42150000D01*
G75*
G02*
X76350000Y-42200000I0J-50000D01*
G01*
X76350000Y-42750000D01*
G75*
G02*
X76300000Y-42800000I-50000J0D01*
G01*
X75750000Y-42800000D01*
G75*
G02*
X75700000Y-42750000I0J50000D01*
G01*
G37*
G36*
G01*
X76650000Y-42750000D02*
X76650000Y-42200000D01*
G75*
G02*
X76700000Y-42150000I50000J0D01*
G01*
X77250000Y-42150000D01*
G75*
G02*
X77300000Y-42200000I0J-50000D01*
G01*
X77300000Y-42750000D01*
G75*
G02*
X77250000Y-42800000I-50000J0D01*
G01*
X76700000Y-42800000D01*
G75*
G02*
X76650000Y-42750000I0J50000D01*
G01*
G37*
G36*
G01*
X76650000Y-43700000D02*
X76650000Y-43150000D01*
G75*
G02*
X76700000Y-43100000I50000J0D01*
G01*
X77250000Y-43100000D01*
G75*
G02*
X77300000Y-43150000I0J-50000D01*
G01*
X77300000Y-43700000D01*
G75*
G02*
X77250000Y-43750000I-50000J0D01*
G01*
X76700000Y-43750000D01*
G75*
G02*
X76650000Y-43700000I0J50000D01*
G01*
G37*
G36*
G01*
X75700000Y-43700000D02*
X75700000Y-43150000D01*
G75*
G02*
X75750000Y-43100000I50000J0D01*
G01*
X76300000Y-43100000D01*
G75*
G02*
X76350000Y-43150000I0J-50000D01*
G01*
X76350000Y-43700000D01*
G75*
G02*
X76300000Y-43750000I-50000J0D01*
G01*
X75750000Y-43750000D01*
G75*
G02*
X75700000Y-43700000I0J50000D01*
G01*
G37*
G36*
G01*
X67800000Y-24150000D02*
X67800000Y-24700000D01*
G75*
G02*
X67750000Y-24750000I-50000J0D01*
G01*
X67200000Y-24750000D01*
G75*
G02*
X67150000Y-24700000I0J50000D01*
G01*
X67150000Y-24150000D01*
G75*
G02*
X67200000Y-24100000I50000J0D01*
G01*
X67750000Y-24100000D01*
G75*
G02*
X67800000Y-24150000I0J-50000D01*
G01*
G37*
G36*
G01*
X66850000Y-24150000D02*
X66850000Y-24700000D01*
G75*
G02*
X66800000Y-24750000I-50000J0D01*
G01*
X66250000Y-24750000D01*
G75*
G02*
X66200000Y-24700000I0J50000D01*
G01*
X66200000Y-24150000D01*
G75*
G02*
X66250000Y-24100000I50000J0D01*
G01*
X66800000Y-24100000D01*
G75*
G02*
X66850000Y-24150000I0J-50000D01*
G01*
G37*
G36*
G01*
X66850000Y-23200000D02*
X66850000Y-23750000D01*
G75*
G02*
X66800000Y-23800000I-50000J0D01*
G01*
X66250000Y-23800000D01*
G75*
G02*
X66200000Y-23750000I0J50000D01*
G01*
X66200000Y-23200000D01*
G75*
G02*
X66250000Y-23150000I50000J0D01*
G01*
X66800000Y-23150000D01*
G75*
G02*
X66850000Y-23200000I0J-50000D01*
G01*
G37*
G36*
G01*
X67800000Y-23200000D02*
X67800000Y-23750000D01*
G75*
G02*
X67750000Y-23800000I-50000J0D01*
G01*
X67200000Y-23800000D01*
G75*
G02*
X67150000Y-23750000I0J50000D01*
G01*
X67150000Y-23200000D01*
G75*
G02*
X67200000Y-23150000I50000J0D01*
G01*
X67750000Y-23150000D01*
G75*
G02*
X67800000Y-23200000I0J-50000D01*
G01*
G37*
G36*
G01*
X66200000Y-4750000D02*
X66200000Y-4200000D01*
G75*
G02*
X66250000Y-4150000I50000J0D01*
G01*
X66800000Y-4150000D01*
G75*
G02*
X66850000Y-4200000I0J-50000D01*
G01*
X66850000Y-4750000D01*
G75*
G02*
X66800000Y-4800000I-50000J0D01*
G01*
X66250000Y-4800000D01*
G75*
G02*
X66200000Y-4750000I0J50000D01*
G01*
G37*
G36*
G01*
X67150000Y-4750000D02*
X67150000Y-4200000D01*
G75*
G02*
X67200000Y-4150000I50000J0D01*
G01*
X67750000Y-4150000D01*
G75*
G02*
X67800000Y-4200000I0J-50000D01*
G01*
X67800000Y-4750000D01*
G75*
G02*
X67750000Y-4800000I-50000J0D01*
G01*
X67200000Y-4800000D01*
G75*
G02*
X67150000Y-4750000I0J50000D01*
G01*
G37*
G36*
G01*
X67150000Y-5700000D02*
X67150000Y-5150000D01*
G75*
G02*
X67200000Y-5100000I50000J0D01*
G01*
X67750000Y-5100000D01*
G75*
G02*
X67800000Y-5150000I0J-50000D01*
G01*
X67800000Y-5700000D01*
G75*
G02*
X67750000Y-5750000I-50000J0D01*
G01*
X67200000Y-5750000D01*
G75*
G02*
X67150000Y-5700000I0J50000D01*
G01*
G37*
G36*
G01*
X66200000Y-5700000D02*
X66200000Y-5150000D01*
G75*
G02*
X66250000Y-5100000I50000J0D01*
G01*
X66800000Y-5100000D01*
G75*
G02*
X66850000Y-5150000I0J-50000D01*
G01*
X66850000Y-5700000D01*
G75*
G02*
X66800000Y-5750000I-50000J0D01*
G01*
X66250000Y-5750000D01*
G75*
G02*
X66200000Y-5700000I0J50000D01*
G01*
G37*
G36*
G01*
X61450000Y-99750000D02*
X61450000Y-99200000D01*
G75*
G02*
X61500000Y-99150000I50000J0D01*
G01*
X62050000Y-99150000D01*
G75*
G02*
X62100000Y-99200000I0J-50000D01*
G01*
X62100000Y-99750000D01*
G75*
G02*
X62050000Y-99800000I-50000J0D01*
G01*
X61500000Y-99800000D01*
G75*
G02*
X61450000Y-99750000I0J50000D01*
G01*
G37*
G36*
G01*
X62400000Y-99750000D02*
X62400000Y-99200000D01*
G75*
G02*
X62450000Y-99150000I50000J0D01*
G01*
X63000000Y-99150000D01*
G75*
G02*
X63050000Y-99200000I0J-50000D01*
G01*
X63050000Y-99750000D01*
G75*
G02*
X63000000Y-99800000I-50000J0D01*
G01*
X62450000Y-99800000D01*
G75*
G02*
X62400000Y-99750000I0J50000D01*
G01*
G37*
G36*
G01*
X62400000Y-100700000D02*
X62400000Y-100150000D01*
G75*
G02*
X62450000Y-100100000I50000J0D01*
G01*
X63000000Y-100100000D01*
G75*
G02*
X63050000Y-100150000I0J-50000D01*
G01*
X63050000Y-100700000D01*
G75*
G02*
X63000000Y-100750000I-50000J0D01*
G01*
X62450000Y-100750000D01*
G75*
G02*
X62400000Y-100700000I0J50000D01*
G01*
G37*
G36*
G01*
X61450000Y-100700000D02*
X61450000Y-100150000D01*
G75*
G02*
X61500000Y-100100000I50000J0D01*
G01*
X62050000Y-100100000D01*
G75*
G02*
X62100000Y-100150000I0J-50000D01*
G01*
X62100000Y-100700000D01*
G75*
G02*
X62050000Y-100750000I-50000J0D01*
G01*
X61500000Y-100750000D01*
G75*
G02*
X61450000Y-100700000I0J50000D01*
G01*
G37*
G36*
G01*
X72550000Y-81150000D02*
X72550000Y-81700000D01*
G75*
G02*
X72500000Y-81750000I-50000J0D01*
G01*
X71950000Y-81750000D01*
G75*
G02*
X71900000Y-81700000I0J50000D01*
G01*
X71900000Y-81150000D01*
G75*
G02*
X71950000Y-81100000I50000J0D01*
G01*
X72500000Y-81100000D01*
G75*
G02*
X72550000Y-81150000I0J-50000D01*
G01*
G37*
G36*
G01*
X71600000Y-81150000D02*
X71600000Y-81700000D01*
G75*
G02*
X71550000Y-81750000I-50000J0D01*
G01*
X71000000Y-81750000D01*
G75*
G02*
X70950000Y-81700000I0J50000D01*
G01*
X70950000Y-81150000D01*
G75*
G02*
X71000000Y-81100000I50000J0D01*
G01*
X71550000Y-81100000D01*
G75*
G02*
X71600000Y-81150000I0J-50000D01*
G01*
G37*
G36*
G01*
X71600000Y-80200000D02*
X71600000Y-80750000D01*
G75*
G02*
X71550000Y-80800000I-50000J0D01*
G01*
X71000000Y-80800000D01*
G75*
G02*
X70950000Y-80750000I0J50000D01*
G01*
X70950000Y-80200000D01*
G75*
G02*
X71000000Y-80150000I50000J0D01*
G01*
X71550000Y-80150000D01*
G75*
G02*
X71600000Y-80200000I0J-50000D01*
G01*
G37*
G36*
G01*
X72550000Y-80200000D02*
X72550000Y-80750000D01*
G75*
G02*
X72500000Y-80800000I-50000J0D01*
G01*
X71950000Y-80800000D01*
G75*
G02*
X71900000Y-80750000I0J50000D01*
G01*
X71900000Y-80200000D01*
G75*
G02*
X71950000Y-80150000I50000J0D01*
G01*
X72500000Y-80150000D01*
G75*
G02*
X72550000Y-80200000I0J-50000D01*
G01*
G37*
G36*
G01*
X63050000Y-62150000D02*
X63050000Y-62700000D01*
G75*
G02*
X63000000Y-62750000I-50000J0D01*
G01*
X62450000Y-62750000D01*
G75*
G02*
X62400000Y-62700000I0J50000D01*
G01*
X62400000Y-62150000D01*
G75*
G02*
X62450000Y-62100000I50000J0D01*
G01*
X63000000Y-62100000D01*
G75*
G02*
X63050000Y-62150000I0J-50000D01*
G01*
G37*
G36*
G01*
X62100000Y-62150000D02*
X62100000Y-62700000D01*
G75*
G02*
X62050000Y-62750000I-50000J0D01*
G01*
X61500000Y-62750000D01*
G75*
G02*
X61450000Y-62700000I0J50000D01*
G01*
X61450000Y-62150000D01*
G75*
G02*
X61500000Y-62100000I50000J0D01*
G01*
X62050000Y-62100000D01*
G75*
G02*
X62100000Y-62150000I0J-50000D01*
G01*
G37*
G36*
G01*
X62100000Y-61200000D02*
X62100000Y-61750000D01*
G75*
G02*
X62050000Y-61800000I-50000J0D01*
G01*
X61500000Y-61800000D01*
G75*
G02*
X61450000Y-61750000I0J50000D01*
G01*
X61450000Y-61200000D01*
G75*
G02*
X61500000Y-61150000I50000J0D01*
G01*
X62050000Y-61150000D01*
G75*
G02*
X62100000Y-61200000I0J-50000D01*
G01*
G37*
G36*
G01*
X63050000Y-61200000D02*
X63050000Y-61750000D01*
G75*
G02*
X63000000Y-61800000I-50000J0D01*
G01*
X62450000Y-61800000D01*
G75*
G02*
X62400000Y-61750000I0J50000D01*
G01*
X62400000Y-61200000D01*
G75*
G02*
X62450000Y-61150000I50000J0D01*
G01*
X63000000Y-61150000D01*
G75*
G02*
X63050000Y-61200000I0J-50000D01*
G01*
G37*
G36*
G01*
X56700000Y-42750000D02*
X56700000Y-42200000D01*
G75*
G02*
X56750000Y-42150000I50000J0D01*
G01*
X57300000Y-42150000D01*
G75*
G02*
X57350000Y-42200000I0J-50000D01*
G01*
X57350000Y-42750000D01*
G75*
G02*
X57300000Y-42800000I-50000J0D01*
G01*
X56750000Y-42800000D01*
G75*
G02*
X56700000Y-42750000I0J50000D01*
G01*
G37*
G36*
G01*
X57650000Y-42750000D02*
X57650000Y-42200000D01*
G75*
G02*
X57700000Y-42150000I50000J0D01*
G01*
X58250000Y-42150000D01*
G75*
G02*
X58300000Y-42200000I0J-50000D01*
G01*
X58300000Y-42750000D01*
G75*
G02*
X58250000Y-42800000I-50000J0D01*
G01*
X57700000Y-42800000D01*
G75*
G02*
X57650000Y-42750000I0J50000D01*
G01*
G37*
G36*
G01*
X57650000Y-43700000D02*
X57650000Y-43150000D01*
G75*
G02*
X57700000Y-43100000I50000J0D01*
G01*
X58250000Y-43100000D01*
G75*
G02*
X58300000Y-43150000I0J-50000D01*
G01*
X58300000Y-43700000D01*
G75*
G02*
X58250000Y-43750000I-50000J0D01*
G01*
X57700000Y-43750000D01*
G75*
G02*
X57650000Y-43700000I0J50000D01*
G01*
G37*
G36*
G01*
X56700000Y-43700000D02*
X56700000Y-43150000D01*
G75*
G02*
X56750000Y-43100000I50000J0D01*
G01*
X57300000Y-43100000D01*
G75*
G02*
X57350000Y-43150000I0J-50000D01*
G01*
X57350000Y-43700000D01*
G75*
G02*
X57300000Y-43750000I-50000J0D01*
G01*
X56750000Y-43750000D01*
G75*
G02*
X56700000Y-43700000I0J50000D01*
G01*
G37*
G36*
G01*
X48800000Y-24150000D02*
X48800000Y-24700000D01*
G75*
G02*
X48750000Y-24750000I-50000J0D01*
G01*
X48200000Y-24750000D01*
G75*
G02*
X48150000Y-24700000I0J50000D01*
G01*
X48150000Y-24150000D01*
G75*
G02*
X48200000Y-24100000I50000J0D01*
G01*
X48750000Y-24100000D01*
G75*
G02*
X48800000Y-24150000I0J-50000D01*
G01*
G37*
G36*
G01*
X47850000Y-24150000D02*
X47850000Y-24700000D01*
G75*
G02*
X47800000Y-24750000I-50000J0D01*
G01*
X47250000Y-24750000D01*
G75*
G02*
X47200000Y-24700000I0J50000D01*
G01*
X47200000Y-24150000D01*
G75*
G02*
X47250000Y-24100000I50000J0D01*
G01*
X47800000Y-24100000D01*
G75*
G02*
X47850000Y-24150000I0J-50000D01*
G01*
G37*
G36*
G01*
X47850000Y-23200000D02*
X47850000Y-23750000D01*
G75*
G02*
X47800000Y-23800000I-50000J0D01*
G01*
X47250000Y-23800000D01*
G75*
G02*
X47200000Y-23750000I0J50000D01*
G01*
X47200000Y-23200000D01*
G75*
G02*
X47250000Y-23150000I50000J0D01*
G01*
X47800000Y-23150000D01*
G75*
G02*
X47850000Y-23200000I0J-50000D01*
G01*
G37*
G36*
G01*
X48800000Y-23200000D02*
X48800000Y-23750000D01*
G75*
G02*
X48750000Y-23800000I-50000J0D01*
G01*
X48200000Y-23800000D01*
G75*
G02*
X48150000Y-23750000I0J50000D01*
G01*
X48150000Y-23200000D01*
G75*
G02*
X48200000Y-23150000I50000J0D01*
G01*
X48750000Y-23150000D01*
G75*
G02*
X48800000Y-23200000I0J-50000D01*
G01*
G37*
G36*
G01*
X47200000Y-4750000D02*
X47200000Y-4200000D01*
G75*
G02*
X47250000Y-4150000I50000J0D01*
G01*
X47800000Y-4150000D01*
G75*
G02*
X47850000Y-4200000I0J-50000D01*
G01*
X47850000Y-4750000D01*
G75*
G02*
X47800000Y-4800000I-50000J0D01*
G01*
X47250000Y-4800000D01*
G75*
G02*
X47200000Y-4750000I0J50000D01*
G01*
G37*
G36*
G01*
X48150000Y-4750000D02*
X48150000Y-4200000D01*
G75*
G02*
X48200000Y-4150000I50000J0D01*
G01*
X48750000Y-4150000D01*
G75*
G02*
X48800000Y-4200000I0J-50000D01*
G01*
X48800000Y-4750000D01*
G75*
G02*
X48750000Y-4800000I-50000J0D01*
G01*
X48200000Y-4800000D01*
G75*
G02*
X48150000Y-4750000I0J50000D01*
G01*
G37*
G36*
G01*
X48150000Y-5700000D02*
X48150000Y-5150000D01*
G75*
G02*
X48200000Y-5100000I50000J0D01*
G01*
X48750000Y-5100000D01*
G75*
G02*
X48800000Y-5150000I0J-50000D01*
G01*
X48800000Y-5700000D01*
G75*
G02*
X48750000Y-5750000I-50000J0D01*
G01*
X48200000Y-5750000D01*
G75*
G02*
X48150000Y-5700000I0J50000D01*
G01*
G37*
G36*
G01*
X47200000Y-5700000D02*
X47200000Y-5150000D01*
G75*
G02*
X47250000Y-5100000I50000J0D01*
G01*
X47800000Y-5100000D01*
G75*
G02*
X47850000Y-5150000I0J-50000D01*
G01*
X47850000Y-5700000D01*
G75*
G02*
X47800000Y-5750000I-50000J0D01*
G01*
X47250000Y-5750000D01*
G75*
G02*
X47200000Y-5700000I0J50000D01*
G01*
G37*
G36*
G01*
X42450000Y-99750000D02*
X42450000Y-99200000D01*
G75*
G02*
X42500000Y-99150000I50000J0D01*
G01*
X43050000Y-99150000D01*
G75*
G02*
X43100000Y-99200000I0J-50000D01*
G01*
X43100000Y-99750000D01*
G75*
G02*
X43050000Y-99800000I-50000J0D01*
G01*
X42500000Y-99800000D01*
G75*
G02*
X42450000Y-99750000I0J50000D01*
G01*
G37*
G36*
G01*
X43400000Y-99750000D02*
X43400000Y-99200000D01*
G75*
G02*
X43450000Y-99150000I50000J0D01*
G01*
X44000000Y-99150000D01*
G75*
G02*
X44050000Y-99200000I0J-50000D01*
G01*
X44050000Y-99750000D01*
G75*
G02*
X44000000Y-99800000I-50000J0D01*
G01*
X43450000Y-99800000D01*
G75*
G02*
X43400000Y-99750000I0J50000D01*
G01*
G37*
G36*
G01*
X43400000Y-100700000D02*
X43400000Y-100150000D01*
G75*
G02*
X43450000Y-100100000I50000J0D01*
G01*
X44000000Y-100100000D01*
G75*
G02*
X44050000Y-100150000I0J-50000D01*
G01*
X44050000Y-100700000D01*
G75*
G02*
X44000000Y-100750000I-50000J0D01*
G01*
X43450000Y-100750000D01*
G75*
G02*
X43400000Y-100700000I0J50000D01*
G01*
G37*
G36*
G01*
X42450000Y-100700000D02*
X42450000Y-100150000D01*
G75*
G02*
X42500000Y-100100000I50000J0D01*
G01*
X43050000Y-100100000D01*
G75*
G02*
X43100000Y-100150000I0J-50000D01*
G01*
X43100000Y-100700000D01*
G75*
G02*
X43050000Y-100750000I-50000J0D01*
G01*
X42500000Y-100750000D01*
G75*
G02*
X42450000Y-100700000I0J50000D01*
G01*
G37*
G36*
G01*
X53550000Y-81150000D02*
X53550000Y-81700000D01*
G75*
G02*
X53500000Y-81750000I-50000J0D01*
G01*
X52950000Y-81750000D01*
G75*
G02*
X52900000Y-81700000I0J50000D01*
G01*
X52900000Y-81150000D01*
G75*
G02*
X52950000Y-81100000I50000J0D01*
G01*
X53500000Y-81100000D01*
G75*
G02*
X53550000Y-81150000I0J-50000D01*
G01*
G37*
G36*
G01*
X52600000Y-81150000D02*
X52600000Y-81700000D01*
G75*
G02*
X52550000Y-81750000I-50000J0D01*
G01*
X52000000Y-81750000D01*
G75*
G02*
X51950000Y-81700000I0J50000D01*
G01*
X51950000Y-81150000D01*
G75*
G02*
X52000000Y-81100000I50000J0D01*
G01*
X52550000Y-81100000D01*
G75*
G02*
X52600000Y-81150000I0J-50000D01*
G01*
G37*
G36*
G01*
X52600000Y-80200000D02*
X52600000Y-80750000D01*
G75*
G02*
X52550000Y-80800000I-50000J0D01*
G01*
X52000000Y-80800000D01*
G75*
G02*
X51950000Y-80750000I0J50000D01*
G01*
X51950000Y-80200000D01*
G75*
G02*
X52000000Y-80150000I50000J0D01*
G01*
X52550000Y-80150000D01*
G75*
G02*
X52600000Y-80200000I0J-50000D01*
G01*
G37*
G36*
G01*
X53550000Y-80200000D02*
X53550000Y-80750000D01*
G75*
G02*
X53500000Y-80800000I-50000J0D01*
G01*
X52950000Y-80800000D01*
G75*
G02*
X52900000Y-80750000I0J50000D01*
G01*
X52900000Y-80200000D01*
G75*
G02*
X52950000Y-80150000I50000J0D01*
G01*
X53500000Y-80150000D01*
G75*
G02*
X53550000Y-80200000I0J-50000D01*
G01*
G37*
G36*
G01*
X44050000Y-62150000D02*
X44050000Y-62700000D01*
G75*
G02*
X44000000Y-62750000I-50000J0D01*
G01*
X43450000Y-62750000D01*
G75*
G02*
X43400000Y-62700000I0J50000D01*
G01*
X43400000Y-62150000D01*
G75*
G02*
X43450000Y-62100000I50000J0D01*
G01*
X44000000Y-62100000D01*
G75*
G02*
X44050000Y-62150000I0J-50000D01*
G01*
G37*
G36*
G01*
X43100000Y-62150000D02*
X43100000Y-62700000D01*
G75*
G02*
X43050000Y-62750000I-50000J0D01*
G01*
X42500000Y-62750000D01*
G75*
G02*
X42450000Y-62700000I0J50000D01*
G01*
X42450000Y-62150000D01*
G75*
G02*
X42500000Y-62100000I50000J0D01*
G01*
X43050000Y-62100000D01*
G75*
G02*
X43100000Y-62150000I0J-50000D01*
G01*
G37*
G36*
G01*
X43100000Y-61200000D02*
X43100000Y-61750000D01*
G75*
G02*
X43050000Y-61800000I-50000J0D01*
G01*
X42500000Y-61800000D01*
G75*
G02*
X42450000Y-61750000I0J50000D01*
G01*
X42450000Y-61200000D01*
G75*
G02*
X42500000Y-61150000I50000J0D01*
G01*
X43050000Y-61150000D01*
G75*
G02*
X43100000Y-61200000I0J-50000D01*
G01*
G37*
G36*
G01*
X44050000Y-61200000D02*
X44050000Y-61750000D01*
G75*
G02*
X44000000Y-61800000I-50000J0D01*
G01*
X43450000Y-61800000D01*
G75*
G02*
X43400000Y-61750000I0J50000D01*
G01*
X43400000Y-61200000D01*
G75*
G02*
X43450000Y-61150000I50000J0D01*
G01*
X44000000Y-61150000D01*
G75*
G02*
X44050000Y-61200000I0J-50000D01*
G01*
G37*
G36*
G01*
X37700000Y-42750000D02*
X37700000Y-42200000D01*
G75*
G02*
X37750000Y-42150000I50000J0D01*
G01*
X38300000Y-42150000D01*
G75*
G02*
X38350000Y-42200000I0J-50000D01*
G01*
X38350000Y-42750000D01*
G75*
G02*
X38300000Y-42800000I-50000J0D01*
G01*
X37750000Y-42800000D01*
G75*
G02*
X37700000Y-42750000I0J50000D01*
G01*
G37*
G36*
G01*
X38650000Y-42750000D02*
X38650000Y-42200000D01*
G75*
G02*
X38700000Y-42150000I50000J0D01*
G01*
X39250000Y-42150000D01*
G75*
G02*
X39300000Y-42200000I0J-50000D01*
G01*
X39300000Y-42750000D01*
G75*
G02*
X39250000Y-42800000I-50000J0D01*
G01*
X38700000Y-42800000D01*
G75*
G02*
X38650000Y-42750000I0J50000D01*
G01*
G37*
G36*
G01*
X38650000Y-43700000D02*
X38650000Y-43150000D01*
G75*
G02*
X38700000Y-43100000I50000J0D01*
G01*
X39250000Y-43100000D01*
G75*
G02*
X39300000Y-43150000I0J-50000D01*
G01*
X39300000Y-43700000D01*
G75*
G02*
X39250000Y-43750000I-50000J0D01*
G01*
X38700000Y-43750000D01*
G75*
G02*
X38650000Y-43700000I0J50000D01*
G01*
G37*
G36*
G01*
X37700000Y-43700000D02*
X37700000Y-43150000D01*
G75*
G02*
X37750000Y-43100000I50000J0D01*
G01*
X38300000Y-43100000D01*
G75*
G02*
X38350000Y-43150000I0J-50000D01*
G01*
X38350000Y-43700000D01*
G75*
G02*
X38300000Y-43750000I-50000J0D01*
G01*
X37750000Y-43750000D01*
G75*
G02*
X37700000Y-43700000I0J50000D01*
G01*
G37*
G36*
G01*
X29800000Y-24150000D02*
X29800000Y-24700000D01*
G75*
G02*
X29750000Y-24750000I-50000J0D01*
G01*
X29200000Y-24750000D01*
G75*
G02*
X29150000Y-24700000I0J50000D01*
G01*
X29150000Y-24150000D01*
G75*
G02*
X29200000Y-24100000I50000J0D01*
G01*
X29750000Y-24100000D01*
G75*
G02*
X29800000Y-24150000I0J-50000D01*
G01*
G37*
G36*
G01*
X28850000Y-24150000D02*
X28850000Y-24700000D01*
G75*
G02*
X28800000Y-24750000I-50000J0D01*
G01*
X28250000Y-24750000D01*
G75*
G02*
X28200000Y-24700000I0J50000D01*
G01*
X28200000Y-24150000D01*
G75*
G02*
X28250000Y-24100000I50000J0D01*
G01*
X28800000Y-24100000D01*
G75*
G02*
X28850000Y-24150000I0J-50000D01*
G01*
G37*
G36*
G01*
X28850000Y-23200000D02*
X28850000Y-23750000D01*
G75*
G02*
X28800000Y-23800000I-50000J0D01*
G01*
X28250000Y-23800000D01*
G75*
G02*
X28200000Y-23750000I0J50000D01*
G01*
X28200000Y-23200000D01*
G75*
G02*
X28250000Y-23150000I50000J0D01*
G01*
X28800000Y-23150000D01*
G75*
G02*
X28850000Y-23200000I0J-50000D01*
G01*
G37*
G36*
G01*
X29800000Y-23200000D02*
X29800000Y-23750000D01*
G75*
G02*
X29750000Y-23800000I-50000J0D01*
G01*
X29200000Y-23800000D01*
G75*
G02*
X29150000Y-23750000I0J50000D01*
G01*
X29150000Y-23200000D01*
G75*
G02*
X29200000Y-23150000I50000J0D01*
G01*
X29750000Y-23150000D01*
G75*
G02*
X29800000Y-23200000I0J-50000D01*
G01*
G37*
G36*
G01*
X28200000Y-4750000D02*
X28200000Y-4200000D01*
G75*
G02*
X28250000Y-4150000I50000J0D01*
G01*
X28800000Y-4150000D01*
G75*
G02*
X28850000Y-4200000I0J-50000D01*
G01*
X28850000Y-4750000D01*
G75*
G02*
X28800000Y-4800000I-50000J0D01*
G01*
X28250000Y-4800000D01*
G75*
G02*
X28200000Y-4750000I0J50000D01*
G01*
G37*
G36*
G01*
X29150000Y-4750000D02*
X29150000Y-4200000D01*
G75*
G02*
X29200000Y-4150000I50000J0D01*
G01*
X29750000Y-4150000D01*
G75*
G02*
X29800000Y-4200000I0J-50000D01*
G01*
X29800000Y-4750000D01*
G75*
G02*
X29750000Y-4800000I-50000J0D01*
G01*
X29200000Y-4800000D01*
G75*
G02*
X29150000Y-4750000I0J50000D01*
G01*
G37*
G36*
G01*
X29150000Y-5700000D02*
X29150000Y-5150000D01*
G75*
G02*
X29200000Y-5100000I50000J0D01*
G01*
X29750000Y-5100000D01*
G75*
G02*
X29800000Y-5150000I0J-50000D01*
G01*
X29800000Y-5700000D01*
G75*
G02*
X29750000Y-5750000I-50000J0D01*
G01*
X29200000Y-5750000D01*
G75*
G02*
X29150000Y-5700000I0J50000D01*
G01*
G37*
G36*
G01*
X28200000Y-5700000D02*
X28200000Y-5150000D01*
G75*
G02*
X28250000Y-5100000I50000J0D01*
G01*
X28800000Y-5100000D01*
G75*
G02*
X28850000Y-5150000I0J-50000D01*
G01*
X28850000Y-5700000D01*
G75*
G02*
X28800000Y-5750000I-50000J0D01*
G01*
X28250000Y-5750000D01*
G75*
G02*
X28200000Y-5700000I0J50000D01*
G01*
G37*
G36*
G01*
X18700000Y-99750000D02*
X18700000Y-99200000D01*
G75*
G02*
X18750000Y-99150000I50000J0D01*
G01*
X19300000Y-99150000D01*
G75*
G02*
X19350000Y-99200000I0J-50000D01*
G01*
X19350000Y-99750000D01*
G75*
G02*
X19300000Y-99800000I-50000J0D01*
G01*
X18750000Y-99800000D01*
G75*
G02*
X18700000Y-99750000I0J50000D01*
G01*
G37*
G36*
G01*
X19650000Y-99750000D02*
X19650000Y-99200000D01*
G75*
G02*
X19700000Y-99150000I50000J0D01*
G01*
X20250000Y-99150000D01*
G75*
G02*
X20300000Y-99200000I0J-50000D01*
G01*
X20300000Y-99750000D01*
G75*
G02*
X20250000Y-99800000I-50000J0D01*
G01*
X19700000Y-99800000D01*
G75*
G02*
X19650000Y-99750000I0J50000D01*
G01*
G37*
G36*
G01*
X19650000Y-100700000D02*
X19650000Y-100150000D01*
G75*
G02*
X19700000Y-100100000I50000J0D01*
G01*
X20250000Y-100100000D01*
G75*
G02*
X20300000Y-100150000I0J-50000D01*
G01*
X20300000Y-100700000D01*
G75*
G02*
X20250000Y-100750000I-50000J0D01*
G01*
X19700000Y-100750000D01*
G75*
G02*
X19650000Y-100700000I0J50000D01*
G01*
G37*
G36*
G01*
X18700000Y-100700000D02*
X18700000Y-100150000D01*
G75*
G02*
X18750000Y-100100000I50000J0D01*
G01*
X19300000Y-100100000D01*
G75*
G02*
X19350000Y-100150000I0J-50000D01*
G01*
X19350000Y-100700000D01*
G75*
G02*
X19300000Y-100750000I-50000J0D01*
G01*
X18750000Y-100750000D01*
G75*
G02*
X18700000Y-100700000I0J50000D01*
G01*
G37*
G36*
G01*
X25050000Y-81150000D02*
X25050000Y-81700000D01*
G75*
G02*
X25000000Y-81750000I-50000J0D01*
G01*
X24450000Y-81750000D01*
G75*
G02*
X24400000Y-81700000I0J50000D01*
G01*
X24400000Y-81150000D01*
G75*
G02*
X24450000Y-81100000I50000J0D01*
G01*
X25000000Y-81100000D01*
G75*
G02*
X25050000Y-81150000I0J-50000D01*
G01*
G37*
G36*
G01*
X24100000Y-81150000D02*
X24100000Y-81700000D01*
G75*
G02*
X24050000Y-81750000I-50000J0D01*
G01*
X23500000Y-81750000D01*
G75*
G02*
X23450000Y-81700000I0J50000D01*
G01*
X23450000Y-81150000D01*
G75*
G02*
X23500000Y-81100000I50000J0D01*
G01*
X24050000Y-81100000D01*
G75*
G02*
X24100000Y-81150000I0J-50000D01*
G01*
G37*
G36*
G01*
X24100000Y-80200000D02*
X24100000Y-80750000D01*
G75*
G02*
X24050000Y-80800000I-50000J0D01*
G01*
X23500000Y-80800000D01*
G75*
G02*
X23450000Y-80750000I0J50000D01*
G01*
X23450000Y-80200000D01*
G75*
G02*
X23500000Y-80150000I50000J0D01*
G01*
X24050000Y-80150000D01*
G75*
G02*
X24100000Y-80200000I0J-50000D01*
G01*
G37*
G36*
G01*
X25050000Y-80200000D02*
X25050000Y-80750000D01*
G75*
G02*
X25000000Y-80800000I-50000J0D01*
G01*
X24450000Y-80800000D01*
G75*
G02*
X24400000Y-80750000I0J50000D01*
G01*
X24400000Y-80200000D01*
G75*
G02*
X24450000Y-80150000I50000J0D01*
G01*
X25000000Y-80150000D01*
G75*
G02*
X25050000Y-80200000I0J-50000D01*
G01*
G37*
G36*
G01*
X20300000Y-62150000D02*
X20300000Y-62700000D01*
G75*
G02*
X20250000Y-62750000I-50000J0D01*
G01*
X19700000Y-62750000D01*
G75*
G02*
X19650000Y-62700000I0J50000D01*
G01*
X19650000Y-62150000D01*
G75*
G02*
X19700000Y-62100000I50000J0D01*
G01*
X20250000Y-62100000D01*
G75*
G02*
X20300000Y-62150000I0J-50000D01*
G01*
G37*
G36*
G01*
X19350000Y-62150000D02*
X19350000Y-62700000D01*
G75*
G02*
X19300000Y-62750000I-50000J0D01*
G01*
X18750000Y-62750000D01*
G75*
G02*
X18700000Y-62700000I0J50000D01*
G01*
X18700000Y-62150000D01*
G75*
G02*
X18750000Y-62100000I50000J0D01*
G01*
X19300000Y-62100000D01*
G75*
G02*
X19350000Y-62150000I0J-50000D01*
G01*
G37*
G36*
G01*
X19350000Y-61200000D02*
X19350000Y-61750000D01*
G75*
G02*
X19300000Y-61800000I-50000J0D01*
G01*
X18750000Y-61800000D01*
G75*
G02*
X18700000Y-61750000I0J50000D01*
G01*
X18700000Y-61200000D01*
G75*
G02*
X18750000Y-61150000I50000J0D01*
G01*
X19300000Y-61150000D01*
G75*
G02*
X19350000Y-61200000I0J-50000D01*
G01*
G37*
G36*
G01*
X20300000Y-61200000D02*
X20300000Y-61750000D01*
G75*
G02*
X20250000Y-61800000I-50000J0D01*
G01*
X19700000Y-61800000D01*
G75*
G02*
X19650000Y-61750000I0J50000D01*
G01*
X19650000Y-61200000D01*
G75*
G02*
X19700000Y-61150000I50000J0D01*
G01*
X20250000Y-61150000D01*
G75*
G02*
X20300000Y-61200000I0J-50000D01*
G01*
G37*
G36*
G01*
X13950000Y-42750000D02*
X13950000Y-42200000D01*
G75*
G02*
X14000000Y-42150000I50000J0D01*
G01*
X14550000Y-42150000D01*
G75*
G02*
X14600000Y-42200000I0J-50000D01*
G01*
X14600000Y-42750000D01*
G75*
G02*
X14550000Y-42800000I-50000J0D01*
G01*
X14000000Y-42800000D01*
G75*
G02*
X13950000Y-42750000I0J50000D01*
G01*
G37*
G36*
G01*
X14900000Y-42750000D02*
X14900000Y-42200000D01*
G75*
G02*
X14950000Y-42150000I50000J0D01*
G01*
X15500000Y-42150000D01*
G75*
G02*
X15550000Y-42200000I0J-50000D01*
G01*
X15550000Y-42750000D01*
G75*
G02*
X15500000Y-42800000I-50000J0D01*
G01*
X14950000Y-42800000D01*
G75*
G02*
X14900000Y-42750000I0J50000D01*
G01*
G37*
G36*
G01*
X14900000Y-43700000D02*
X14900000Y-43150000D01*
G75*
G02*
X14950000Y-43100000I50000J0D01*
G01*
X15500000Y-43100000D01*
G75*
G02*
X15550000Y-43150000I0J-50000D01*
G01*
X15550000Y-43700000D01*
G75*
G02*
X15500000Y-43750000I-50000J0D01*
G01*
X14950000Y-43750000D01*
G75*
G02*
X14900000Y-43700000I0J50000D01*
G01*
G37*
G36*
G01*
X13950000Y-43700000D02*
X13950000Y-43150000D01*
G75*
G02*
X14000000Y-43100000I50000J0D01*
G01*
X14550000Y-43100000D01*
G75*
G02*
X14600000Y-43150000I0J-50000D01*
G01*
X14600000Y-43700000D01*
G75*
G02*
X14550000Y-43750000I-50000J0D01*
G01*
X14000000Y-43750000D01*
G75*
G02*
X13950000Y-43700000I0J50000D01*
G01*
G37*
G36*
G01*
X10800000Y-24150000D02*
X10800000Y-24700000D01*
G75*
G02*
X10750000Y-24750000I-50000J0D01*
G01*
X10200000Y-24750000D01*
G75*
G02*
X10150000Y-24700000I0J50000D01*
G01*
X10150000Y-24150000D01*
G75*
G02*
X10200000Y-24100000I50000J0D01*
G01*
X10750000Y-24100000D01*
G75*
G02*
X10800000Y-24150000I0J-50000D01*
G01*
G37*
G36*
G01*
X9850000Y-24150000D02*
X9850000Y-24700000D01*
G75*
G02*
X9800000Y-24750000I-50000J0D01*
G01*
X9250000Y-24750000D01*
G75*
G02*
X9200000Y-24700000I0J50000D01*
G01*
X9200000Y-24150000D01*
G75*
G02*
X9250000Y-24100000I50000J0D01*
G01*
X9800000Y-24100000D01*
G75*
G02*
X9850000Y-24150000I0J-50000D01*
G01*
G37*
G36*
G01*
X9850000Y-23200000D02*
X9850000Y-23750000D01*
G75*
G02*
X9800000Y-23800000I-50000J0D01*
G01*
X9250000Y-23800000D01*
G75*
G02*
X9200000Y-23750000I0J50000D01*
G01*
X9200000Y-23200000D01*
G75*
G02*
X9250000Y-23150000I50000J0D01*
G01*
X9800000Y-23150000D01*
G75*
G02*
X9850000Y-23200000I0J-50000D01*
G01*
G37*
G36*
G01*
X10800000Y-23200000D02*
X10800000Y-23750000D01*
G75*
G02*
X10750000Y-23800000I-50000J0D01*
G01*
X10200000Y-23800000D01*
G75*
G02*
X10150000Y-23750000I0J50000D01*
G01*
X10150000Y-23200000D01*
G75*
G02*
X10200000Y-23150000I50000J0D01*
G01*
X10750000Y-23150000D01*
G75*
G02*
X10800000Y-23200000I0J-50000D01*
G01*
G37*
G36*
G01*
X9200000Y-4750000D02*
X9200000Y-4200000D01*
G75*
G02*
X9250000Y-4150000I50000J0D01*
G01*
X9800000Y-4150000D01*
G75*
G02*
X9850000Y-4200000I0J-50000D01*
G01*
X9850000Y-4750000D01*
G75*
G02*
X9800000Y-4800000I-50000J0D01*
G01*
X9250000Y-4800000D01*
G75*
G02*
X9200000Y-4750000I0J50000D01*
G01*
G37*
G36*
G01*
X10150000Y-4750000D02*
X10150000Y-4200000D01*
G75*
G02*
X10200000Y-4150000I50000J0D01*
G01*
X10750000Y-4150000D01*
G75*
G02*
X10800000Y-4200000I0J-50000D01*
G01*
X10800000Y-4750000D01*
G75*
G02*
X10750000Y-4800000I-50000J0D01*
G01*
X10200000Y-4800000D01*
G75*
G02*
X10150000Y-4750000I0J50000D01*
G01*
G37*
G36*
G01*
X10150000Y-5700000D02*
X10150000Y-5150000D01*
G75*
G02*
X10200000Y-5100000I50000J0D01*
G01*
X10750000Y-5100000D01*
G75*
G02*
X10800000Y-5150000I0J-50000D01*
G01*
X10800000Y-5700000D01*
G75*
G02*
X10750000Y-5750000I-50000J0D01*
G01*
X10200000Y-5750000D01*
G75*
G02*
X10150000Y-5700000I0J50000D01*
G01*
G37*
G36*
G01*
X9200000Y-5700000D02*
X9200000Y-5150000D01*
G75*
G02*
X9250000Y-5100000I50000J0D01*
G01*
X9800000Y-5100000D01*
G75*
G02*
X9850000Y-5150000I0J-50000D01*
G01*
X9850000Y-5700000D01*
G75*
G02*
X9800000Y-5750000I-50000J0D01*
G01*
X9250000Y-5750000D01*
G75*
G02*
X9200000Y-5700000I0J50000D01*
G01*
G37*
G36*
G01*
X272050000Y-81150000D02*
X272050000Y-81700000D01*
G75*
G02*
X272000000Y-81750000I-50000J0D01*
G01*
X271450000Y-81750000D01*
G75*
G02*
X271400000Y-81700000I0J50000D01*
G01*
X271400000Y-81150000D01*
G75*
G02*
X271450000Y-81100000I50000J0D01*
G01*
X272000000Y-81100000D01*
G75*
G02*
X272050000Y-81150000I0J-50000D01*
G01*
G37*
G36*
G01*
X271100000Y-81150000D02*
X271100000Y-81700000D01*
G75*
G02*
X271050000Y-81750000I-50000J0D01*
G01*
X270500000Y-81750000D01*
G75*
G02*
X270450000Y-81700000I0J50000D01*
G01*
X270450000Y-81150000D01*
G75*
G02*
X270500000Y-81100000I50000J0D01*
G01*
X271050000Y-81100000D01*
G75*
G02*
X271100000Y-81150000I0J-50000D01*
G01*
G37*
G36*
G01*
X271100000Y-80200000D02*
X271100000Y-80750000D01*
G75*
G02*
X271050000Y-80800000I-50000J0D01*
G01*
X270500000Y-80800000D01*
G75*
G02*
X270450000Y-80750000I0J50000D01*
G01*
X270450000Y-80200000D01*
G75*
G02*
X270500000Y-80150000I50000J0D01*
G01*
X271050000Y-80150000D01*
G75*
G02*
X271100000Y-80200000I0J-50000D01*
G01*
G37*
G36*
G01*
X272050000Y-80200000D02*
X272050000Y-80750000D01*
G75*
G02*
X272000000Y-80800000I-50000J0D01*
G01*
X271450000Y-80800000D01*
G75*
G02*
X271400000Y-80750000I0J50000D01*
G01*
X271400000Y-80200000D01*
G75*
G02*
X271450000Y-80150000I50000J0D01*
G01*
X272000000Y-80150000D01*
G75*
G02*
X272050000Y-80200000I0J-50000D01*
G01*
G37*
D14*
X178460000Y-34080000D03*
X184810000Y-31540000D03*
D15*
X181000000Y-29000000D03*
D16*
X175920000Y-29000000D03*
X186080000Y-29000000D03*
D14*
X173710000Y-72080000D03*
X180060000Y-69540000D03*
D15*
X176250000Y-67000000D03*
D16*
X171170000Y-67000000D03*
X181330000Y-67000000D03*
D14*
X159460000Y-34080000D03*
X165810000Y-31540000D03*
D15*
X162000000Y-29000000D03*
D16*
X156920000Y-29000000D03*
X167080000Y-29000000D03*
D14*
X26460000Y-34080000D03*
X32810000Y-31540000D03*
D15*
X29000000Y-29000000D03*
D16*
X23920000Y-29000000D03*
X34080000Y-29000000D03*
D14*
X216460000Y-15080000D03*
X222810000Y-12540000D03*
D15*
X219000000Y-10000000D03*
D16*
X213920000Y-10000000D03*
X224080000Y-10000000D03*
D14*
X7460000Y-15080000D03*
X13810000Y-12540000D03*
D15*
X10000000Y-10000000D03*
D16*
X4920000Y-10000000D03*
X15080000Y-10000000D03*
D14*
X50210000Y-91080000D03*
X56560000Y-88540000D03*
D15*
X52750000Y-86000000D03*
D16*
X47670000Y-86000000D03*
X57830000Y-86000000D03*
D14*
X263960000Y-53080000D03*
X270310000Y-50540000D03*
D15*
X266500000Y-48000000D03*
D16*
X261420000Y-48000000D03*
X271580000Y-48000000D03*
D14*
X64460000Y-15080000D03*
X70810000Y-12540000D03*
D15*
X67000000Y-10000000D03*
D16*
X61920000Y-10000000D03*
X72080000Y-10000000D03*
D14*
X21710000Y-91080000D03*
X28060000Y-88540000D03*
D15*
X24250000Y-86000000D03*
D16*
X19170000Y-86000000D03*
X29330000Y-86000000D03*
D14*
X73960000Y-53080000D03*
X80310000Y-50540000D03*
D15*
X76500000Y-48000000D03*
D16*
X71420000Y-48000000D03*
X81580000Y-48000000D03*
D14*
X259210000Y-15080000D03*
X265560000Y-12540000D03*
D15*
X261750000Y-10000000D03*
D16*
X256670000Y-10000000D03*
X266830000Y-10000000D03*
D14*
X45460000Y-15080000D03*
X51810000Y-12540000D03*
D15*
X48000000Y-10000000D03*
D16*
X42920000Y-10000000D03*
X53080000Y-10000000D03*
D14*
X121460000Y-15080000D03*
X127810000Y-12540000D03*
D15*
X124000000Y-10000000D03*
D16*
X118920000Y-10000000D03*
X129080000Y-10000000D03*
D14*
X235460000Y-34080000D03*
X241810000Y-31540000D03*
D15*
X238000000Y-29000000D03*
D16*
X232920000Y-29000000D03*
X243080000Y-29000000D03*
D14*
X107210000Y-91080000D03*
X113560000Y-88540000D03*
D15*
X109750000Y-86000000D03*
D16*
X104670000Y-86000000D03*
X114830000Y-86000000D03*
D14*
X54960000Y-53080000D03*
X61310000Y-50540000D03*
D15*
X57500000Y-48000000D03*
D16*
X52420000Y-48000000D03*
X62580000Y-48000000D03*
D14*
X59710000Y-72080000D03*
X66060000Y-69540000D03*
D15*
X62250000Y-67000000D03*
D16*
X57170000Y-67000000D03*
X67330000Y-67000000D03*
D14*
X78710000Y-110080000D03*
X85060000Y-107540000D03*
D15*
X81250000Y-105000000D03*
D16*
X76170000Y-105000000D03*
X86330000Y-105000000D03*
D14*
X216460000Y-110080000D03*
X222810000Y-107540000D03*
D15*
X219000000Y-105000000D03*
D16*
X213920000Y-105000000D03*
X224080000Y-105000000D03*
D14*
X192710000Y-110080000D03*
X199060000Y-107540000D03*
D15*
X195250000Y-105000000D03*
D16*
X190170000Y-105000000D03*
X200330000Y-105000000D03*
D14*
X211710000Y-72080000D03*
X218060000Y-69540000D03*
D15*
X214250000Y-67000000D03*
D16*
X209170000Y-67000000D03*
X219330000Y-67000000D03*
D14*
X249710000Y-110080000D03*
X256060000Y-107540000D03*
D15*
X252250000Y-105000000D03*
D16*
X247170000Y-105000000D03*
X257330000Y-105000000D03*
D14*
X40710000Y-72080000D03*
X47060000Y-69540000D03*
D15*
X43250000Y-67000000D03*
D16*
X38170000Y-67000000D03*
X48330000Y-67000000D03*
D14*
X12210000Y-53080000D03*
X18560000Y-50540000D03*
D15*
X14750000Y-48000000D03*
D16*
X9670000Y-48000000D03*
X19830000Y-48000000D03*
D14*
X287710000Y-15080000D03*
X294060000Y-12540000D03*
D15*
X290250000Y-10000000D03*
D16*
X285170000Y-10000000D03*
X295330000Y-10000000D03*
D14*
X287710000Y-72080000D03*
X294060000Y-69540000D03*
D15*
X290250000Y-67000000D03*
D16*
X285170000Y-67000000D03*
X295330000Y-67000000D03*
D14*
X7460000Y-34080000D03*
X13810000Y-31540000D03*
D15*
X10000000Y-29000000D03*
D16*
X4920000Y-29000000D03*
X15080000Y-29000000D03*
D14*
X102460000Y-15080000D03*
X108810000Y-12540000D03*
D15*
X105000000Y-10000000D03*
D16*
X99920000Y-10000000D03*
X110080000Y-10000000D03*
D14*
X83460000Y-15080000D03*
X89810000Y-12540000D03*
D15*
X86000000Y-10000000D03*
D16*
X80920000Y-10000000D03*
X91080000Y-10000000D03*
D14*
X287710000Y-110080000D03*
X294060000Y-107540000D03*
D15*
X290250000Y-105000000D03*
D16*
X285170000Y-105000000D03*
X295330000Y-105000000D03*
D14*
X268710000Y-110080000D03*
X275060000Y-107540000D03*
D15*
X271250000Y-105000000D03*
D16*
X266170000Y-105000000D03*
X276330000Y-105000000D03*
D14*
X173710000Y-110080000D03*
X180060000Y-107540000D03*
D15*
X176250000Y-105000000D03*
D16*
X171170000Y-105000000D03*
X181330000Y-105000000D03*
D14*
X145210000Y-110080000D03*
X151560000Y-107540000D03*
D15*
X147750000Y-105000000D03*
D16*
X142670000Y-105000000D03*
X152830000Y-105000000D03*
D14*
X107210000Y-110080000D03*
X113560000Y-107540000D03*
D15*
X109750000Y-105000000D03*
D16*
X104670000Y-105000000D03*
X114830000Y-105000000D03*
D14*
X59710000Y-110080000D03*
X66060000Y-107540000D03*
D15*
X62250000Y-105000000D03*
D16*
X57170000Y-105000000D03*
X67330000Y-105000000D03*
D14*
X40710000Y-110080000D03*
X47060000Y-107540000D03*
D15*
X43250000Y-105000000D03*
D16*
X38170000Y-105000000D03*
X48330000Y-105000000D03*
D14*
X16960000Y-110080000D03*
X23310000Y-107540000D03*
D15*
X19500000Y-105000000D03*
D16*
X14420000Y-105000000D03*
X24580000Y-105000000D03*
D14*
X268710000Y-91080000D03*
X275060000Y-88540000D03*
D15*
X271250000Y-86000000D03*
D16*
X266170000Y-86000000D03*
X276330000Y-86000000D03*
D14*
X244960000Y-91080000D03*
X251310000Y-88540000D03*
D15*
X247500000Y-86000000D03*
D16*
X242420000Y-86000000D03*
X252580000Y-86000000D03*
D14*
X221210000Y-91080000D03*
X227560000Y-88540000D03*
D15*
X223750000Y-86000000D03*
D16*
X218670000Y-86000000D03*
X228830000Y-86000000D03*
D14*
X202210000Y-91080000D03*
X208560000Y-88540000D03*
D15*
X204750000Y-86000000D03*
D16*
X199670000Y-86000000D03*
X209830000Y-86000000D03*
D14*
X183210000Y-91080000D03*
X189560000Y-88540000D03*
D15*
X185750000Y-86000000D03*
D16*
X180670000Y-86000000D03*
X190830000Y-86000000D03*
D14*
X164210000Y-91080000D03*
X170560000Y-88540000D03*
D15*
X166750000Y-86000000D03*
D16*
X161670000Y-86000000D03*
X171830000Y-86000000D03*
D14*
X145210000Y-91080000D03*
X151560000Y-88540000D03*
D15*
X147750000Y-86000000D03*
D16*
X142670000Y-86000000D03*
X152830000Y-86000000D03*
D14*
X88210000Y-91080000D03*
X94560000Y-88540000D03*
D15*
X90750000Y-86000000D03*
D16*
X85670000Y-86000000D03*
X95830000Y-86000000D03*
D14*
X69210000Y-91080000D03*
X75560000Y-88540000D03*
D15*
X71750000Y-86000000D03*
D16*
X66670000Y-86000000D03*
X76830000Y-86000000D03*
D14*
X254460000Y-72080000D03*
X260810000Y-69540000D03*
D15*
X257000000Y-67000000D03*
D16*
X251920000Y-67000000D03*
X262080000Y-67000000D03*
D14*
X230710000Y-72080000D03*
X237060000Y-69540000D03*
D15*
X233250000Y-67000000D03*
D16*
X228170000Y-67000000D03*
X238330000Y-67000000D03*
D14*
X192710000Y-72080000D03*
X199060000Y-69540000D03*
D15*
X195250000Y-67000000D03*
D16*
X190170000Y-67000000D03*
X200330000Y-67000000D03*
D14*
X154710000Y-72080000D03*
X161060000Y-69540000D03*
D15*
X157250000Y-67000000D03*
D16*
X152170000Y-67000000D03*
X162330000Y-67000000D03*
D14*
X140460000Y-15080000D03*
X146810000Y-12540000D03*
D15*
X143000000Y-10000000D03*
D16*
X137920000Y-10000000D03*
X148080000Y-10000000D03*
D14*
X178460000Y-15080000D03*
X184810000Y-12540000D03*
D15*
X181000000Y-10000000D03*
D16*
X175920000Y-10000000D03*
X186080000Y-10000000D03*
D14*
X135710000Y-72080000D03*
X142060000Y-69540000D03*
D15*
X138250000Y-67000000D03*
D16*
X133170000Y-67000000D03*
X143330000Y-67000000D03*
D14*
X116710000Y-72080000D03*
X123060000Y-69540000D03*
D15*
X119250000Y-67000000D03*
D16*
X114170000Y-67000000D03*
X124330000Y-67000000D03*
D14*
X97710000Y-72080000D03*
X104060000Y-69540000D03*
D15*
X100250000Y-67000000D03*
D16*
X95170000Y-67000000D03*
X105330000Y-67000000D03*
D14*
X78710000Y-72080000D03*
X85060000Y-69540000D03*
D15*
X81250000Y-67000000D03*
D16*
X76170000Y-67000000D03*
X86330000Y-67000000D03*
D14*
X16960000Y-72080000D03*
X23310000Y-69540000D03*
D15*
X19500000Y-67000000D03*
D16*
X14420000Y-67000000D03*
X24580000Y-67000000D03*
D14*
X287710000Y-53080000D03*
X294060000Y-50540000D03*
D15*
X290250000Y-48000000D03*
D16*
X285170000Y-48000000D03*
X295330000Y-48000000D03*
D14*
X244960000Y-53080000D03*
X251310000Y-50540000D03*
D15*
X247500000Y-48000000D03*
D16*
X242420000Y-48000000D03*
X252580000Y-48000000D03*
D14*
X225960000Y-53080000D03*
X232310000Y-50540000D03*
D15*
X228500000Y-48000000D03*
D16*
X223420000Y-48000000D03*
X233580000Y-48000000D03*
D14*
X206960000Y-53080000D03*
X213310000Y-50540000D03*
D15*
X209500000Y-48000000D03*
D16*
X204420000Y-48000000D03*
X214580000Y-48000000D03*
D14*
X187960000Y-53080000D03*
X194310000Y-50540000D03*
D15*
X190500000Y-48000000D03*
D16*
X185420000Y-48000000D03*
X195580000Y-48000000D03*
D14*
X168960000Y-53080000D03*
X175310000Y-50540000D03*
D15*
X171500000Y-48000000D03*
D16*
X166420000Y-48000000D03*
X176580000Y-48000000D03*
D14*
X149960000Y-53080000D03*
X156310000Y-50540000D03*
D15*
X152500000Y-48000000D03*
D16*
X147420000Y-48000000D03*
X157580000Y-48000000D03*
D14*
X130960000Y-53080000D03*
X137310000Y-50540000D03*
D15*
X133500000Y-48000000D03*
D16*
X128420000Y-48000000D03*
X138580000Y-48000000D03*
D14*
X111960000Y-53080000D03*
X118310000Y-50540000D03*
D15*
X114500000Y-48000000D03*
D16*
X109420000Y-48000000D03*
X119580000Y-48000000D03*
D14*
X92960000Y-53080000D03*
X99310000Y-50540000D03*
D15*
X95500000Y-48000000D03*
D16*
X90420000Y-48000000D03*
X100580000Y-48000000D03*
D14*
X126210000Y-91080000D03*
X132560000Y-88540000D03*
D15*
X128750000Y-86000000D03*
D16*
X123670000Y-86000000D03*
X133830000Y-86000000D03*
D14*
X35960000Y-53080000D03*
X42310000Y-50540000D03*
D15*
X38500000Y-48000000D03*
D16*
X33420000Y-48000000D03*
X43580000Y-48000000D03*
D14*
X287710000Y-34080000D03*
X294060000Y-31540000D03*
D15*
X290250000Y-29000000D03*
D16*
X285170000Y-29000000D03*
X295330000Y-29000000D03*
D14*
X259210000Y-34080000D03*
X265560000Y-31540000D03*
D15*
X261750000Y-29000000D03*
D16*
X256670000Y-29000000D03*
X266830000Y-29000000D03*
D14*
X216460000Y-34080000D03*
X222810000Y-31540000D03*
D15*
X219000000Y-29000000D03*
D16*
X213920000Y-29000000D03*
X224080000Y-29000000D03*
D14*
X197460000Y-34080000D03*
X203810000Y-31540000D03*
D15*
X200000000Y-29000000D03*
D16*
X194920000Y-29000000D03*
X205080000Y-29000000D03*
D14*
X140460000Y-34080000D03*
X146810000Y-31540000D03*
D15*
X143000000Y-29000000D03*
D16*
X137920000Y-29000000D03*
X148080000Y-29000000D03*
D14*
X121460000Y-34080000D03*
X127810000Y-31540000D03*
D15*
X124000000Y-29000000D03*
D16*
X118920000Y-29000000D03*
X129080000Y-29000000D03*
D14*
X102460000Y-34080000D03*
X108810000Y-31540000D03*
D15*
X105000000Y-29000000D03*
D16*
X99920000Y-29000000D03*
X110080000Y-29000000D03*
D14*
X83460000Y-34080000D03*
X89810000Y-31540000D03*
D15*
X86000000Y-29000000D03*
D16*
X80920000Y-29000000D03*
X91080000Y-29000000D03*
D14*
X64460000Y-34080000D03*
X70810000Y-31540000D03*
D15*
X67000000Y-29000000D03*
D16*
X61920000Y-29000000D03*
X72080000Y-29000000D03*
D14*
X45460000Y-34080000D03*
X51810000Y-31540000D03*
D15*
X48000000Y-29000000D03*
D16*
X42920000Y-29000000D03*
X53080000Y-29000000D03*
D14*
X197460000Y-15080000D03*
X203810000Y-12540000D03*
D15*
X200000000Y-10000000D03*
D16*
X194920000Y-10000000D03*
X205080000Y-10000000D03*
D14*
X235460000Y-15080000D03*
X241810000Y-12540000D03*
D15*
X238000000Y-10000000D03*
D16*
X232920000Y-10000000D03*
X243080000Y-10000000D03*
D14*
X159460000Y-15080000D03*
X165810000Y-12540000D03*
D15*
X162000000Y-10000000D03*
D16*
X156920000Y-10000000D03*
X167080000Y-10000000D03*
D14*
X26460000Y-15080000D03*
X32810000Y-12540000D03*
D15*
X29000000Y-10000000D03*
D16*
X23920000Y-10000000D03*
X34080000Y-10000000D03*
G36*
G01*
X179925000Y3587500D02*
X179925000Y3912500D01*
G75*
G02*
X180062500Y4050000I137500J0D01*
G01*
X180337500Y4050000D01*
G75*
G02*
X180475000Y3912500I0J-137500D01*
G01*
X180475000Y3587500D01*
G75*
G02*
X180337500Y3450000I-137500J0D01*
G01*
X180062500Y3450000D01*
G75*
G02*
X179925000Y3587500I0J137500D01*
G01*
G37*
G36*
G01*
X179025000Y3587500D02*
X179025000Y3912500D01*
G75*
G02*
X179162500Y4050000I137500J0D01*
G01*
X179437500Y4050000D01*
G75*
G02*
X179575000Y3912500I0J-137500D01*
G01*
X179575000Y3587500D01*
G75*
G02*
X179437500Y3450000I-137500J0D01*
G01*
X179162500Y3450000D01*
G75*
G02*
X179025000Y3587500I0J137500D01*
G01*
G37*
G36*
G01*
X212175000Y-2662500D02*
X212175000Y-2337500D01*
G75*
G02*
X212312500Y-2200000I137500J0D01*
G01*
X212587500Y-2200000D01*
G75*
G02*
X212725000Y-2337500I0J-137500D01*
G01*
X212725000Y-2662500D01*
G75*
G02*
X212587500Y-2800000I-137500J0D01*
G01*
X212312500Y-2800000D01*
G75*
G02*
X212175000Y-2662500I0J137500D01*
G01*
G37*
G36*
G01*
X211275000Y-2662500D02*
X211275000Y-2337500D01*
G75*
G02*
X211412500Y-2200000I137500J0D01*
G01*
X211687500Y-2200000D01*
G75*
G02*
X211825000Y-2337500I0J-137500D01*
G01*
X211825000Y-2662500D01*
G75*
G02*
X211687500Y-2800000I-137500J0D01*
G01*
X211412500Y-2800000D01*
G75*
G02*
X211275000Y-2662500I0J137500D01*
G01*
G37*
G36*
G01*
X91025000Y4862500D02*
X91025000Y4537500D01*
G75*
G02*
X90887500Y4400000I-137500J0D01*
G01*
X90612500Y4400000D01*
G75*
G02*
X90475000Y4537500I0J137500D01*
G01*
X90475000Y4862500D01*
G75*
G02*
X90612500Y5000000I137500J0D01*
G01*
X90887500Y5000000D01*
G75*
G02*
X91025000Y4862500I0J-137500D01*
G01*
G37*
G36*
G01*
X91925000Y4862500D02*
X91925000Y4537500D01*
G75*
G02*
X91787500Y4400000I-137500J0D01*
G01*
X91512500Y4400000D01*
G75*
G02*
X91375000Y4537500I0J137500D01*
G01*
X91375000Y4862500D01*
G75*
G02*
X91512500Y5000000I137500J0D01*
G01*
X91787500Y5000000D01*
G75*
G02*
X91925000Y4862500I0J-137500D01*
G01*
G37*
G36*
G01*
X141025000Y2937500D02*
X141025000Y3262500D01*
G75*
G02*
X141162500Y3400000I137500J0D01*
G01*
X141437500Y3400000D01*
G75*
G02*
X141575000Y3262500I0J-137500D01*
G01*
X141575000Y2937500D01*
G75*
G02*
X141437500Y2800000I-137500J0D01*
G01*
X141162500Y2800000D01*
G75*
G02*
X141025000Y2937500I0J137500D01*
G01*
G37*
G36*
G01*
X140125000Y2937500D02*
X140125000Y3262500D01*
G75*
G02*
X140262500Y3400000I137500J0D01*
G01*
X140537500Y3400000D01*
G75*
G02*
X140675000Y3262500I0J-137500D01*
G01*
X140675000Y2937500D01*
G75*
G02*
X140537500Y2800000I-137500J0D01*
G01*
X140262500Y2800000D01*
G75*
G02*
X140125000Y2937500I0J137500D01*
G01*
G37*
G36*
G01*
X137325000Y-2462500D02*
X137325000Y-2137500D01*
G75*
G02*
X137462500Y-2000000I137500J0D01*
G01*
X137737500Y-2000000D01*
G75*
G02*
X137875000Y-2137500I0J-137500D01*
G01*
X137875000Y-2462500D01*
G75*
G02*
X137737500Y-2600000I-137500J0D01*
G01*
X137462500Y-2600000D01*
G75*
G02*
X137325000Y-2462500I0J137500D01*
G01*
G37*
G36*
G01*
X136425000Y-2462500D02*
X136425000Y-2137500D01*
G75*
G02*
X136562500Y-2000000I137500J0D01*
G01*
X136837500Y-2000000D01*
G75*
G02*
X136975000Y-2137500I0J-137500D01*
G01*
X136975000Y-2462500D01*
G75*
G02*
X136837500Y-2600000I-137500J0D01*
G01*
X136562500Y-2600000D01*
G75*
G02*
X136425000Y-2462500I0J137500D01*
G01*
G37*
G36*
G01*
X135475000Y2662500D02*
X135475000Y2337500D01*
G75*
G02*
X135337500Y2200000I-137500J0D01*
G01*
X135062500Y2200000D01*
G75*
G02*
X134925000Y2337500I0J137500D01*
G01*
X134925000Y2662500D01*
G75*
G02*
X135062500Y2800000I137500J0D01*
G01*
X135337500Y2800000D01*
G75*
G02*
X135475000Y2662500I0J-137500D01*
G01*
G37*
G36*
G01*
X136375000Y2662500D02*
X136375000Y2337500D01*
G75*
G02*
X136237500Y2200000I-137500J0D01*
G01*
X135962500Y2200000D01*
G75*
G02*
X135825000Y2337500I0J137500D01*
G01*
X135825000Y2662500D01*
G75*
G02*
X135962500Y2800000I137500J0D01*
G01*
X136237500Y2800000D01*
G75*
G02*
X136375000Y2662500I0J-137500D01*
G01*
G37*
G36*
G01*
X135475000Y-737500D02*
X135475000Y-1062500D01*
G75*
G02*
X135337500Y-1200000I-137500J0D01*
G01*
X135062500Y-1200000D01*
G75*
G02*
X134925000Y-1062500I0J137500D01*
G01*
X134925000Y-737500D01*
G75*
G02*
X135062500Y-600000I137500J0D01*
G01*
X135337500Y-600000D01*
G75*
G02*
X135475000Y-737500I0J-137500D01*
G01*
G37*
G36*
G01*
X136375000Y-737500D02*
X136375000Y-1062500D01*
G75*
G02*
X136237500Y-1200000I-137500J0D01*
G01*
X135962500Y-1200000D01*
G75*
G02*
X135825000Y-1062500I0J137500D01*
G01*
X135825000Y-737500D01*
G75*
G02*
X135962500Y-600000I137500J0D01*
G01*
X136237500Y-600000D01*
G75*
G02*
X136375000Y-737500I0J-137500D01*
G01*
G37*
G36*
G01*
X125575000Y-1562500D02*
X125575000Y-1237500D01*
G75*
G02*
X125712500Y-1100000I137500J0D01*
G01*
X125987500Y-1100000D01*
G75*
G02*
X126125000Y-1237500I0J-137500D01*
G01*
X126125000Y-1562500D01*
G75*
G02*
X125987500Y-1700000I-137500J0D01*
G01*
X125712500Y-1700000D01*
G75*
G02*
X125575000Y-1562500I0J137500D01*
G01*
G37*
G36*
G01*
X124675000Y-1562500D02*
X124675000Y-1237500D01*
G75*
G02*
X124812500Y-1100000I137500J0D01*
G01*
X125087500Y-1100000D01*
G75*
G02*
X125225000Y-1237500I0J-137500D01*
G01*
X125225000Y-1562500D01*
G75*
G02*
X125087500Y-1700000I-137500J0D01*
G01*
X124812500Y-1700000D01*
G75*
G02*
X124675000Y-1562500I0J137500D01*
G01*
G37*
G36*
G01*
X131987500Y7475000D02*
X132312500Y7475000D01*
G75*
G02*
X132450000Y7337500I0J-137500D01*
G01*
X132450000Y7062500D01*
G75*
G02*
X132312500Y6925000I-137500J0D01*
G01*
X131987500Y6925000D01*
G75*
G02*
X131850000Y7062500I0J137500D01*
G01*
X131850000Y7337500D01*
G75*
G02*
X131987500Y7475000I137500J0D01*
G01*
G37*
G36*
G01*
X131987500Y8375000D02*
X132312500Y8375000D01*
G75*
G02*
X132450000Y8237500I0J-137500D01*
G01*
X132450000Y7962500D01*
G75*
G02*
X132312500Y7825000I-137500J0D01*
G01*
X131987500Y7825000D01*
G75*
G02*
X131850000Y7962500I0J137500D01*
G01*
X131850000Y8237500D01*
G75*
G02*
X131987500Y8375000I137500J0D01*
G01*
G37*
G36*
G01*
X126387500Y7475000D02*
X126712500Y7475000D01*
G75*
G02*
X126850000Y7337500I0J-137500D01*
G01*
X126850000Y7062500D01*
G75*
G02*
X126712500Y6925000I-137500J0D01*
G01*
X126387500Y6925000D01*
G75*
G02*
X126250000Y7062500I0J137500D01*
G01*
X126250000Y7337500D01*
G75*
G02*
X126387500Y7475000I137500J0D01*
G01*
G37*
G36*
G01*
X126387500Y8375000D02*
X126712500Y8375000D01*
G75*
G02*
X126850000Y8237500I0J-137500D01*
G01*
X126850000Y7962500D01*
G75*
G02*
X126712500Y7825000I-137500J0D01*
G01*
X126387500Y7825000D01*
G75*
G02*
X126250000Y7962500I0J137500D01*
G01*
X126250000Y8237500D01*
G75*
G02*
X126387500Y8375000I137500J0D01*
G01*
G37*
G36*
G01*
X129937500Y7475000D02*
X130262500Y7475000D01*
G75*
G02*
X130400000Y7337500I0J-137500D01*
G01*
X130400000Y7062500D01*
G75*
G02*
X130262500Y6925000I-137500J0D01*
G01*
X129937500Y6925000D01*
G75*
G02*
X129800000Y7062500I0J137500D01*
G01*
X129800000Y7337500D01*
G75*
G02*
X129937500Y7475000I137500J0D01*
G01*
G37*
G36*
G01*
X129937500Y8375000D02*
X130262500Y8375000D01*
G75*
G02*
X130400000Y8237500I0J-137500D01*
G01*
X130400000Y7962500D01*
G75*
G02*
X130262500Y7825000I-137500J0D01*
G01*
X129937500Y7825000D01*
G75*
G02*
X129800000Y7962500I0J137500D01*
G01*
X129800000Y8237500D01*
G75*
G02*
X129937500Y8375000I137500J0D01*
G01*
G37*
G36*
G01*
X82875000Y762500D02*
X82875000Y437500D01*
G75*
G02*
X82737500Y300000I-137500J0D01*
G01*
X82462500Y300000D01*
G75*
G02*
X82325000Y437500I0J137500D01*
G01*
X82325000Y762500D01*
G75*
G02*
X82462500Y900000I137500J0D01*
G01*
X82737500Y900000D01*
G75*
G02*
X82875000Y762500I0J-137500D01*
G01*
G37*
G36*
G01*
X83775000Y762500D02*
X83775000Y437500D01*
G75*
G02*
X83637500Y300000I-137500J0D01*
G01*
X83362500Y300000D01*
G75*
G02*
X83225000Y437500I0J137500D01*
G01*
X83225000Y762500D01*
G75*
G02*
X83362500Y900000I137500J0D01*
G01*
X83637500Y900000D01*
G75*
G02*
X83775000Y762500I0J-137500D01*
G01*
G37*
G36*
G01*
X82875000Y1562500D02*
X82875000Y1237500D01*
G75*
G02*
X82737500Y1100000I-137500J0D01*
G01*
X82462500Y1100000D01*
G75*
G02*
X82325000Y1237500I0J137500D01*
G01*
X82325000Y1562500D01*
G75*
G02*
X82462500Y1700000I137500J0D01*
G01*
X82737500Y1700000D01*
G75*
G02*
X82875000Y1562500I0J-137500D01*
G01*
G37*
G36*
G01*
X83775000Y1562500D02*
X83775000Y1237500D01*
G75*
G02*
X83637500Y1100000I-137500J0D01*
G01*
X83362500Y1100000D01*
G75*
G02*
X83225000Y1237500I0J137500D01*
G01*
X83225000Y1562500D01*
G75*
G02*
X83362500Y1700000I137500J0D01*
G01*
X83637500Y1700000D01*
G75*
G02*
X83775000Y1562500I0J-137500D01*
G01*
G37*
G36*
G01*
X128662500Y-1425000D02*
X128337500Y-1425000D01*
G75*
G02*
X128200000Y-1287500I0J137500D01*
G01*
X128200000Y-1012500D01*
G75*
G02*
X128337500Y-875000I137500J0D01*
G01*
X128662500Y-875000D01*
G75*
G02*
X128800000Y-1012500I0J-137500D01*
G01*
X128800000Y-1287500D01*
G75*
G02*
X128662500Y-1425000I-137500J0D01*
G01*
G37*
G36*
G01*
X128662500Y-2325000D02*
X128337500Y-2325000D01*
G75*
G02*
X128200000Y-2187500I0J137500D01*
G01*
X128200000Y-1912500D01*
G75*
G02*
X128337500Y-1775000I137500J0D01*
G01*
X128662500Y-1775000D01*
G75*
G02*
X128800000Y-1912500I0J-137500D01*
G01*
X128800000Y-2187500D01*
G75*
G02*
X128662500Y-2325000I-137500J0D01*
G01*
G37*
G36*
G01*
X135475000Y4812500D02*
X135475000Y4487500D01*
G75*
G02*
X135337500Y4350000I-137500J0D01*
G01*
X135062500Y4350000D01*
G75*
G02*
X134925000Y4487500I0J137500D01*
G01*
X134925000Y4812500D01*
G75*
G02*
X135062500Y4950000I137500J0D01*
G01*
X135337500Y4950000D01*
G75*
G02*
X135475000Y4812500I0J-137500D01*
G01*
G37*
G36*
G01*
X136375000Y4812500D02*
X136375000Y4487500D01*
G75*
G02*
X136237500Y4350000I-137500J0D01*
G01*
X135962500Y4350000D01*
G75*
G02*
X135825000Y4487500I0J137500D01*
G01*
X135825000Y4812500D01*
G75*
G02*
X135962500Y4950000I137500J0D01*
G01*
X136237500Y4950000D01*
G75*
G02*
X136375000Y4812500I0J-137500D01*
G01*
G37*
G36*
G01*
X128087500Y7475000D02*
X128412500Y7475000D01*
G75*
G02*
X128550000Y7337500I0J-137500D01*
G01*
X128550000Y7062500D01*
G75*
G02*
X128412500Y6925000I-137500J0D01*
G01*
X128087500Y6925000D01*
G75*
G02*
X127950000Y7062500I0J137500D01*
G01*
X127950000Y7337500D01*
G75*
G02*
X128087500Y7475000I137500J0D01*
G01*
G37*
G36*
G01*
X128087500Y8375000D02*
X128412500Y8375000D01*
G75*
G02*
X128550000Y8237500I0J-137500D01*
G01*
X128550000Y7962500D01*
G75*
G02*
X128412500Y7825000I-137500J0D01*
G01*
X128087500Y7825000D01*
G75*
G02*
X127950000Y7962500I0J137500D01*
G01*
X127950000Y8237500D01*
G75*
G02*
X128087500Y8375000I137500J0D01*
G01*
G37*
G36*
G01*
X135475000Y1662500D02*
X135475000Y1337500D01*
G75*
G02*
X135337500Y1200000I-137500J0D01*
G01*
X135062500Y1200000D01*
G75*
G02*
X134925000Y1337500I0J137500D01*
G01*
X134925000Y1662500D01*
G75*
G02*
X135062500Y1800000I137500J0D01*
G01*
X135337500Y1800000D01*
G75*
G02*
X135475000Y1662500I0J-137500D01*
G01*
G37*
G36*
G01*
X136375000Y1662500D02*
X136375000Y1337500D01*
G75*
G02*
X136237500Y1200000I-137500J0D01*
G01*
X135962500Y1200000D01*
G75*
G02*
X135825000Y1337500I0J137500D01*
G01*
X135825000Y1662500D01*
G75*
G02*
X135962500Y1800000I137500J0D01*
G01*
X136237500Y1800000D01*
G75*
G02*
X136375000Y1662500I0J-137500D01*
G01*
G37*
G36*
G01*
X126525000Y-462500D02*
X126525000Y-137500D01*
G75*
G02*
X126662500Y0I137500J0D01*
G01*
X126937500Y0D01*
G75*
G02*
X127075000Y-137500I0J-137500D01*
G01*
X127075000Y-462500D01*
G75*
G02*
X126937500Y-600000I-137500J0D01*
G01*
X126662500Y-600000D01*
G75*
G02*
X126525000Y-462500I0J137500D01*
G01*
G37*
G36*
G01*
X125625000Y-462500D02*
X125625000Y-137500D01*
G75*
G02*
X125762500Y0I137500J0D01*
G01*
X126037500Y0D01*
G75*
G02*
X126175000Y-137500I0J-137500D01*
G01*
X126175000Y-462500D01*
G75*
G02*
X126037500Y-600000I-137500J0D01*
G01*
X125762500Y-600000D01*
G75*
G02*
X125625000Y-462500I0J137500D01*
G01*
G37*
G36*
G01*
X126525000Y3337500D02*
X126525000Y3662500D01*
G75*
G02*
X126662500Y3800000I137500J0D01*
G01*
X126937500Y3800000D01*
G75*
G02*
X127075000Y3662500I0J-137500D01*
G01*
X127075000Y3337500D01*
G75*
G02*
X126937500Y3200000I-137500J0D01*
G01*
X126662500Y3200000D01*
G75*
G02*
X126525000Y3337500I0J137500D01*
G01*
G37*
G36*
G01*
X125625000Y3337500D02*
X125625000Y3662500D01*
G75*
G02*
X125762500Y3800000I137500J0D01*
G01*
X126037500Y3800000D01*
G75*
G02*
X126175000Y3662500I0J-137500D01*
G01*
X126175000Y3337500D01*
G75*
G02*
X126037500Y3200000I-137500J0D01*
G01*
X125762500Y3200000D01*
G75*
G02*
X125625000Y3337500I0J137500D01*
G01*
G37*
G36*
G01*
X135475000Y7612500D02*
X135475000Y7287500D01*
G75*
G02*
X135337500Y7150000I-137500J0D01*
G01*
X135062500Y7150000D01*
G75*
G02*
X134925000Y7287500I0J137500D01*
G01*
X134925000Y7612500D01*
G75*
G02*
X135062500Y7750000I137500J0D01*
G01*
X135337500Y7750000D01*
G75*
G02*
X135475000Y7612500I0J-137500D01*
G01*
G37*
G36*
G01*
X136375000Y7612500D02*
X136375000Y7287500D01*
G75*
G02*
X136237500Y7150000I-137500J0D01*
G01*
X135962500Y7150000D01*
G75*
G02*
X135825000Y7287500I0J137500D01*
G01*
X135825000Y7612500D01*
G75*
G02*
X135962500Y7750000I137500J0D01*
G01*
X136237500Y7750000D01*
G75*
G02*
X136375000Y7612500I0J-137500D01*
G01*
G37*
G36*
G01*
X126862500Y-1425000D02*
X126537500Y-1425000D01*
G75*
G02*
X126400000Y-1287500I0J137500D01*
G01*
X126400000Y-1012500D01*
G75*
G02*
X126537500Y-875000I137500J0D01*
G01*
X126862500Y-875000D01*
G75*
G02*
X127000000Y-1012500I0J-137500D01*
G01*
X127000000Y-1287500D01*
G75*
G02*
X126862500Y-1425000I-137500J0D01*
G01*
G37*
G36*
G01*
X126862500Y-2325000D02*
X126537500Y-2325000D01*
G75*
G02*
X126400000Y-2187500I0J137500D01*
G01*
X126400000Y-1912500D01*
G75*
G02*
X126537500Y-1775000I137500J0D01*
G01*
X126862500Y-1775000D01*
G75*
G02*
X127000000Y-1912500I0J-137500D01*
G01*
X127000000Y-2187500D01*
G75*
G02*
X126862500Y-2325000I-137500J0D01*
G01*
G37*
G36*
G01*
X149175000Y487500D02*
X149175000Y812500D01*
G75*
G02*
X149312500Y950000I137500J0D01*
G01*
X149587500Y950000D01*
G75*
G02*
X149725000Y812500I0J-137500D01*
G01*
X149725000Y487500D01*
G75*
G02*
X149587500Y350000I-137500J0D01*
G01*
X149312500Y350000D01*
G75*
G02*
X149175000Y487500I0J137500D01*
G01*
G37*
G36*
G01*
X148275000Y487500D02*
X148275000Y812500D01*
G75*
G02*
X148412500Y950000I137500J0D01*
G01*
X148687500Y950000D01*
G75*
G02*
X148825000Y812500I0J-137500D01*
G01*
X148825000Y487500D01*
G75*
G02*
X148687500Y350000I-137500J0D01*
G01*
X148412500Y350000D01*
G75*
G02*
X148275000Y487500I0J137500D01*
G01*
G37*
G36*
G01*
X149175000Y-412500D02*
X149175000Y-87500D01*
G75*
G02*
X149312500Y50000I137500J0D01*
G01*
X149587500Y50000D01*
G75*
G02*
X149725000Y-87500I0J-137500D01*
G01*
X149725000Y-412500D01*
G75*
G02*
X149587500Y-550000I-137500J0D01*
G01*
X149312500Y-550000D01*
G75*
G02*
X149175000Y-412500I0J137500D01*
G01*
G37*
G36*
G01*
X148275000Y-412500D02*
X148275000Y-87500D01*
G75*
G02*
X148412500Y50000I137500J0D01*
G01*
X148687500Y50000D01*
G75*
G02*
X148825000Y-87500I0J-137500D01*
G01*
X148825000Y-412500D01*
G75*
G02*
X148687500Y-550000I-137500J0D01*
G01*
X148412500Y-550000D01*
G75*
G02*
X148275000Y-412500I0J137500D01*
G01*
G37*
G36*
G01*
X132262500Y-1425000D02*
X131937500Y-1425000D01*
G75*
G02*
X131800000Y-1287500I0J137500D01*
G01*
X131800000Y-1012500D01*
G75*
G02*
X131937500Y-875000I137500J0D01*
G01*
X132262500Y-875000D01*
G75*
G02*
X132400000Y-1012500I0J-137500D01*
G01*
X132400000Y-1287500D01*
G75*
G02*
X132262500Y-1425000I-137500J0D01*
G01*
G37*
G36*
G01*
X132262500Y-2325000D02*
X131937500Y-2325000D01*
G75*
G02*
X131800000Y-2187500I0J137500D01*
G01*
X131800000Y-1912500D01*
G75*
G02*
X131937500Y-1775000I137500J0D01*
G01*
X132262500Y-1775000D01*
G75*
G02*
X132400000Y-1912500I0J-137500D01*
G01*
X132400000Y-2187500D01*
G75*
G02*
X132262500Y-2325000I-137500J0D01*
G01*
G37*
G36*
G01*
X134225000Y-1150000D02*
X134575000Y-1150000D01*
G75*
G02*
X134700000Y-1275000I0J-125000D01*
G01*
X134700000Y-1525000D01*
G75*
G02*
X134575000Y-1650000I-125000J0D01*
G01*
X134225000Y-1650000D01*
G75*
G02*
X134100000Y-1525000I0J125000D01*
G01*
X134100000Y-1275000D01*
G75*
G02*
X134225000Y-1150000I125000J0D01*
G01*
G37*
G36*
G01*
X134225000Y-250000D02*
X134575000Y-250000D01*
G75*
G02*
X134700000Y-375000I0J-125000D01*
G01*
X134700000Y-625000D01*
G75*
G02*
X134575000Y-750000I-125000J0D01*
G01*
X134225000Y-750000D01*
G75*
G02*
X134100000Y-625000I0J125000D01*
G01*
X134100000Y-375000D01*
G75*
G02*
X134225000Y-250000I125000J0D01*
G01*
G37*
G36*
G01*
X133825000Y7250000D02*
X134175000Y7250000D01*
G75*
G02*
X134300000Y7125000I0J-125000D01*
G01*
X134300000Y6875000D01*
G75*
G02*
X134175000Y6750000I-125000J0D01*
G01*
X133825000Y6750000D01*
G75*
G02*
X133700000Y6875000I0J125000D01*
G01*
X133700000Y7125000D01*
G75*
G02*
X133825000Y7250000I125000J0D01*
G01*
G37*
G36*
G01*
X133825000Y8150000D02*
X134175000Y8150000D01*
G75*
G02*
X134300000Y8025000I0J-125000D01*
G01*
X134300000Y7775000D01*
G75*
G02*
X134175000Y7650000I-125000J0D01*
G01*
X133825000Y7650000D01*
G75*
G02*
X133700000Y7775000I0J125000D01*
G01*
X133700000Y8025000D01*
G75*
G02*
X133825000Y8150000I125000J0D01*
G01*
G37*
G36*
G01*
X107950000Y7675000D02*
X107950000Y8025000D01*
G75*
G02*
X108075000Y8150000I125000J0D01*
G01*
X108325000Y8150000D01*
G75*
G02*
X108450000Y8025000I0J-125000D01*
G01*
X108450000Y7675000D01*
G75*
G02*
X108325000Y7550000I-125000J0D01*
G01*
X108075000Y7550000D01*
G75*
G02*
X107950000Y7675000I0J125000D01*
G01*
G37*
G36*
G01*
X107050000Y7675000D02*
X107050000Y8025000D01*
G75*
G02*
X107175000Y8150000I125000J0D01*
G01*
X107425000Y8150000D01*
G75*
G02*
X107550000Y8025000I0J-125000D01*
G01*
X107550000Y7675000D01*
G75*
G02*
X107425000Y7550000I-125000J0D01*
G01*
X107175000Y7550000D01*
G75*
G02*
X107050000Y7675000I0J125000D01*
G01*
G37*
G36*
G01*
X108175000Y5400000D02*
X107825000Y5400000D01*
G75*
G02*
X107700000Y5525000I0J125000D01*
G01*
X107700000Y5775000D01*
G75*
G02*
X107825000Y5900000I125000J0D01*
G01*
X108175000Y5900000D01*
G75*
G02*
X108300000Y5775000I0J-125000D01*
G01*
X108300000Y5525000D01*
G75*
G02*
X108175000Y5400000I-125000J0D01*
G01*
G37*
G36*
G01*
X108175000Y4500000D02*
X107825000Y4500000D01*
G75*
G02*
X107700000Y4625000I0J125000D01*
G01*
X107700000Y4875000D01*
G75*
G02*
X107825000Y5000000I125000J0D01*
G01*
X108175000Y5000000D01*
G75*
G02*
X108300000Y4875000I0J-125000D01*
G01*
X108300000Y4625000D01*
G75*
G02*
X108175000Y4500000I-125000J0D01*
G01*
G37*
G36*
G01*
X123775000Y4350000D02*
X124125000Y4350000D01*
G75*
G02*
X124250000Y4225000I0J-125000D01*
G01*
X124250000Y3975000D01*
G75*
G02*
X124125000Y3850000I-125000J0D01*
G01*
X123775000Y3850000D01*
G75*
G02*
X123650000Y3975000I0J125000D01*
G01*
X123650000Y4225000D01*
G75*
G02*
X123775000Y4350000I125000J0D01*
G01*
G37*
G36*
G01*
X123775000Y5250000D02*
X124125000Y5250000D01*
G75*
G02*
X124250000Y5125000I0J-125000D01*
G01*
X124250000Y4875000D01*
G75*
G02*
X124125000Y4750000I-125000J0D01*
G01*
X123775000Y4750000D01*
G75*
G02*
X123650000Y4875000I0J125000D01*
G01*
X123650000Y5125000D01*
G75*
G02*
X123775000Y5250000I125000J0D01*
G01*
G37*
G36*
G01*
X145425000Y-800000D02*
X145075000Y-800000D01*
G75*
G02*
X144950000Y-675000I0J125000D01*
G01*
X144950000Y-425000D01*
G75*
G02*
X145075000Y-300000I125000J0D01*
G01*
X145425000Y-300000D01*
G75*
G02*
X145550000Y-425000I0J-125000D01*
G01*
X145550000Y-675000D01*
G75*
G02*
X145425000Y-800000I-125000J0D01*
G01*
G37*
G36*
G01*
X145425000Y-1700000D02*
X145075000Y-1700000D01*
G75*
G02*
X144950000Y-1575000I0J125000D01*
G01*
X144950000Y-1325000D01*
G75*
G02*
X145075000Y-1200000I125000J0D01*
G01*
X145425000Y-1200000D01*
G75*
G02*
X145550000Y-1325000I0J-125000D01*
G01*
X145550000Y-1575000D01*
G75*
G02*
X145425000Y-1700000I-125000J0D01*
G01*
G37*
G36*
G01*
X143675000Y-1200000D02*
X144025000Y-1200000D01*
G75*
G02*
X144150000Y-1325000I0J-125000D01*
G01*
X144150000Y-1575000D01*
G75*
G02*
X144025000Y-1700000I-125000J0D01*
G01*
X143675000Y-1700000D01*
G75*
G02*
X143550000Y-1575000I0J125000D01*
G01*
X143550000Y-1325000D01*
G75*
G02*
X143675000Y-1200000I125000J0D01*
G01*
G37*
G36*
G01*
X143675000Y-300000D02*
X144025000Y-300000D01*
G75*
G02*
X144150000Y-425000I0J-125000D01*
G01*
X144150000Y-675000D01*
G75*
G02*
X144025000Y-800000I-125000J0D01*
G01*
X143675000Y-800000D01*
G75*
G02*
X143550000Y-675000I0J125000D01*
G01*
X143550000Y-425000D01*
G75*
G02*
X143675000Y-300000I125000J0D01*
G01*
G37*
G36*
G01*
X93750000Y3525000D02*
X93750000Y3875000D01*
G75*
G02*
X93875000Y4000000I125000J0D01*
G01*
X94125000Y4000000D01*
G75*
G02*
X94250000Y3875000I0J-125000D01*
G01*
X94250000Y3525000D01*
G75*
G02*
X94125000Y3400000I-125000J0D01*
G01*
X93875000Y3400000D01*
G75*
G02*
X93750000Y3525000I0J125000D01*
G01*
G37*
G36*
G01*
X92850000Y3525000D02*
X92850000Y3875000D01*
G75*
G02*
X92975000Y4000000I125000J0D01*
G01*
X93225000Y4000000D01*
G75*
G02*
X93350000Y3875000I0J-125000D01*
G01*
X93350000Y3525000D01*
G75*
G02*
X93225000Y3400000I-125000J0D01*
G01*
X92975000Y3400000D01*
G75*
G02*
X92850000Y3525000I0J125000D01*
G01*
G37*
G36*
G01*
X111600000Y7625000D02*
X111600000Y7275000D01*
G75*
G02*
X111475000Y7150000I-125000J0D01*
G01*
X111225000Y7150000D01*
G75*
G02*
X111100000Y7275000I0J125000D01*
G01*
X111100000Y7625000D01*
G75*
G02*
X111225000Y7750000I125000J0D01*
G01*
X111475000Y7750000D01*
G75*
G02*
X111600000Y7625000I0J-125000D01*
G01*
G37*
G36*
G01*
X112500000Y7625000D02*
X112500000Y7275000D01*
G75*
G02*
X112375000Y7150000I-125000J0D01*
G01*
X112125000Y7150000D01*
G75*
G02*
X112000000Y7275000I0J125000D01*
G01*
X112000000Y7625000D01*
G75*
G02*
X112125000Y7750000I125000J0D01*
G01*
X112375000Y7750000D01*
G75*
G02*
X112500000Y7625000I0J-125000D01*
G01*
G37*
G36*
G01*
X111525000Y8850000D02*
X111875000Y8850000D01*
G75*
G02*
X112000000Y8725000I0J-125000D01*
G01*
X112000000Y8475000D01*
G75*
G02*
X111875000Y8350000I-125000J0D01*
G01*
X111525000Y8350000D01*
G75*
G02*
X111400000Y8475000I0J125000D01*
G01*
X111400000Y8725000D01*
G75*
G02*
X111525000Y8850000I125000J0D01*
G01*
G37*
G36*
G01*
X111525000Y9750000D02*
X111875000Y9750000D01*
G75*
G02*
X112000000Y9625000I0J-125000D01*
G01*
X112000000Y9375000D01*
G75*
G02*
X111875000Y9250000I-125000J0D01*
G01*
X111525000Y9250000D01*
G75*
G02*
X111400000Y9375000I0J125000D01*
G01*
X111400000Y9625000D01*
G75*
G02*
X111525000Y9750000I125000J0D01*
G01*
G37*
G36*
G01*
X43550000Y2875000D02*
X43550000Y425000D01*
G75*
G02*
X43075000Y-50000I-475000J0D01*
G01*
X42125000Y-50000D01*
G75*
G02*
X41650000Y425000I0J475000D01*
G01*
X41650000Y2875000D01*
G75*
G02*
X42125000Y3350000I475000J0D01*
G01*
X43075000Y3350000D01*
G75*
G02*
X43550000Y2875000I0J-475000D01*
G01*
G37*
G36*
G01*
X59350000Y2925000D02*
X59350000Y475000D01*
G75*
G02*
X58875000Y0I-475000J0D01*
G01*
X57925000Y0D01*
G75*
G02*
X57450000Y475000I0J475000D01*
G01*
X57450000Y2925000D01*
G75*
G02*
X57925000Y3400000I475000J0D01*
G01*
X58875000Y3400000D01*
G75*
G02*
X59350000Y2925000I0J-475000D01*
G01*
G37*
G36*
G01*
X243550000Y2875000D02*
X243550000Y425000D01*
G75*
G02*
X243075000Y-50000I-475000J0D01*
G01*
X242125000Y-50000D01*
G75*
G02*
X241650000Y425000I0J475000D01*
G01*
X241650000Y2875000D01*
G75*
G02*
X242125000Y3350000I475000J0D01*
G01*
X243075000Y3350000D01*
G75*
G02*
X243550000Y2875000I0J-475000D01*
G01*
G37*
G36*
G01*
X259350000Y2925000D02*
X259350000Y475000D01*
G75*
G02*
X258875000Y0I-475000J0D01*
G01*
X257925000Y0D01*
G75*
G02*
X257450000Y475000I0J475000D01*
G01*
X257450000Y2925000D01*
G75*
G02*
X257925000Y3400000I475000J0D01*
G01*
X258875000Y3400000D01*
G75*
G02*
X259350000Y2925000I0J-475000D01*
G01*
G37*
D17*
X6101700Y-105000000D03*
X30726700Y-64500000D03*
X128101700Y-105000000D03*
X151851700Y-19505800D03*
X234975000Y-105000000D03*
X272976700Y-67000000D03*
X275351700Y-19505800D03*
X18851700Y-19505800D03*
X142000000Y-57250000D03*
D18*
X287000000Y2460000D03*
X285984000Y7540000D03*
X288016000Y7540000D03*
D19*
X284460000Y5635000D03*
X289540000Y5635000D03*
X289540000Y2460000D03*
X284460000Y2460000D03*
D20*
X166600000Y4750000D03*
X170650000Y4700000D03*
G36*
G01*
X177100000Y7425000D02*
X177100000Y7075000D01*
G75*
G02*
X176925000Y6900000I-175000J0D01*
G01*
X176175000Y6900000D01*
G75*
G02*
X176000000Y7075000I0J175000D01*
G01*
X176000000Y7425000D01*
G75*
G02*
X176175000Y7600000I175000J0D01*
G01*
X176925000Y7600000D01*
G75*
G02*
X177100000Y7425000I0J-175000D01*
G01*
G37*
G36*
G01*
X177100000Y8375000D02*
X177100000Y8025000D01*
G75*
G02*
X176925000Y7850000I-175000J0D01*
G01*
X176175000Y7850000D01*
G75*
G02*
X176000000Y8025000I0J175000D01*
G01*
X176000000Y8375000D01*
G75*
G02*
X176175000Y8550000I175000J0D01*
G01*
X176925000Y8550000D01*
G75*
G02*
X177100000Y8375000I0J-175000D01*
G01*
G37*
G36*
G01*
X177100000Y9325000D02*
X177100000Y8975000D01*
G75*
G02*
X176925000Y8800000I-175000J0D01*
G01*
X176175000Y8800000D01*
G75*
G02*
X176000000Y8975000I0J175000D01*
G01*
X176000000Y9325000D01*
G75*
G02*
X176175000Y9500000I175000J0D01*
G01*
X176925000Y9500000D01*
G75*
G02*
X177100000Y9325000I0J-175000D01*
G01*
G37*
G36*
G01*
X174500000Y9325000D02*
X174500000Y8975000D01*
G75*
G02*
X174325000Y8800000I-175000J0D01*
G01*
X173575000Y8800000D01*
G75*
G02*
X173400000Y8975000I0J175000D01*
G01*
X173400000Y9325000D01*
G75*
G02*
X173575000Y9500000I175000J0D01*
G01*
X174325000Y9500000D01*
G75*
G02*
X174500000Y9325000I0J-175000D01*
G01*
G37*
G36*
G01*
X174500000Y7425000D02*
X174500000Y7075000D01*
G75*
G02*
X174325000Y6900000I-175000J0D01*
G01*
X173575000Y6900000D01*
G75*
G02*
X173400000Y7075000I0J175000D01*
G01*
X173400000Y7425000D01*
G75*
G02*
X173575000Y7600000I175000J0D01*
G01*
X174325000Y7600000D01*
G75*
G02*
X174500000Y7425000I0J-175000D01*
G01*
G37*
G36*
G01*
X138450000Y9675000D02*
X138450000Y10025000D01*
G75*
G02*
X138625000Y10200000I175000J0D01*
G01*
X139375000Y10200000D01*
G75*
G02*
X139550000Y10025000I0J-175000D01*
G01*
X139550000Y9675000D01*
G75*
G02*
X139375000Y9500000I-175000J0D01*
G01*
X138625000Y9500000D01*
G75*
G02*
X138450000Y9675000I0J175000D01*
G01*
G37*
G36*
G01*
X138450000Y8725000D02*
X138450000Y9075000D01*
G75*
G02*
X138625000Y9250000I175000J0D01*
G01*
X139375000Y9250000D01*
G75*
G02*
X139550000Y9075000I0J-175000D01*
G01*
X139550000Y8725000D01*
G75*
G02*
X139375000Y8550000I-175000J0D01*
G01*
X138625000Y8550000D01*
G75*
G02*
X138450000Y8725000I0J175000D01*
G01*
G37*
G36*
G01*
X138450000Y7775000D02*
X138450000Y8125000D01*
G75*
G02*
X138625000Y8300000I175000J0D01*
G01*
X139375000Y8300000D01*
G75*
G02*
X139550000Y8125000I0J-175000D01*
G01*
X139550000Y7775000D01*
G75*
G02*
X139375000Y7600000I-175000J0D01*
G01*
X138625000Y7600000D01*
G75*
G02*
X138450000Y7775000I0J175000D01*
G01*
G37*
G36*
G01*
X141050000Y7775000D02*
X141050000Y8125000D01*
G75*
G02*
X141225000Y8300000I175000J0D01*
G01*
X141975000Y8300000D01*
G75*
G02*
X142150000Y8125000I0J-175000D01*
G01*
X142150000Y7775000D01*
G75*
G02*
X141975000Y7600000I-175000J0D01*
G01*
X141225000Y7600000D01*
G75*
G02*
X141050000Y7775000I0J175000D01*
G01*
G37*
G36*
G01*
X141050000Y9675000D02*
X141050000Y10025000D01*
G75*
G02*
X141225000Y10200000I175000J0D01*
G01*
X141975000Y10200000D01*
G75*
G02*
X142150000Y10025000I0J-175000D01*
G01*
X142150000Y9675000D01*
G75*
G02*
X141975000Y9500000I-175000J0D01*
G01*
X141225000Y9500000D01*
G75*
G02*
X141050000Y9675000I0J175000D01*
G01*
G37*
G36*
G01*
X92400000Y10575000D02*
X92400000Y10925000D01*
G75*
G02*
X92575000Y11100000I175000J0D01*
G01*
X93325000Y11100000D01*
G75*
G02*
X93500000Y10925000I0J-175000D01*
G01*
X93500000Y10575000D01*
G75*
G02*
X93325000Y10400000I-175000J0D01*
G01*
X92575000Y10400000D01*
G75*
G02*
X92400000Y10575000I0J175000D01*
G01*
G37*
G36*
G01*
X92400000Y9625000D02*
X92400000Y9975000D01*
G75*
G02*
X92575000Y10150000I175000J0D01*
G01*
X93325000Y10150000D01*
G75*
G02*
X93500000Y9975000I0J-175000D01*
G01*
X93500000Y9625000D01*
G75*
G02*
X93325000Y9450000I-175000J0D01*
G01*
X92575000Y9450000D01*
G75*
G02*
X92400000Y9625000I0J175000D01*
G01*
G37*
G36*
G01*
X92400000Y8675000D02*
X92400000Y9025000D01*
G75*
G02*
X92575000Y9200000I175000J0D01*
G01*
X93325000Y9200000D01*
G75*
G02*
X93500000Y9025000I0J-175000D01*
G01*
X93500000Y8675000D01*
G75*
G02*
X93325000Y8500000I-175000J0D01*
G01*
X92575000Y8500000D01*
G75*
G02*
X92400000Y8675000I0J175000D01*
G01*
G37*
G36*
G01*
X95000000Y8675000D02*
X95000000Y9025000D01*
G75*
G02*
X95175000Y9200000I175000J0D01*
G01*
X95925000Y9200000D01*
G75*
G02*
X96100000Y9025000I0J-175000D01*
G01*
X96100000Y8675000D01*
G75*
G02*
X95925000Y8500000I-175000J0D01*
G01*
X95175000Y8500000D01*
G75*
G02*
X95000000Y8675000I0J175000D01*
G01*
G37*
G36*
G01*
X95000000Y10575000D02*
X95000000Y10925000D01*
G75*
G02*
X95175000Y11100000I175000J0D01*
G01*
X95925000Y11100000D01*
G75*
G02*
X96100000Y10925000I0J-175000D01*
G01*
X96100000Y10575000D01*
G75*
G02*
X95925000Y10400000I-175000J0D01*
G01*
X95175000Y10400000D01*
G75*
G02*
X95000000Y10575000I0J175000D01*
G01*
G37*
G36*
G01*
X93300000Y6575000D02*
X92900000Y6575000D01*
G75*
G02*
X92850000Y6625000I0J50000D01*
G01*
X92850000Y7275000D01*
G75*
G02*
X92900000Y7325000I50000J0D01*
G01*
X93300000Y7325000D01*
G75*
G02*
X93350000Y7275000I0J-50000D01*
G01*
X93350000Y6625000D01*
G75*
G02*
X93300000Y6575000I-50000J0D01*
G01*
G37*
G36*
G01*
X94600000Y6575000D02*
X94200000Y6575000D01*
G75*
G02*
X94150000Y6625000I0J50000D01*
G01*
X94150000Y7275000D01*
G75*
G02*
X94200000Y7325000I50000J0D01*
G01*
X94600000Y7325000D01*
G75*
G02*
X94650000Y7275000I0J-50000D01*
G01*
X94650000Y6625000D01*
G75*
G02*
X94600000Y6575000I-50000J0D01*
G01*
G37*
G36*
G01*
X93950000Y4675000D02*
X93550000Y4675000D01*
G75*
G02*
X93500000Y4725000I0J50000D01*
G01*
X93500000Y5375000D01*
G75*
G02*
X93550000Y5425000I50000J0D01*
G01*
X93950000Y5425000D01*
G75*
G02*
X94000000Y5375000I0J-50000D01*
G01*
X94000000Y4725000D01*
G75*
G02*
X93950000Y4675000I-50000J0D01*
G01*
G37*
G36*
G01*
X94600000Y4675000D02*
X94200000Y4675000D01*
G75*
G02*
X94150000Y4725000I0J50000D01*
G01*
X94150000Y5375000D01*
G75*
G02*
X94200000Y5425000I50000J0D01*
G01*
X94600000Y5425000D01*
G75*
G02*
X94650000Y5375000I0J-50000D01*
G01*
X94650000Y4725000D01*
G75*
G02*
X94600000Y4675000I-50000J0D01*
G01*
G37*
G36*
G01*
X93300000Y4675000D02*
X92900000Y4675000D01*
G75*
G02*
X92850000Y4725000I0J50000D01*
G01*
X92850000Y5375000D01*
G75*
G02*
X92900000Y5425000I50000J0D01*
G01*
X93300000Y5425000D01*
G75*
G02*
X93350000Y5375000I0J-50000D01*
G01*
X93350000Y4725000D01*
G75*
G02*
X93300000Y4675000I-50000J0D01*
G01*
G37*
G36*
G01*
X142200000Y-200000D02*
X142200000Y-1400000D01*
G75*
G02*
X142150000Y-1450000I-50000J0D01*
G01*
X140750000Y-1450000D01*
G75*
G02*
X140700000Y-1400000I0J50000D01*
G01*
X140700000Y-200000D01*
G75*
G02*
X140750000Y-150000I50000J0D01*
G01*
X142150000Y-150000D01*
G75*
G02*
X142200000Y-200000I0J-50000D01*
G01*
G37*
G36*
G01*
X139800000Y-200000D02*
X139800000Y-1400000D01*
G75*
G02*
X139750000Y-1450000I-50000J0D01*
G01*
X138350000Y-1450000D01*
G75*
G02*
X138300000Y-1400000I0J50000D01*
G01*
X138300000Y-200000D01*
G75*
G02*
X138350000Y-150000I50000J0D01*
G01*
X139750000Y-150000D01*
G75*
G02*
X139800000Y-200000I0J-50000D01*
G01*
G37*
G36*
G01*
X139800000Y1700000D02*
X139800000Y500000D01*
G75*
G02*
X139750000Y450000I-50000J0D01*
G01*
X138350000Y450000D01*
G75*
G02*
X138300000Y500000I0J50000D01*
G01*
X138300000Y1700000D01*
G75*
G02*
X138350000Y1750000I50000J0D01*
G01*
X139750000Y1750000D01*
G75*
G02*
X139800000Y1700000I0J-50000D01*
G01*
G37*
G36*
G01*
X142200000Y1700000D02*
X142200000Y500000D01*
G75*
G02*
X142150000Y450000I-50000J0D01*
G01*
X140750000Y450000D01*
G75*
G02*
X140700000Y500000I0J50000D01*
G01*
X140700000Y1700000D01*
G75*
G02*
X140750000Y1750000I50000J0D01*
G01*
X142150000Y1750000D01*
G75*
G02*
X142200000Y1700000I0J-50000D01*
G01*
G37*
G36*
G01*
X103170000Y7475000D02*
X103170000Y8125000D01*
G75*
G02*
X103220000Y8175000I50000J0D01*
G01*
X104280000Y8175000D01*
G75*
G02*
X104330000Y8125000I0J-50000D01*
G01*
X104330000Y7475000D01*
G75*
G02*
X104280000Y7425000I-50000J0D01*
G01*
X103220000Y7425000D01*
G75*
G02*
X103170000Y7475000I0J50000D01*
G01*
G37*
G36*
G01*
X103170000Y5575000D02*
X103170000Y6225000D01*
G75*
G02*
X103220000Y6275000I50000J0D01*
G01*
X104280000Y6275000D01*
G75*
G02*
X104330000Y6225000I0J-50000D01*
G01*
X104330000Y5575000D01*
G75*
G02*
X104280000Y5525000I-50000J0D01*
G01*
X103220000Y5525000D01*
G75*
G02*
X103170000Y5575000I0J50000D01*
G01*
G37*
G36*
G01*
X100970000Y5575000D02*
X100970000Y6225000D01*
G75*
G02*
X101020000Y6275000I50000J0D01*
G01*
X102080000Y6275000D01*
G75*
G02*
X102130000Y6225000I0J-50000D01*
G01*
X102130000Y5575000D01*
G75*
G02*
X102080000Y5525000I-50000J0D01*
G01*
X101020000Y5525000D01*
G75*
G02*
X100970000Y5575000I0J50000D01*
G01*
G37*
G36*
G01*
X100970000Y6525000D02*
X100970000Y7175000D01*
G75*
G02*
X101020000Y7225000I50000J0D01*
G01*
X102080000Y7225000D01*
G75*
G02*
X102130000Y7175000I0J-50000D01*
G01*
X102130000Y6525000D01*
G75*
G02*
X102080000Y6475000I-50000J0D01*
G01*
X101020000Y6475000D01*
G75*
G02*
X100970000Y6525000I0J50000D01*
G01*
G37*
G36*
G01*
X100970000Y7475000D02*
X100970000Y8125000D01*
G75*
G02*
X101020000Y8175000I50000J0D01*
G01*
X102080000Y8175000D01*
G75*
G02*
X102130000Y8125000I0J-50000D01*
G01*
X102130000Y7475000D01*
G75*
G02*
X102080000Y7425000I-50000J0D01*
G01*
X101020000Y7425000D01*
G75*
G02*
X100970000Y7475000I0J50000D01*
G01*
G37*
G36*
G01*
X109650000Y5775000D02*
X109650000Y6125000D01*
G75*
G02*
X109825000Y6300000I175000J0D01*
G01*
X110575000Y6300000D01*
G75*
G02*
X110750000Y6125000I0J-175000D01*
G01*
X110750000Y5775000D01*
G75*
G02*
X110575000Y5600000I-175000J0D01*
G01*
X109825000Y5600000D01*
G75*
G02*
X109650000Y5775000I0J175000D01*
G01*
G37*
G36*
G01*
X109650000Y4825000D02*
X109650000Y5175000D01*
G75*
G02*
X109825000Y5350000I175000J0D01*
G01*
X110575000Y5350000D01*
G75*
G02*
X110750000Y5175000I0J-175000D01*
G01*
X110750000Y4825000D01*
G75*
G02*
X110575000Y4650000I-175000J0D01*
G01*
X109825000Y4650000D01*
G75*
G02*
X109650000Y4825000I0J175000D01*
G01*
G37*
G36*
G01*
X109650000Y3875000D02*
X109650000Y4225000D01*
G75*
G02*
X109825000Y4400000I175000J0D01*
G01*
X110575000Y4400000D01*
G75*
G02*
X110750000Y4225000I0J-175000D01*
G01*
X110750000Y3875000D01*
G75*
G02*
X110575000Y3700000I-175000J0D01*
G01*
X109825000Y3700000D01*
G75*
G02*
X109650000Y3875000I0J175000D01*
G01*
G37*
G36*
G01*
X112250000Y3875000D02*
X112250000Y4225000D01*
G75*
G02*
X112425000Y4400000I175000J0D01*
G01*
X113175000Y4400000D01*
G75*
G02*
X113350000Y4225000I0J-175000D01*
G01*
X113350000Y3875000D01*
G75*
G02*
X113175000Y3700000I-175000J0D01*
G01*
X112425000Y3700000D01*
G75*
G02*
X112250000Y3875000I0J175000D01*
G01*
G37*
G36*
G01*
X112250000Y5775000D02*
X112250000Y6125000D01*
G75*
G02*
X112425000Y6300000I175000J0D01*
G01*
X113175000Y6300000D01*
G75*
G02*
X113350000Y6125000I0J-175000D01*
G01*
X113350000Y5775000D01*
G75*
G02*
X113175000Y5600000I-175000J0D01*
G01*
X112425000Y5600000D01*
G75*
G02*
X112250000Y5775000I0J175000D01*
G01*
G37*
G36*
G01*
X182175000Y2050000D02*
X182175000Y1650000D01*
G75*
G02*
X182125000Y1600000I-50000J0D01*
G01*
X181475000Y1600000D01*
G75*
G02*
X181425000Y1650000I0J50000D01*
G01*
X181425000Y2050000D01*
G75*
G02*
X181475000Y2100000I50000J0D01*
G01*
X182125000Y2100000D01*
G75*
G02*
X182175000Y2050000I0J-50000D01*
G01*
G37*
G36*
G01*
X182175000Y3350000D02*
X182175000Y2950000D01*
G75*
G02*
X182125000Y2900000I-50000J0D01*
G01*
X181475000Y2900000D01*
G75*
G02*
X181425000Y2950000I0J50000D01*
G01*
X181425000Y3350000D01*
G75*
G02*
X181475000Y3400000I50000J0D01*
G01*
X182125000Y3400000D01*
G75*
G02*
X182175000Y3350000I0J-50000D01*
G01*
G37*
G36*
G01*
X184075000Y2700000D02*
X184075000Y2300000D01*
G75*
G02*
X184025000Y2250000I-50000J0D01*
G01*
X183375000Y2250000D01*
G75*
G02*
X183325000Y2300000I0J50000D01*
G01*
X183325000Y2700000D01*
G75*
G02*
X183375000Y2750000I50000J0D01*
G01*
X184025000Y2750000D01*
G75*
G02*
X184075000Y2700000I0J-50000D01*
G01*
G37*
G36*
G01*
X184075000Y3350000D02*
X184075000Y2950000D01*
G75*
G02*
X184025000Y2900000I-50000J0D01*
G01*
X183375000Y2900000D01*
G75*
G02*
X183325000Y2950000I0J50000D01*
G01*
X183325000Y3350000D01*
G75*
G02*
X183375000Y3400000I50000J0D01*
G01*
X184025000Y3400000D01*
G75*
G02*
X184075000Y3350000I0J-50000D01*
G01*
G37*
G36*
G01*
X184075000Y2050000D02*
X184075000Y1650000D01*
G75*
G02*
X184025000Y1600000I-50000J0D01*
G01*
X183375000Y1600000D01*
G75*
G02*
X183325000Y1650000I0J50000D01*
G01*
X183325000Y2050000D01*
G75*
G02*
X183375000Y2100000I50000J0D01*
G01*
X184025000Y2100000D01*
G75*
G02*
X184075000Y2050000I0J-50000D01*
G01*
G37*
D21*
X294000000Y9000000D03*
X6000000Y-110000000D03*
G36*
G01*
X76250000Y10025000D02*
X76250000Y10375000D01*
G75*
G02*
X76425000Y10550000I175000J0D01*
G01*
X77175000Y10550000D01*
G75*
G02*
X77350000Y10375000I0J-175000D01*
G01*
X77350000Y10025000D01*
G75*
G02*
X77175000Y9850000I-175000J0D01*
G01*
X76425000Y9850000D01*
G75*
G02*
X76250000Y10025000I0J175000D01*
G01*
G37*
G36*
G01*
X76250000Y8125000D02*
X76250000Y8475000D01*
G75*
G02*
X76425000Y8650000I175000J0D01*
G01*
X77175000Y8650000D01*
G75*
G02*
X77350000Y8475000I0J-175000D01*
G01*
X77350000Y8125000D01*
G75*
G02*
X77175000Y7950000I-175000J0D01*
G01*
X76425000Y7950000D01*
G75*
G02*
X76250000Y8125000I0J175000D01*
G01*
G37*
G36*
G01*
X73650000Y8125000D02*
X73650000Y8475000D01*
G75*
G02*
X73825000Y8650000I175000J0D01*
G01*
X74575000Y8650000D01*
G75*
G02*
X74750000Y8475000I0J-175000D01*
G01*
X74750000Y8125000D01*
G75*
G02*
X74575000Y7950000I-175000J0D01*
G01*
X73825000Y7950000D01*
G75*
G02*
X73650000Y8125000I0J175000D01*
G01*
G37*
G36*
G01*
X73650000Y9075000D02*
X73650000Y9425000D01*
G75*
G02*
X73825000Y9600000I175000J0D01*
G01*
X74575000Y9600000D01*
G75*
G02*
X74750000Y9425000I0J-175000D01*
G01*
X74750000Y9075000D01*
G75*
G02*
X74575000Y8900000I-175000J0D01*
G01*
X73825000Y8900000D01*
G75*
G02*
X73650000Y9075000I0J175000D01*
G01*
G37*
G36*
G01*
X73650000Y10025000D02*
X73650000Y10375000D01*
G75*
G02*
X73825000Y10550000I175000J0D01*
G01*
X74575000Y10550000D01*
G75*
G02*
X74750000Y10375000I0J-175000D01*
G01*
X74750000Y10025000D01*
G75*
G02*
X74575000Y9850000I-175000J0D01*
G01*
X73825000Y9850000D01*
G75*
G02*
X73650000Y10025000I0J175000D01*
G01*
G37*
G36*
G01*
X185100000Y6225000D02*
X185100000Y5875000D01*
G75*
G02*
X184925000Y5700000I-175000J0D01*
G01*
X184175000Y5700000D01*
G75*
G02*
X184000000Y5875000I0J175000D01*
G01*
X184000000Y6225000D01*
G75*
G02*
X184175000Y6400000I175000J0D01*
G01*
X184925000Y6400000D01*
G75*
G02*
X185100000Y6225000I0J-175000D01*
G01*
G37*
G36*
G01*
X185100000Y7175000D02*
X185100000Y6825000D01*
G75*
G02*
X184925000Y6650000I-175000J0D01*
G01*
X184175000Y6650000D01*
G75*
G02*
X184000000Y6825000I0J175000D01*
G01*
X184000000Y7175000D01*
G75*
G02*
X184175000Y7350000I175000J0D01*
G01*
X184925000Y7350000D01*
G75*
G02*
X185100000Y7175000I0J-175000D01*
G01*
G37*
G36*
G01*
X185100000Y8125000D02*
X185100000Y7775000D01*
G75*
G02*
X184925000Y7600000I-175000J0D01*
G01*
X184175000Y7600000D01*
G75*
G02*
X184000000Y7775000I0J175000D01*
G01*
X184000000Y8125000D01*
G75*
G02*
X184175000Y8300000I175000J0D01*
G01*
X184925000Y8300000D01*
G75*
G02*
X185100000Y8125000I0J-175000D01*
G01*
G37*
G36*
G01*
X182500000Y8125000D02*
X182500000Y7775000D01*
G75*
G02*
X182325000Y7600000I-175000J0D01*
G01*
X181575000Y7600000D01*
G75*
G02*
X181400000Y7775000I0J175000D01*
G01*
X181400000Y8125000D01*
G75*
G02*
X181575000Y8300000I175000J0D01*
G01*
X182325000Y8300000D01*
G75*
G02*
X182500000Y8125000I0J-175000D01*
G01*
G37*
G36*
G01*
X182500000Y6225000D02*
X182500000Y5875000D01*
G75*
G02*
X182325000Y5700000I-175000J0D01*
G01*
X181575000Y5700000D01*
G75*
G02*
X181400000Y5875000I0J175000D01*
G01*
X181400000Y6225000D01*
G75*
G02*
X181575000Y6400000I175000J0D01*
G01*
X182325000Y6400000D01*
G75*
G02*
X182500000Y6225000I0J-175000D01*
G01*
G37*
M02*
